/* XPM */
static char * closeu_xpm[] = {
"17 17 69 1",
" 	c None",
".	c #79797B",
"+	c #797979",
"@	c #79787D",
"#	c #78797D",
"$	c #777B7C",
"%	c #767A79",
"&	c #757978",
"*	c #787A79",
"=	c #7A7879",
"-	c #4D4E50",
";	c #4E4F51",
">	c #4E5052",
",	c #4E5051",
"'	c #4D4F50",
")	c #4D4F51",
"!	c #4F5153",
"~	c #505153",
"{	c #505152",
"]	c #4F5152",
"^	c #515355",
"/	c #515255",
"(	c #515254",
"_	c #515354",
":	c #525354",
"<	c #525456",
"[	c #535456",
"}	c #535556",
"|	c #535557",
"1	c #C1C1C1",
"2	c #525556",
"3	c #535457",
"4	c #525557",
"5	c #545759",
"6	c #555758",
"7	c #545658",
"8	c #545758",
"9	c #000000",
"0	c #56585A",
"a	c #565859",
"b	c #56595A",
"c	c #575A5C",
"d	c #585A5C",
"e	c #585A5B",
"f	c #575A5B",
"g	c #595B5D",
"h	c #595C5D",
"i	c #595C5E",
"j	c #5A5C5E",
"k	c #5A5C5D",
"l	c #5A5D5F",
"m	c #5B5E5F",
"n	c #5B5D5F",
"o	c #5A5E5F",
"p	c #5C5F61",
"q	c #5C6061",
"r	c #5D5F61",
"s	c #5C5F60",
"t	c #5E6162",
"u	c #5E6163",
"v	c #5E6263",
"w	c #5D6162",
"x	c #5F6364",
"y	c #606364",
"z	c #616466",
"A	c #616566",
"B	c #606566",
"C	c #606466",
"D	c #626667",
"....++..@@@#$%&*=",
"-----------------",
";;;;;;;>;,');;;,;",
"!~~!{!!!~!{]~~~]~",
"^^/^(^__/__(_:_/_",
"<[}|11||211|2}34}",
"56761118111978777",
"0a0001111199000bb",
"cdeefc11199cccecc",
"ghhih11111jihhhkh",
"lmnm1119111lnnooo",
"pqpq1199r119pqsqq",
"tttut99utu99vwtut",
"xxxxyyxxxxyyyxyxy",
"zzAAABAAAzAzCAAAz",
"DDDDDDDDDDDDDDDDD",
"DDDDDDDDDDDDDDDDD"};
