/* XPM */
static char * close_xpm[] = {
"17 17 80 1",
" 	c None",
".	c #79797B",
"+	c #797979",
"@	c #79787D",
"#	c #78797D",
"$	c #777B7C",
"%	c #767A79",
"&	c #757978",
"*	c #787A79",
"=	c #7A7879",
"-	c #4D4E50",
";	c #4E4F51",
">	c #4E5052",
",	c #4E5051",
"'	c #4D4F50",
")	c #4D4F51",
"!	c #4F5153",
"~	c #505153",
"{	c #505152",
"]	c #4F5152",
"^	c #515355",
"/	c #515255",
"(	c #515254",
"_	c #515354",
":	c #525354",
"<	c #525456",
"[	c #535456",
"}	c #535556",
"|	c #535557",
"1	c #FFFEFF",
"2	c #FFFDFF",
"3	c #525556",
"4	c #FFFFFF",
"5	c #FBFDFC",
"6	c #535457",
"7	c #525557",
"8	c #545759",
"9	c #555758",
"0	c #545658",
"a	c #FCFCFE",
"b	c #545758",
"c	c #FEFFFF",
"d	c #000000",
"e	c #56585A",
"f	c #565859",
"g	c #FCFEFD",
"h	c #FEFEFF",
"i	c #56595A",
"j	c #575A5C",
"k	c #585A5C",
"l	c #585A5B",
"m	c #575A5B",
"n	c #FCFDFF",
"o	c #595B5D",
"p	c #595C5D",
"q	c #595C5E",
"r	c #FDFEFF",
"s	c #FBFBFD",
"t	c #5A5C5E",
"u	c #5A5C5D",
"v	c #5A5D5F",
"w	c #5B5E5F",
"x	c #5B5D5F",
"y	c #FBFCFE",
"z	c #5A5E5F",
"A	c #5C5F61",
"B	c #5C6061",
"C	c #5D5F61",
"D	c #5C5F60",
"E	c #5E6162",
"F	c #5E6163",
"G	c #5E6263",
"H	c #5D6162",
"I	c #5F6364",
"J	c #606364",
"K	c #616466",
"L	c #616566",
"M	c #606566",
"N	c #606466",
"O	c #626667",
"....++..@@@#$%&*=",
"-----------------",
";;;;;;;>;,');;;,;",
"!~~!{!!!~!{]~~~]~",
"^^/^(^__/__(_:_/_",
"<[}|12||345|3}67}",
"8909a11b1acd0b000",
"efeeegch4cddeeeii",
"jkllmjccnddjjjljj",
"oppqprcscctqpppup",
"vwxwcy4dcrcvxxzzz",
"ABABccddCccdABDBB",
"EEEFEddFEFddGHEFE",
"IIIIJJIIIIJJJIJIJ",
"KKLLLMLLLKLKNLLLK",
"OOOOOOOOOOOOOOOOO",
"OOOOOOOOOOOOOOOOO"};
