/* XPM */
static char * maxu_xpm[] = {
"17 17 68 1",
" 	c None",
".	c #79797B",
"+	c #7A787B",
"@	c #7A7A7C",
"#	c #4D4E50",
"$	c #4F5051",
"%	c #4E4F51",
"&	c #4E4F52",
"*	c #4F4F51",
"=	c #4F4F52",
"-	c #4E5051",
";	c #4F5153",
">	c #505153",
",	c #4F5152",
"'	c #515355",
")	c #525254",
"!	c #515255",
"~	c #525355",
"{	c #515354",
"]	c #525354",
"^	c #515254",
"/	c #535556",
"(	c #535456",
"_	c #525557",
":	c #535557",
"<	c #535457",
"[	c #C1C1C1",
"}	c #525556",
"|	c #545659",
"1	c #555758",
"2	c #545758",
"3	c #545658",
"4	c #000000",
"5	c #555658",
"6	c #56595A",
"7	c #56585A",
"8	c #565859",
"9	c #585A5C",
"0	c #585A5B",
"a	c #575A5B",
"b	c #575A5C",
"c	c #595B5E",
"d	c #5A5C5D",
"e	c #595C5D",
"f	c #595C5E",
"g	c #595B5D",
"h	c #5A5B5D",
"i	c #5B5E5F",
"j	c #5A5D5F",
"k	c #5A5E5F",
"l	c #5B5D5F",
"m	c #5D5F61",
"n	c #5C6061",
"o	c #5C5F61",
"p	c #5D6061",
"q	c #5C5F60",
"r	c #5E6262",
"s	c #5D6162",
"t	c #5E6162",
"u	c #5E6163",
"v	c #5F6364",
"w	c #606364",
"x	c #5F6365",
"y	c #606365",
"z	c #616566",
"A	c #616466",
"B	c #616565",
"C	c #626667",
".+.+......@......",
"#################",
"$%%%%%%%&%%%**%=-",
";>;>>>;;;>>>>>;;,",
"')!~!{!')']{^^~''",
"/(_:(<[[[[[[[</(}",
"|12133[[[[[[[4552",
"677787[44444[4787",
"909999[4ab90[499b",
"cdeefg[4efhd[4efe",
"ijikil[4jiij[4ikk",
"mnonpq[[[[[[[4nmo",
"rststuu4444444utt",
"vvwvwwxvvvwywwvvw",
"zzzzAzzzAzzzzzBzz",
"CCCCCCCCCCCCCCCCC",
"CCCCCCCCCCCCCCCCC"};
