/* XPM */
static char * sticku_xpm[] = {
"17 17 66 1",
" 	c None",
".	c #7A787B",
"+	c #79797B",
"@	c #78787A",
"#	c #4D4E50",
"$	c #4E4F52",
"%	c #4E4F51",
"&	c #4E5051",
"*	c #4F4F52",
"=	c #4F5153",
"-	c #505153",
";	c #505152",
">	c #4F5152",
",	c #515355",
"'	c #515354",
")	c #515255",
"!	c #525355",
"~	c #525354",
"{	c #525556",
"]	c #535557",
"^	c #535556",
"/	c #535457",
"(	c #535456",
"_	c #525457",
":	c #555758",
"<	c #545758",
"[	c #555658",
"}	c #545658",
"|	c #545759",
"1	c #565959",
"2	c #56585A",
"3	c #56595A",
"4	c #565859",
"5	c #55585A",
"6	c #585A5C",
"7	c #575A5C",
"8	c #585A5B",
"9	c #575A5B",
"0	c #595C5E",
"a	c #595C5D",
"b	c #595B5D",
"c	c #5A5C5D",
"d	c #5A5D5F",
"e	c #5A5E5F",
"f	c #5B5E5F",
"g	c #C1C1C1",
"h	c #5C5F61",
"i	c #5C6060",
"j	c #5C5F60",
"k	c #5C6061",
"l	c #000000",
"m	c #5E6163",
"n	c #5D6162",
"o	c #5E6162",
"p	c #5D6263",
"q	c #5D6163",
"r	c #5E6262",
"s	c #606364",
"t	c #5F6364",
"u	c #5F6365",
"v	c #606365",
"w	c #616565",
"x	c #616566",
"y	c #616466",
"z	c #616465",
"A	c #626667",
".+.+.++++++++@++.",
"#################",
"$%&$$$$$%%%$%*%%%",
"=---;--->---==>==",
",,',),!~!,,,!,,,~",
"{]^/{]^^(_/{(]/(^",
":<[<}[<:}|}}<}}<<",
"12342225232233223",
"66777879868678666",
"0aabaababb0aabaca",
"ddeeffffggddeeffe",
"hhijjhhkgglhijjjh",
"mmnopqooollmnopnr",
"stuusstsssssusssv",
"wxxxxxxxwyxxxzxyx",
"AAAAAAAAAAAAAAAAA",
"AAAAAAAAAAAAAAAAA"};
