/* XPM */
static char * app_16x16_xpm[] = {
"16 16 4 1",
" 	g None",
".	g #B5B5B5",
"+	g #4C4C4C",
"@	g #343434",
"                ",
"                ",
"                ",
" .++@        +  ",
"  .++@      +   ",
"   .++@    +    ",
"    .++@  +     ",
"     .++ +      ",
"      + +@      ",
"     + .++@     ",
"    +   .++@    ",
"   +     .++@   ",
"  +       .++@  ",
" +         .++@ ",
"                ",
"                "};
