/* XPM */
static char *email_16x16[] = {
/* columns rows colors chars-per-pixel */
"16 16 45 1",
"  c black",
". c #3d312a",
"X c #40332b",
"o c #665753",
"O c #675854",
"+ c #6a5b55",
"@ c gray46",
"# c #7c7c7c",
"$ c #8d7468",
"% c #aa927d",
"& c #808080",
"* c gray60",
"= c #a69081",
"- c #af9b8a",
"; c #b39f8e",
": c #b6a394",
"> c #a0a0a0",
", c #c4b6a9",
"< c #cfbda8",
"1 c #d3c3ac",
"2 c #d7cbb2",
"3 c #dacdbc",
"4 c #dfd6be",
"5 c #e1d4b9",
"6 c #c3c3c3",
"7 c gainsboro",
"8 c #e3dac4",
"9 c #e6dcca",
"0 c #e8decf",
"q c #eaddd4",
"w c #eae0d2",
"e c #eee7dd",
"r c #f7edce",
"t c #f7ecd1",
"y c #f4ecd9",
"u c #f8eed5",
"i c #f8f0dd",
"p c #e3e3e3",
"a c #f6f0e7",
"s c #f9f1e2",
"d c #f8f2eb",
"f c #fcf7f3",
"g c #fcf8f3",
"h c #fefefe",
"j c None",
/* pixels */
"jjjjjjjjjjjoo jj",
"jjjjjjjjooO4=.jj",
"jjjjjooo998t:.jj",
"jjoo+w00siu=2.jj",
"jjo;%dedsi<,5.jj",
"jj+3<:%gy5-t4.jj",
"jjoqq31=$%%r5.jj",
"jjoqag$siut$%.jj",
"jjOqf$ss#gh  .jj",
"jjog$009@ph7 jjj",
"jjo$0..X*ph7 jjj",
"jjo..h >phh6 jjj",
"jjjjj 7hh76 jjjj",
"jjjj 76>&  jjjjj",
"jjj 6    jjjjjjj",
"jjjj jjjjjjjjjjj"
};
