/* XPM */
static char * ethereal_16x16_xpm[] = {
"16 16 163 2",
"  	c None",
". 	c #959A94",
"+ 	c #8B8F8A",
"@ 	c #B2B9B2",
"# 	c #939792",
"$ 	c #9D9D99",
"% 	c #A7A4A0",
"& 	c #A39F9B",
"* 	c #92908A",
"= 	c #757772",
"- 	c #676B67",
"; 	c #AFB4AF",
"> 	c #B4B3B2",
", 	c #E1DBDC",
"' 	c #DBD5D5",
") 	c #B6AFAF",
"! 	c #ADA5A4",
"~ 	c #C2B9B3",
"{ 	c #C1B9AE",
"] 	c #99968C",
"^ 	c #686B67",
"/ 	c #A7ADA7",
"( 	c #C2C0BF",
"_ 	c #E4E0DF",
": 	c #797479",
"< 	c #1F1924",
"[ 	c #312932",
"} 	c #332B31",
"| 	c #1D1318",
"1 	c #948B85",
"2 	c #BCB4A8",
"3 	c #A09D92",
"4 	c #646762",
"5 	c #A8A8A5",
"6 	c #E3DFDF",
"7 	c #4B464E",
"8 	c #544E55",
"9 	c #D3CCCC",
"0 	c #E4DCDA",
"a 	c #D8CFCC",
"b 	c #C1B8AF",
"c 	c #BDB5A9",
"d 	c #B1AC9E",
"e 	c #8E8E85",
"f 	c #5B5E5B",
"g 	c #878B85",
"h 	c #D6D0CE",
"i 	c #858085",
"j 	c #4B454C",
"k 	c #EEE7E6",
"l 	c #EDE5E3",
"m 	c #E1D9D5",
"n 	c #B0A7A4",
"o 	c #524948",
"p 	c #918881",
"q 	c #B2AD9F",
"r 	c #A2A094",
"s 	c #656863",
"t 	c #8D8D89",
"u 	c #DAD3D0",
"v 	c #2D2630",
"w 	c #BAB2B2",
"x 	c #E9E1DE",
"y 	c #BCB3B1",
"z 	c #52494A",
"A 	c #1B1216",
"B 	c #625958",
"C 	c #B3ABA1",
"D 	c #B9B2A4",
"E 	c #B0AB9D",
"F 	c #A3A194",
"G 	c #7A7D76",
"H 	c #959490",
"I 	c #C9C1BE",
"J 	c #19111A",
"K 	c #D9D0CD",
"L 	c #595051",
"M 	c #1A1216",
"N 	c #665D5C",
"O 	c #B8AFA7",
"P 	c #C3BAAF",
"Q 	c #B6AFA1",
"R 	c #ADA99A",
"S 	c #A1A093",
"T 	c #848780",
"U 	c #575957",
"V 	c #908E87",
"W 	c #C4BBB6",
"X 	c #191014",
"Y 	c #CCC3BE",
"Z 	c #887F7D",
"` 	c #BCB3AD",
" .	c #C8BFB6",
"..	c #BDB6AA",
"+.	c #B8B1A3",
"@.	c #B2AC9E",
"#.	c #A9A697",
"$.	c #9D9C90",
"%.	c #82857F",
"&.	c #585A57",
"*.	c #7B7C76",
"=.	c #C4BBB1",
"-.	c #342B2C",
";.	c #968D88",
">.	c #C7BEB4",
",.	c #C1B8AD",
"'.	c #B3AD9E",
").	c #ACA89A",
"!.	c #A4A194",
"~.	c #96978C",
"{.	c #777B75",
"].	c #6B6E6A",
"^.	c #B0AA9E",
"/.	c #807870",
"(.	c #312827",
"_.	c #B6ADA3",
":.	c #BAB3A5",
"<.	c #B6B0A2",
"[.	c #B2AD9E",
"}.	c #A6A496",
"|.	c #9C9C90",
"1.	c #8E8F87",
"2.	c #666964",
"3.	c #7F7F77",
"4.	c #534D45",
"5.	c #2F2923",
"6.	c #898277",
"7.	c #B0AA9C",
"8.	c #AEA99B",
"9.	c #8E897D",
"0.	c #9B988B",
"a.	c #9D9D91",
"b.	c #929289",
"c.	c #878B84",
"d.	c #5A5D5A",
"e.	c #616460",
"f.	c #898A80",
"g.	c #A8A597",
"h.	c #736F64",
"i.	c #2D2922",
"j.	c #16120E",
"k.	c #161310",
"l.	c #23211C",
"m.	c #7B7B70",
"n.	c #919289",
"o.	c #8B8E88",
"p.	c #5C5F5C",
"q.	c #5C5F5A",
"r.	c #787B73",
"s.	c #9C9B90",
"t.	c #949489",
"u.	c #8F9085",
"v.	c #92938A",
"w.	c #8E9088",
"x.	c #858881",
"y.	c #5C5F5B",
"z.	c #5E625C",
"A.	c #696C66",
"B.	c #777A73",
"C.	c #787B75",
"D.	c #6F736C",
"E.	c #646764",
"F.	c #575956",
"              . +               ",
"        @ # $ % & * = -         ",
"      ; > , ' ) ! ~ { ] ^       ",
"    / ( _ : < [ } | 1 2 3 4     ",
"    5 6 7 8 9 0 a ~ b c d e f   ",
"  g h i j k l m n o p 2 q r s   ",
"  t u v w x y z A B C D E F G   ",
"  H I J K L M N O P 2 Q R S T U ",
"  V W X Y Z `  .P ..+.@.#.$.%.&.",
"  *.=.-.;.>.=.,.c +.'.).!.~.{.  ",
"  ].^./.(._.c :.<.[.R }.|.1.2.  ",
"    3.d 4.5.6.7.8.9.0.a.b.c.d.  ",
"    e.f.g.h.i.j.k.l.m.n.o.p.    ",
"      q.r.~.s.t.u.v.w.x.y.      ",
"          z.A.B.C.D.E.F.        ",
"                                "};
