/* XPM */
static char * find_16x16_xpm[] = {
"16 16 105 2",
"  	c None",
". 	c #0D0D0D",
"+ 	c #2F2F2F",
"@ 	c #212121",
"# 	c #010101",
"$ 	c #202020",
"% 	c #747677",
"& 	c #9CBBBF",
"* 	c #92C5CC",
"= 	c #93C3C9",
"- 	c #889C9F",
"; 	c #464646",
"> 	c #232323",
", 	c #9BA6A7",
"' 	c #9CDAE1",
") 	c #94DFE9",
"! 	c #88DCE6",
"~ 	c #7AD8E4",
"{ 	c #76D7E3",
"] 	c #8AC6CE",
"^ 	c #565758",
"/ 	c #7D7E7E",
"( 	c #AFDFE6",
"_ 	c #B6E9F0",
": 	c #B2E8EF",
"< 	c #A3E4EC",
"[ 	c #8DDDE7",
"} 	c #78D8E3",
"| 	c #8DBFC6",
"1 	c #2C2C2C",
"2 	c #181818",
"3 	c #B6C7C9",
"4 	c #C6EEF3",
"5 	c #D5F2F6",
"6 	c #CEF0F5",
"7 	c #B9EAF0",
"8 	c #9EE2EB",
"9 	c #81DAE5",
"0 	c #78D4E0",
"a 	c #5F6263",
"b 	c #3F3F3F",
"c 	c #BCD4D6",
"d 	c #D6F2F6",
"e 	c #EFFAFC",
"f 	c #E2F6F9",
"g 	c #C5EEF3",
"h 	c #A6E4EC",
"i 	c #86DCE6",
"j 	c #718183",
"k 	c #323232",
"l 	c #BCD1D4",
"m 	c #D1F2F5",
"n 	c #E4F6F9",
"o 	c #DBF4F7",
"p 	c #C1ECF2",
"q 	c #85DBE6",
"r 	c #6C7678",
"s 	c #020202",
"t 	c #A2AAAA",
"u 	c #BBEAF0",
"v 	c #C1EDF2",
"w 	c #B0E7EE",
"x 	c #96E0E9",
"y 	c #7CD9E4",
"z 	c #80CDD6",
"A 	c #4C4C4C",
"B 	c #515151",
"C 	c #AECED2",
"D 	c #A6E5EC",
"E 	c #A4E4EC",
"F 	c #83DAE5",
"G 	c #78D5E0",
"H 	c #788F92",
"I 	c #253F43",
"J 	c #5D5D5D",
"K 	c #A4C2C5",
"L 	c #8ED4DD",
"M 	c #7CD8E4",
"N 	c #78D6E2",
"O 	c #85CBD3",
"P 	c #7E9092",
"Q 	c #78ABB2",
"R 	c #5DA5AE",
"S 	c #030404",
"T 	c #626262",
"U 	c #727676",
"V 	c #6B6C6C",
"W 	c #4B4B4B",
"X 	c #424545",
"Y 	c #A1B9BC",
"Z 	c #505454",
"` 	c #2D2D2D",
" .	c #030303",
"..	c #1A1A1A",
"+.	c #888888",
"@.	c #686868",
"#.	c #1F1F1F",
"$.	c #676767",
"%.	c #1E1E1E",
"&.	c #868686",
"*.	c #242424",
"=.	c #000000",
"-.	c #1D1D1D",
";.	c #656565",
">.	c #0C0C0C",
"        . + @ #                 ",
"    $ % & * = - ;               ",
"  > , ' ) ! ~ { ] ^             ",
"  / ( _ : < [ } { | 1           ",
"2 3 4 5 6 7 8 9 { 0 a           ",
"b c d e f g h i { { j           ",
"k l m n o p < q { { r           ",
"s t u 4 v w x y { z A           ",
"  B C D E x F { G H I           ",
"    J K L M N O P Q R S         ",
"        T U V W X Y Z `  .      ",
"                  ..+.@.`  .    ",
"                    #.+.$.`  .  ",
"                      %.&.$.*.=.",
"                        -.;.>.  ",
"                          =.    "};
