/* XPM */
static char * freebsd_h_16x16_xpm[] = {
"16 16 158 2",
"  	c None",
". 	c #820302",
"+ 	c #CB4D48",
"@ 	c #F4A498",
"# 	c #BFA295",
"$ 	c #DFDFDE",
"% 	c #FDFDFC",
"& 	c #FFFFFE",
"* 	c #FCF6F5",
"= 	c #F8E7E6",
"- 	c #DFC3C2",
"; 	c #C0AA9B",
"> 	c #EDC5BC",
", 	c #E38681",
"' 	c #910504",
") 	c #811010",
"! 	c #A30905",
"~ 	c #F08C85",
"{ 	c #FDFAF9",
"] 	c #FEFBF9",
"^ 	c #FEFAF3",
"/ 	c #FDF8F7",
"( 	c #FDF7F7",
"_ 	c #EBC8C8",
": 	c #DC8F83",
"< 	c #FFF7F5",
"[ 	c #F9ABA5",
"} 	c #B61A14",
"| 	c #8C1B1B",
"1 	c #BD6767",
"2 	c #FCF3F0",
"3 	c #FEF5F2",
"4 	c #FDEEEB",
"5 	c #FCE5D7",
"6 	c #FBE3D7",
"7 	c #FAE3D1",
"8 	c #F6E1DA",
"9 	c #EEBBB1",
"0 	c #FEA79D",
"a 	c #D41D14",
"b 	c #A52827",
"c 	c #E4D3D0",
"d 	c #FCE5DB",
"e 	c #FFF9F5",
"f 	c #FCCFC5",
"g 	c #FCAE93",
"h 	c #F68667",
"i 	c #E16F6A",
"j 	c #D47070",
"k 	c #C87776",
"l 	c #CB322A",
"m 	c #A20E0B",
"n 	c #C68583",
"o 	c #EFBAAA",
"p 	c #FCE8DA",
"q 	c #FBC6A4",
"r 	c #F75737",
"s 	c #F61605",
"t 	c #E30703",
"u 	c #C80404",
"v 	c #B30505",
"w 	c #A00A0A",
"x 	c #8E1E1E",
"y 	c #833030",
"z 	c #905851",
"A 	c #9E9796",
"B 	c #AC9B9B",
"C 	c #E67E4F",
"D 	c #F7B58C",
"E 	c #F04D1B",
"F 	c #EA0500",
"G 	c #EB0000",
"H 	c #D20000",
"I 	c #BE0000",
"J 	c #AB0000",
"K 	c #970000",
"L 	c #840101",
"M 	c #750A0A",
"N 	c #741D1A",
"O 	c #B49B8E",
"P 	c #AE9B9B",
"Q 	c #D52F0E",
"R 	c #E83305",
"S 	c #EA2B02",
"T 	c #DE0000",
"U 	c #DF0000",
"V 	c #BD0000",
"W 	c #AF0000",
"X 	c #A00000",
"Y 	c #9F0000",
"Z 	c #A80000",
"` 	c #7B0000",
" .	c #850201",
"..	c #C9AF9A",
"+.	c #A8A1A1",
"@.	c #BA2213",
"#.	c #DE1F02",
"$.	c #E52902",
"%.	c #D70B01",
"&.	c #A90000",
"*.	c #A10000",
"=.	c #B40000",
"-.	c #B60000",
";.	c #9C0000",
">.	c #7A0000",
",.	c #B74226",
"'.	c #C8BEA5",
").	c #B3524D",
"!.	c #C81401",
"~.	c #DB1E02",
"{.	c #DD2302",
"].	c #C80500",
"^.	c #960000",
"/.	c #B10000",
"(.	c #B50000",
"_.	c #AC0000",
":.	c #930000",
"<.	c #9D0F08",
"[.	c #F3C77E",
"}.	c #9F9C90",
"|.	c #AF908F",
"1.	c #AC0902",
"2.	c #CE1301",
"3.	c #D51D02",
"4.	c #D72402",
"5.	c #AC1501",
"6.	c #B60700",
"7.	c #AC0200",
"8.	c #B30B01",
"9.	c #BF2206",
"0.	c #D13F1B",
"a.	c #DDA997",
"b.	c #AC5755",
"c.	c #B90801",
"d.	c #C81201",
"e.	c #CD1C02",
"f.	c #C92702",
"g.	c #D83103",
"h.	c #E03B03",
"i.	c #E94604",
"j.	c #EA4E08",
"k.	c #E98A68",
"l.	c #81716C",
"m.	c #AD4845",
"n.	c #C10B04",
"o.	c #CF1001",
"p.	c #CE1B02",
"q.	c #DE2602",
"r.	c #E63003",
"s.	c #EF500C",
"t.	c #E78E54",
"u.	c #856D63",
"v.	c #834B48",
"w.	c #A93430",
"x.	c #BE332A",
"y.	c #D04A2A",
"z.	c #CA7225",
"A.	c #A88134",
"                                ",
"                                ",
"  . + @ # $ % & * = - ; > , '   ",
"  ) ! ~ { ] ^ / ( _ : < [ } |   ",
"    1 2 3 4 5 6 7 8 9 0 a b     ",
"    c d e f g h i j k l m n     ",
"    o p q r s t u v w x y z A   ",
"  B C D E F G H I J K L M N O   ",
"  P Q R S T U V W X Y Z `  ...  ",
"  +.@.#.$.%.H &.*.=.-.;.>.,.'.  ",
"    ).!.~.{.].^./.(._.:.<.[.}.  ",
"    |.1.2.3.4.5.6.7.8.9.0.a.    ",
"      b.c.d.e.f.g.h.i.j.k.l.    ",
"        m.n.o.p.q.r.s.t.u.      ",
"          v.w.x.y.z.A.          ",
"                                "};
