/* XPM */
static char * gqview_16x16_xpm[] = {
"16 16 226 2",
"  	c None",
". 	c #00B100",
"+ 	c #02AB00",
"@ 	c #0B9D00",
"# 	c #148E00",
"$ 	c #1E8000",
"% 	c #277100",
"& 	c #306200",
"* 	c #3A5300",
"= 	c #454200",
"- 	c #503000",
"; 	c #5B1F00",
"> 	c #660D00",
", 	c #6C0103",
"' 	c #620013",
") 	c #570025",
"! 	c #41002F",
"~ 	c #01A600",
"{ 	c #068C00",
"] 	c #0E7F00",
"^ 	c #167200",
"/ 	c #1E6600",
"( 	c #265900",
"_ 	c #2E4C00",
": 	c #373E00",
"< 	c #412F00",
"[ 	c #4A2000",
"} 	c #541100",
"| 	c #5C0300",
"1 	c #58000B",
"2 	c #4E001A",
"3 	c #440029",
"4 	c #31002F",
"5 	c #049F00",
"6 	c #0B8400",
"7 	c #137700",
"8 	c #1B6A00",
"9 	c #235E00",
"0 	c #2B5100",
"a 	c #344300",
"b 	c #3D3400",
"c 	c #472500",
"d 	c #501600",
"e 	c #5A0700",
"f 	c #5B0005",
"g 	c #520014",
"h 	c #480024",
"i 	c #3E0033",
"j 	c #2C0036",
"k 	c #099600",
"l 	c #107C00",
"m 	c #186F00",
"n 	c #206300",
"o 	c #285600",
"p 	c #304900",
"q 	c #282B09",
"r 	c #2E2209",
"s 	c #3B1700",
"t 	c #381912",
"u 	c #520102",
"v 	c #55000E",
"w 	c #4C001E",
"x 	c #42002D",
"y 	c #38003C",
"z 	c #27003E",
"A 	c #0F8E00",
"B 	c #157400",
"C 	c #1D6700",
"D 	c #255B00",
"E 	c #213609",
"F 	c #181A12",
"G 	c #090909",
"H 	c #121212",
"I 	c #1B1512",
"J 	c #2D0913",
"K 	c #460027",
"L 	c #3C0037",
"M 	c #320046",
"N 	c #230045",
"O 	c #148500",
"P 	c #1A6C00",
"Q 	c #225F00",
"R 	c #33611A",
"S 	c #5D7437",
"T 	c #77423F",
"U 	c #372932",
"V 	c #383F24",
"W 	c #5F7037",
"X 	c #783F41",
"Y 	c #471D41",
"Z 	c #360040",
"` 	c #2D004E",
" .	c #1F004B",
"..	c #1A7C00",
"+.	c #1F6400",
"@.	c #1D4400",
"#.	c #64CA53",
"$.	c #9A8A51",
"%.	c #A45179",
"&.	c #6E55BF",
"*.	c #1A1412",
"=.	c #151212",
"-.	c #240039",
";.	c #280056",
">.	c #1A0051",
",.	c #1F7400",
"'.	c #245C00",
").	c #213D00",
"!.	c #77B454",
"~.	c #AC6855",
"{.	c #8D519E",
"].	c #5E54D1",
"^.	c #310A09",
"/.	c #2F090C",
"(.	c #20003F",
"_.	c #23005E",
":.	c #170058",
"<.	c #256B00",
"[.	c #295400",
"}.	c #324700",
"|.	c #46441D",
"1.	c #773D44",
"2.	c #593878",
"3.	c #4C1E36",
"4.	c #5D0103",
"5.	c #540010",
"6.	c #4E272D",
"7.	c #773B47",
"8.	c #57377C",
"9.	c #351B5E",
"0.	c #26005A",
"a.	c #1E0066",
"b.	c #13005E",
"c.	c #2A6200",
"d.	c #3B0039",
"e.	c #310048",
"f.	c #290055",
"g.	c #210061",
"h.	c #19006E",
"i.	c #0E0065",
"j.	c #305A00",
"k.	c #4F1433",
"l.	c #370342",
"m.	c #2C0050",
"n.	c #24005D",
"o.	c #1C0069",
"p.	c #140076",
"q.	c #0A016B",
"r.	c #365000",
"s.	c #92881A",
"t.	c #745A0F",
"u.	c #825611",
"v.	c #9D6A19",
"w.	c #8C4413",
"x.	c #9D6222",
"y.	c #611C21",
"z.	c #57192E",
"A.	c #70403B",
"B.	c #34064B",
"C.	c #4F2A52",
"D.	c #3D1F5E",
"E.	c #1A0370",
"F.	c #1E0F79",
"G.	c #19136B",
"H.	c #4D5505",
"I.	c #9A831C",
"J.	c #77550F",
"K.	c #814B10",
"L.	c #A86C1C",
"M.	c #5B0309",
"N.	c #B1812D",
"O.	c #AB7F33",
"P.	c #8D5F39",
"Q.	c #9D7941",
"R.	c #8D6B47",
"S.	c #93764D",
"T.	c #876E54",
"U.	c #75605F",
"V.	c #6F6167",
"W.	c #433C63",
"X.	c #453E01",
"Y.	c #A5891F",
"Z.	c #9B741A",
"`.	c #691E06",
" +	c #A3651D",
".+	c #A36B24",
"++	c #652427",
"@+	c #986B35",
"#+	c #491640",
"$+	c #987645",
"%+	c #8A6B4C",
"&+	c #51355D",
"*+	c #5A4462",
"=+	c #5C4D6A",
"-+	c #7E7166",
";+	c #00017C",
">+	c #493200",
",+	c #4C1E00",
"'+	c #550F00",
")+	c #5D0201",
"!+	c #57000D",
"~+	c #814325",
"{+	c #5E212E",
"]+	c #39003A",
"^+	c #30004A",
"/+	c #200063",
"(+	c #18006F",
"_+	c #10017C",
":+	c #080188",
"<+	c #010194",
"[+	c #00017D",
"}+	c #432200",
"|+	c #3E1000",
"1+	c #450400",
"2+	c #450005",
"3+	c #3E0011",
"4+	c #36001D",
"5+	c #2F0028",
"6+	c #280034",
"7+	c #21003E",
"8+	c #1B0048",
"9+	c #150051",
"0+	c #0F005B",
"a+	c #090164",
"b+	c #03016E",
"c+	c #000174",
". + @ # $ % & * = - ; > , ' ) ! ",
"~ { ] ^ / ( _ : < [ } | 1 2 3 4 ",
"5 6 7 8 9 0 a b c d e f g h i j ",
"k l m n o p q r s t u v w x y z ",
"A B C D E F G H I G H J K L M N ",
"O P Q R S T U H H V W X Y Z `  .",
"..+.@.#.$.%.&.*.=.#.$.%.&.-.;.>.",
",.'.).!.~.{.].^./.!.~.{.].(._.:.",
"<.[.}.|.1.2.3.4.5.6.7.8.9.0.a.b.",
"c._ : < [ } | 1 2 3 d.e.f.g.h.i.",
"j.a b c d e f g h k.l.m.n.o.p.q.",
"r.s.t.u.v.w.x.y.z.A.B.C.D.E.F.G.",
"H.I.J.K.L.M.N.O.P.Q.R.S.T.U.V.W.",
"X.Y.Z.`. +.+++@+#+$+%+&+*+=+-+;+",
">+,+'+)+!+~+{+]+^+;./+(+_+:+<+[+",
"}+|+1+2+3+4+5+6+7+8+9+0+a+b+c+c+"};
