/* XPM */
static char *hwinfo_16x16[] = {
/* columns rows colors chars-per-pixel */
"16 16 85 1",
"  c black",
". c #051d30",
"X c #091e34",
"o c #052034",
"O c #07233a",
"+ c #0f2332",
"@ c #08243b",
"# c #12283c",
"$ c #20303e",
"% c #313031",
"& c #052744",
"* c #072844",
"= c #082740",
"- c #092a44",
"; c #082948",
": c #0a3252",
"> c #0e3a5a",
", c #112a40",
"< c #193046",
"1 c #1b3148",
"2 c #133d5a",
"3 c #0c3b61",
"4 c #1b5707",
"5 c #297f0b",
"6 c #15405d",
"7 c #0f446c",
"8 c #0f4871",
"9 c #134261",
"0 c #10466f",
"q c #11486f",
"w c #1a4867",
"e c #1c4c6c",
"r c #114972",
"t c #134f79",
"y c #16527a",
"u c #1a577f",
"i c #204d6a",
"p c #22506e",
"a c #235473",
"s c #5a595a",
"d c #1c5981",
"f c #2a5f80",
"g c #236088",
"h c #296184",
"j c #2b688e",
"k c #2d6a91",
"l c #326f95",
"z c #3d7a9f",
"x c #417fa2",
"c c #2a810c",
"v c #2e8c13",
"b c #308f15",
"n c #339419",
"m c #369a1e",
"M c #399b21",
"N c #3ca727",
"B c #3eab2b",
"V c #449029",
"C c #40a62b",
"Z c #43b031",
"A c #46ba34",
"S c #4eb83e",
"D c #59ad47",
"F c #5aaf48",
"G c #6ab357",
"H c #77b966",
"J c #59c049",
"K c #6ec862",
"L c #7cc16d",
"P c #4b89ab",
"I c #568faf",
"U c #5f97b6",
"Y c #6099b7",
"T c #6a9fbb",
"R c #76abc3",
"E c #c50000",
"W c #83c074",
"Q c #80cf73",
"! c #ff8100",
"~ c #a4a1ac",
"^ c #cada94",
"/ c #c6c3c6",
"( c #ffffc5",
") c #fefefe",
"_ c None",
/* pixels */
"____29>>________",
"__wihkfy>:______",
"_6fzx))et:@_____",
"_pzIT))au8@_____",
"2hxURUxjd8:O____",
"9jzP)))yd8>@Vcc4",
"2flzx))et8:1Hnv%",
">ygkk))9r>*#^!E%",
"c-qud))>0:,WMsb%",
"c+-q))))&&1G/~ %",
"cK1o@::;,@DM~s %",
"cJL^+..XHF^s   %",
"cAAASZBNBMmnnvv%",
"_444444(4(4(4(4%",
"______4(4(4(4(4%",
"______%%%%%%%%%%"
};
