/* XPM */
static char * icq_16x16_xpm[] = {
"16 16 129 2",
"  	c None",
". 	c #000000",
"+ 	c #001300",
"@ 	c #000100",
"# 	c #022F02",
"$ 	c #021502",
"% 	c #017E01",
"& 	c #00F900",
"* 	c #029B02",
"= 	c #023D02",
"- 	c #00FD00",
"; 	c #00CC00",
"> 	c #010601",
", 	c #02E802",
"' 	c #00FF00",
") 	c #00DA00",
"! 	c #022B02",
"~ 	c #01F901",
"{ 	c #01FC01",
"] 	c #032003",
"^ 	c #042303",
"/ 	c #026902",
"( 	c #004D00",
"_ 	c #028002",
": 	c #027B02",
"< 	c #034702",
"[ 	c #004300",
"} 	c #02B701",
"| 	c #000300",
"1 	c #001200",
"2 	c #002B00",
"3 	c #000E00",
"4 	c #00F400",
"5 	c #01F401",
"6 	c #037002",
"7 	c #06A805",
"8 	c #0A5709",
"9 	c #004800",
"0 	c #00D400",
"a 	c #021402",
"b 	c #025302",
"c 	c #02E702",
"d 	c #00FE00",
"e 	c #004100",
"f 	c #020601",
"g 	c #01C001",
"h 	c #02A901",
"i 	c #020502",
"j 	c #2E3004",
"k 	c #262A03",
"l 	c #000F00",
"m 	c #018F01",
"n 	c #00DF00",
"o 	c #022502",
"p 	c #010501",
"q 	c #033503",
"r 	c #026102",
"s 	c #008400",
"t 	c #017901",
"u 	c #3E4105",
"v 	c #FDFD00",
"w 	c #F8F800",
"x 	c #262C04",
"y 	c #006000",
"z 	c #015601",
"A 	c #032A02",
"B 	c #000400",
"C 	c #050000",
"D 	c #210000",
"E 	c #2E0000",
"F 	c #4C4E03",
"G 	c #FEFE00",
"H 	c #333706",
"I 	c #005A00",
"J 	c #015001",
"K 	c #013001",
"L 	c #020A02",
"M 	c #0F0000",
"N 	c #AF0000",
"O 	c #F10000",
"P 	c #FF0000",
"Q 	c #C40000",
"R 	c #050100",
"S 	c #494C07",
"T 	c #3E4005",
"U 	c #000A00",
"V 	c #00CD00",
"W 	c #01F301",
"X 	c #019401",
"Y 	c #020201",
"Z 	c #440000",
"` 	c #FD0000",
" .	c #920000",
"..	c #090200",
"+.	c #009B00",
"@.	c #084A07",
"#.	c #068805",
"$.	c #020C02",
"%.	c #029C02",
"&.	c #01FE00",
"*.	c #00FB00",
"=.	c #011801",
"-.	c #010000",
";.	c #590000",
">.	c #340000",
",.	c #028302",
"'.	c #065305",
").	c #004000",
"!.	c #025902",
"~.	c #024702",
"{.	c #00BA00",
"].	c #027C02",
"^.	c #010101",
"/.	c #023E02",
"(.	c #023402",
"_.	c #022002",
":.	c #02F301",
"<.	c #001F00",
"[.	c #04C203",
"}.	c #011001",
"|.	c #03D603",
"1.	c #005800",
"2.	c #00B300",
"3.	c #04B004",
"4.	c #032D02",
"5.	c #006100",
"6.	c #000500",
"7.	c #000C00",
"8.	c #020C01",
"                  . + @         ",
"        . # $     % & * .       ",
"        = - ; . > , ' ) .       ",
"        ! ~ { ] ^ - ' /         ",
"  ( _ ^ . : ' < [ ' } | 1 2 @   ",
"3 4 ' 5 6 | 7 8 9 0 a b c d e   ",
"f g ' ' ' h i j k l m d ' n o   ",
"  p q r s t u v w x y z A B     ",
"    . C D E F G G H I J K L .   ",
"  M N O P Q R S T U V ' ' W X Y ",
"  Z P `  ...+.@.[ #.$.%.&.' *.=.",
"  -.;.>.. ,.' '.).- !.@ ~.{.].^.",
"        /.- ' (._.- :.<.  .     ",
"      . [.' 5 }.. |.' 1.        ",
"      . 2.' 3..   4.5.6.        ",
"        7.e 8.                  "};
