/* XPM */
static char * mplayer_16x16_xpm[] = {
"16 15 72 1",
" 	c None",
".	c #585858",
"+	c #C4C4C4",
"@	c #BEBEBE",
"#	c #BABABA",
"$	c #B6B6B6",
"%	c #B1B1B1",
"&	c #ACACAC",
"*	c #E3E3E3",
"=	c #BFBFBF",
"-	c #C7C7C7",
";	c #EEEEEE",
">	c #E9E9E9",
",	c #E4E4E4",
"'	c #DCDCDC",
")	c #D9D9D9",
"!	c #A9A9A9",
"~	c #7A7A7A",
"{	c #838383",
"]	c #B9B9B9",
"^	c #EDEDED",
"/	c #004467",
"(	c #00446B",
"_	c #004C77",
":	c #005387",
"<	c #707070",
"[	c #B3B3B3",
"}	c #E7E7E7",
"|	c #FFFFFF",
"1	c #57A2D2",
"2	c #1C82C3",
"3	c #0C76C1",
"4	c #6B6B6B",
"5	c #AEAEAE",
"6	c #00456E",
"7	c #62ACD7",
"8	c #006EBC",
"9	c #006CB7",
"0	c #0070C7",
"a	c #686868",
"b	c #DEDEDE",
"c	c #004973",
"d	c #0C7CC3",
"e	c #1078D1",
"f	c #666666",
"g	c #ABABAB",
"h	c #005384",
"i	c #006FB6",
"j	c #0072C1",
"k	c #0C76CF",
"l	c #1979D2",
"m	c #575757",
"n	c #AAAAAA",
"o	c #D3D3D3",
"p	c #006BAF",
"q	c #017ACE",
"r	c #1682DD",
"s	c #288AE5",
"t	c #3B8FEE",
"u	c #565656",
"v	c #BCBCBC",
"w	c #A0A0A0",
"x	c #969696",
"y	c #8D8D8D",
"z	c #888888",
"A	c #878787",
"B	c #555555",
"C	c #545454",
"D	c #515151",
"E	c #505050",
"F	c #4F4F4F",
"G	c #4E4E4E",
"         ....   ",
"   +@#$%&.*=.   ",
"  -;;>,').!~.{  ",
"  ]^//(_:....<  ",
"  [}/|123.*=.4  ",
"  5*67890.!~.a  ",
"  &bcd90e....f  ",
"  g)hijkl.*=mf  ",
"  nopqrst.!~uf  ",
"  nvwxyzA.muBf  ",
"     wwxym*=C   ",
"         u!~C   ",
"         DEFG   ",
"                ",
"                "};
