/* XPM */
static char *magick[] = {
/* columns rows colors chars-per-pixel */
"16 16 191 2",
"   c Gray0",
".  c #000100",
"X  c #010000",
"o  c #000200",
"O  c #010200",
"+  c #020000",
"@  c #030000",
"#  c #020200",
"$  c #030200",
"%  c #030400",
"&  c #050000",
"*  c #050100",
"=  c #050300",
"-  c #060200",
";  c #070200",
":  c #070300",
">  c #050400",
",  c #060400",
"<  c #070400",
"1  c #080203",
"2  c #080400",
"3  c #090603",
"4  c #0a0c04",
"5  c #0c0905",
"6  c #0c0a07",
"7  c #0d0a07",
"8  c #0e0a06",
"9  c #0e0b06",
"0  c #0e0b08",
"q  c #130702",
"w  c #150c07",
"e  c #100d09",
"r  c #100d0a",
"t  c #110e0a",
"y  c #120e0a",
"u  c #110f0e",
"i  c #120f0e",
"p  c #120413",
"a  c #15001b",
"s  c #13110b",
"d  c #13110c",
"f  c #12110e",
"g  c #13100e",
"h  c #12120e",
"j  c #14100d",
"k  c #14110d",
"l  c #14100e",
"z  c #14110e",
"x  c #15110e",
"c  c #14120c",
"v  c #15120e",
"b  c #16130e",
"n  c #1a1700",
"m  c #1d190f",
"M  c #1b1915",
"N  c #1f1b18",
"B  c #200300",
"V  c #250200",
"C  c #280904",
"Z  c #221f1c",
"A  c #3f0801",
"S  c #381d12",
"D  c #270536",
"F  c #24211e",
"G  c #2d2910",
"H  c #332e00",
"J  c #363500",
"K  c #383200",
"L  c #3f3900",
"P  c #333011",
"I  c #2c2a28",
"U  c #2f2b2a",
"Y  c #363c2a",
"T  c #353331",
"R  c #363331",
"E  c #341543",
"W  c #2c452f",
"Q  c #590200",
"!  c #430d31",
"~  c #433e11",
"^  c #5c0045",
"/  c #56177b",
"(  c #76396c",
")  c #5c5606",
"_  c #6b6615",
"`  c #787204",
"'  c #42424e",
"]  c #4f4f4b",
"[  c #464656",
"{  c #504e4c",
"}  c #54504f",
"|  c #545d5c",
" . c #585756",
".. c #576967",
"X. c #5f6069",
"o. c #676563",
"O. c #656565",
"+. c #6a6868",
"@. c #747272",
"#. c #7a7a78",
"$. c #7a7a79",
"%. c #7c7b79",
"&. c #7e7f7d",
"*. c #7f7f7d",
"=. c #6c1d9c",
"-. c #721697",
";. c #6304ad",
":. c #6c378f",
">. c #6d0dc8",
",. c #7f8357",
"<. c #708584",
"1. c #920e07",
"2. c #930f07",
"3. c #933a35",
"4. c #a20e07",
"5. c #80780a",
"6. c #a34842",
"7. c #d41800",
"8. c #ea1205",
"9. c #f11100",
"0. c #f61206",
"q. c #ff2407",
"w. c #ff2113",
"e. c #ff2015",
"r. c #ff2115",
"t. c #eb392a",
"y. c #ff2b20",
"u. c #ff2d21",
"i. c #ff3225",
"p. c #ff3d21",
"a. c #ff453a",
"s. c #8100d8",
"d. c #830feb",
"f. c #9100ff",
"g. c #9206ff",
"h. c #900fff",
"j. c #9d08ff",
"k. c #961af9",
"l. c #bf16c8",
"z. c #b512d2",
"x. c #ab0fff",
"c. c #a612ff",
"v. c #a812f0",
"b. c #bd3de7",
"n. c #aa63db",
"m. c #d15fd3",
"M. c #9c8c17",
"N. c #a59e09",
"B. c #a88a2f",
"V. c #81817f",
"C. c #83817f",
"Z. c #b4ae43",
"A. c #cec40c",
"S. c #d3c801",
"D. c #d9d600",
"F. c #e0d50d",
"G. c #e6db0b",
"H. c #e5db0c",
"J. c #eee809",
"K. c #faed12",
"L. c #f1f300",
"P. c Yellow",
"I. c #fffb13",
"U. c #ffff11",
"Y. c #ffff13",
"T. c #838080",
"R. c #848682",
"E. c #888784",
"W. c #898987",
"Q. c #8c8c8b",
"!. c #8c8d8b",
"~. c #8d9089",
"^. c #8f908e",
"/. c #92928f",
"(. c #9b9d9b",
"). c #9b9e9c",
"_. c #9c9c9a",
"`. c #9d9c9b",
"'. c #9d9d9b",
"]. c #9d9f9d",
"[. c #9193a6",
"{. c #98a48f",
"}. c #9fa19f",
"|. c #9fa29e",
" X c #9fa5a0",
".X c #a0a19f",
"XX c #a2a2a0",
"oX c #a6a8a4",
"OX c #abadaa",
"+X c #b0bfa6",
"@X c #b1b2b0",
/* pixels */
"< < < < < < < < < < < < < < - r ",
"< < < @ @ @ - @ @ @ @ @ @ - - j ",
"- - @ 7 j 7 @ r r @ 0 M 2 @ @ j ",
"2 - @ o.).O.- W.^.@./.}.'.I @ j ",
"- - @ T.OXV.R @XXX.X<.U  .N @ j ",
"2 - @ E.!.!.V.W..XE.'.[.$.F @ j ",
"2 - @ $.+.$.}.} `.{ T { OX,.@ j ",
"< @ @ <...|  XY +X{.^.X.[.[ @ j ",
"- - Q 6.3.S W E n.:.' ,.Z.` n j ",
"% q r.0.8.9.^ g.s.f.-.D.S.H.G.G ",
"@ 7 u.1.4 p.z.d.@ =.m.P.N.) L m ",
"@ 7 y.1.@ t.v.>.@ / x.B.J.Y.F.~ ",
"@ 9 i.4.A q.l.h.p ;.b.M.J 5.Y._ ",
"@ w a.r.w.7.! k.c.j.( L.I.K.A.P ",
"- @ C V B @ @ 1 D a @ < K H @ g ",
"r j g g g j j g s g j j i i j Z "
};
