/* XPM */
static char *multimedia_16x16[] = {
/* columns rows colors chars-per-pixel */
"16 16 107 2",
"   c black",
".  c #001015",
"X  c #02141a",
"o  c #131313",
"O  c #001a27",
"+  c #001b2e",
"@  c #00212d",
"#  c #022136",
"$  c #0d323c",
"%  c #272727",
"&  c #2a2b2b",
"*  c #3a3a3a",
"=  c #033241",
"-  c #01375c",
";  c #033b57",
":  c #023b5e",
">  c #003663",
",  c #003a69",
"<  c #044262",
"1  c #004f65",
"2  c #074e6b",
"3  c #084268",
"4  c #00556c",
"5  c #15556d",
"6  c #10507c",
"7  c #185775",
"8  c #414141",
"9  c #484848",
"0  c #565656",
"q  c #54595b",
"w  c #5a5a5a",
"e  c #435d6a",
"r  c #536771",
"t  c #757575",
"y  c #7a7b7b",
"u  c #025083",
"i  c #01588a",
"p  c #145683",
"a  c #1d5d82",
"s  c #006596",
"d  c #006e9d",
"f  c #00738d",
"g  c #1c608d",
"h  c #29648d",
"j  c #447089",
"k  c #557384",
"l  c #0082a3",
"z  c #0881a2",
"x  c #3e80a0",
"c  c #339abe",
"v  c #0096c8",
"b  c #069bce",
"n  c #2ca1cf",
"m  c #5c8f9c",
"M  c #4b83a5",
"N  c #4d8fa4",
"B  c #4e8eb3",
"V  c #5890ab",
"C  c #5399b1",
"Z  c #6d828c",
"A  c #608191",
"S  c #71848b",
"D  c #73949a",
"F  c #638ca4",
"G  c #6d99a9",
"H  c #699bb3",
"J  c #7094a6",
"K  c #67a2b5",
"L  c #49aad8",
"P  c #55aed3",
"I  c #54b1d9",
"U  c #58b3db",
"Y  c #55b8ea",
"T  c #65a3c1",
"R  c #78a8c1",
"E  c #65bbe3",
"W  c #72bee5",
"Q  c gray52",
"!  c #8c8c8c",
"~  c gray57",
"^  c #909a9f",
"/  c #9a9a9a",
"(  c #95a0a6",
")  c #a4a4a4",
"_  c gray67",
"`  c #b2b2b2",
"'  c #b1bcbf",
"]  c #b9b9b9",
"[  c #86bbd8",
"{  c #adbdc3",
"}  c #8bccee",
"|  c #86d4fd",
" . c #8ddbff",
".. c #98dbe9",
"X. c #94d2f0",
"o. c #a0d0e7",
"O. c #a0d9f5",
"+. c #a5ebff",
"@. c #c2c2c2",
"#. c gray80",
"$. c gray82",
"%. c #dcdcdc",
"&. c #e1e1e1",
"*. c #ebebeb",
"=. c #f5f5f5",
"-. c #f8f8f8",
";. c None",
/* pixels */
";.;.;.;.;.;.;.Q J G D ;.;.;.;.;.",
";.;.;.;.;.;.S H Z q o.H ;.;.;.;.",
";.;.;.;.;.;.V r & 8 w [ A ;.;.;.",
";.;.;.;.;.3 X.o % 8 0 y M ;.;.;.",
";.;.+ # u X.e ] =.#.w t B k ;.;.",
";.5 6 Y +.} & *.=.-.! y F j ;.;.",
";.m .. .| W t &.*.*.&.y R h ;.;.",
";.a P I U E ` $.%.%.%.Q ^ g ;.;.",
";.; z c c I ) ` @.@.@.! ( p ;.;.",
";.= 1 l l L t ) _ _ ) / T 6 ;.;.",
";.$ @ 4 f n t y ! ! ~ ) x 7 ;.;.",
";.;.. X O b N 9 * w ) ` i 5 ;.;.",
";.;.;.;.;.+ v / ) _ ` ' , ;.;.;.",
";.;.;.;.;.;., K ` ] @.s 4 ;.;.;.",
";.;.;.;.;.;.5 > C { d > ;.;.;.;.",
";.;.;.;.;.;.;.5 - - 3 ;.;.;.;.;."
};
