/* XPM */
static char * notes_16x16_xpm[] = {
"16 16 113 2",
"  	c None",
". 	c #969696",
"+ 	c #EEEEEE",
"@ 	c #616161",
"# 	c #C2C2C2",
"$ 	c #9B9B9B",
"% 	c #B6B6B6",
"& 	c #868686",
"* 	c #C0C0C0",
"= 	c #4F4F4F",
"- 	c #B8B8B8",
"; 	c #838383",
"> 	c #8A8A8A",
", 	c #AEAEAE",
"' 	c #C5C5C5",
") 	c #E4E4E4",
"! 	c #4E4E4E",
"~ 	c #9D9D9D",
"{ 	c #8D8D8D",
"] 	c #7E7E7E",
"^ 	c #BFBFBF",
"/ 	c #E5E5E5",
"( 	c #DEDEDE",
"_ 	c #DADADA",
": 	c #D7D7D7",
"< 	c #7D7D7D",
"[ 	c #8B8B8B",
"} 	c #C3C3C3",
"| 	c #D6D6D6",
"1 	c #E6E6E6",
"2 	c #D8D8D8",
"3 	c #5F5F5F",
"4 	c #E3E3E3",
"5 	c #E9E9E9",
"6 	c #E1E1E1",
"7 	c #D0D0D0",
"8 	c #CECECE",
"9 	c #CFCFCF",
"0 	c #7A7A7A",
"a 	c #EFEFEF",
"b 	c #F4F4F4",
"c 	c #EAEAEA",
"d 	c #D9D9D9",
"e 	c #D5D5D5",
"f 	c #D3D3D3",
"g 	c #CDCDCD",
"h 	c #C9C9C9",
"i 	c #261F1D",
"j 	c #9E9E9E",
"k 	c #F6F6F6",
"l 	c #DFDFDF",
"m 	c #DDDDDD",
"n 	c #CBCBCB",
"o 	c #C4C4C4",
"p 	c #96392B",
"q 	c #C97467",
"r 	c #C69C95",
"s 	c #7C786F",
"t 	c #BEBBB3",
"u 	c #F2F2F2",
"v 	c #E7E7E7",
"w 	c #D1D1D1",
"x 	c #C6C6C6",
"y 	c #BABABA",
"z 	c #180805",
"A 	c #612418",
"B 	c #89725D",
"C 	c #D3B974",
"D 	c #DFCD9B",
"E 	c #E9DEC2",
"F 	c #E7E5DF",
"G 	c #EDEDED",
"H 	c #E0E0E0",
"I 	c #070302",
"J 	c #2A1F0E",
"K 	c #8A5F11",
"L 	c #B78A2E",
"M 	c #D6BA73",
"N 	c #ECDBA9",
"O 	c #E2D8BA",
"P 	c #CFCCC3",
"Q 	c #ECECEC",
"R 	c #8F8F8F",
"S 	c #0A0701",
"T 	c #3E2B07",
"U 	c #8B6013",
"V 	c #B68A30",
"W 	c #D7BD76",
"X 	c #EADAAA",
"Y 	c #E2D9C0",
"Z 	c #E1DED5",
"` 	c #707070",
" .	c #000000",
"..	c #0B0801",
"+.	c #422D08",
"@.	c #8F6517",
"#.	c #BB9136",
"$.	c #D6BC76",
"%.	c #E8D9AB",
"&.	c #AA9B6D",
"*.	c #0B0904",
"=.	c #412E0A",
"-.	c #8E6417",
";.	c #BF9437",
">.	c #D7BC7E",
",.	c #DFCEBA",
"'.	c #070501",
").	c #382A0D",
"!.	c #8A6D46",
"~.	c #867561",
"{.	c #453E35",
"].	c #030201",
"^.	c #0F0C07",
"                . +             ",
"            @ # $ %             ",
"    & * = - ; > , ' )           ",
"    ! ~ { ] - ^ / ( _ :         ",
"  < [ ] } | 1 1 ( 2 : |         ",
"  3 } 2 4 + 5 ) 6 _ 7 8 9       ",
"    0 a b a c 4 d e f g ' h     ",
"    i j k + 4 l m | n ' o * g   ",
"p q r s t u v ( e w 7 x y % # m ",
"z A B C D E F m d 9 o } ' e G H ",
"  I J K L M N O P g 7 m Q n R   ",
"      S T U V W X Y Z , `       ",
"         ...+.@.#.$.%.&.        ",
"             .*.=.-.;.>.,.      ",
"                 .'.).!.~.{.    ",
"                      ].^.      "};
