/* XPM */
static char *magick[] = {
/* columns rows colors chars-per-pixel */
"16 16 235 2",
"   c #0f0300",
".  c #1f0a06",
"X  c #1f0c08",
"o  c #200c06",
"O  c #301414",
"+  c #3f1d10",
"@  c #3b1e1f",
"#  c #3e2222",
"$  c #393133",
"%  c #3d3331",
"&  c #3a403e",
"*  c #402014",
"=  c #412114",
"-  c #422116",
";  c #422316",
":  c #422522",
">  c #442728",
",  c #533225",
"<  c #543132",
"1  c #634f4f",
"2  c #767271",
"3  c #8c4a21",
"4  c #8c4c22",
"5  c #8f4d25",
"6  c #8e4e27",
"7  c #935733",
"8  c #9b5431",
"9  c #884b4b",
"0  c #8b4b4b",
"q  c #8a6b6b",
"w  c #8f7e7e",
"e  c #9a6464",
"r  c #b65454",
"t  c #b0615d",
"y  c #ac6868",
"u  c #b36060",
"i  c #d96c2a",
"p  c #de732f",
"a  c #db7230",
"s  c #de7230",
"d  c #e17333",
"f  c #c05a5a",
"g  c #c35d5d",
"h  c #da5454",
"j  c #d37e4b",
"k  c #c26868",
"l  c #cf6767",
"z  c #d16d6d",
"x  c #de6767",
"c  c #d87c71",
"v  c #e45c5c",
"b  c #ef6060",
"n  c #ee7e7e",
"m  c #f06565",
"M  c #d7807b",
"N  c #dc857a",
"B  c #838584",
"V  c #8b8c8d",
"C  c Gray56",
"Z  c #8c9090",
"A  c #8e9091",
"S  c #9e8989",
"D  c #919393",
"F  c #919495",
"G  c #959290",
"H  c #979191",
"J  c #949696",
"K  c #9c9c9d",
"L  c #a08383",
"P  c #a18484",
"I  c #a18686",
"U  c #a38686",
"Y  c #a48787",
"T  c #a28888",
"R  c #a58989",
"E  c #a48f8f",
"W  c #ad9c9c",
"Q  c #a7a6a6",
"!  c #a3afaf",
"~  c Gray66",
"^  c #a8a9a9",
"/  c #a9a9a9",
"(  c #acaeae",
")  c #afb0b0",
"_  c #bcb0aa",
"`  c Gray69",
"'  c #b1b1b1",
"]  c #b3b1b1",
"[  c #b2b2b2",
"{  c #b2b3b3",
"}  c Gray70",
"|  c #b0b4b4",
" . c #b4b3b3",
".. c #b7b2b2",
"X. c #b7b3b3",
"o. c #b4b4b4",
"O. c #b5b5b4",
"+. c Gray71",
"@. c #b6b6b6",
"#. c #b7b7b7",
"$. c #b6b9b9",
"%. c #b8b3b3",
"&. c #b8b4b4",
"*. c #b9b5b5",
"=. c #bab6b6",
"-. c Gray72",
";. c #b9b9b9",
":. c #bab9b9",
">. c Gray73",
",. c #bcbaba",
"<. c #bebebe",
"1. c Gray75",
"2. c #c39898",
"3. c #ca9797",
"4. c #c99898",
"5. c #ca9999",
"6. c #cb9898",
"7. c #cc9999",
"8. c #cc9f9f",
"9. c #cf9c9c",
"0. c #d48f8f",
"q. c #d09c9c",
"w. c #d09d9d",
"e. c #c0a1a1",
"r. c #c1bfbf",
"t. c #c2bebe",
"y. c #c9b4b0",
"u. c #d3a0a0",
"i. c #d4a1a1",
"p. c #d8a1a1",
"a. c #d3b0b0",
"s. c #ed8888",
"d. c #e79191",
"f. c #e99d9d",
"g. c #f9a389",
"h. c #f4ae9d",
"j. c #e9b8ac",
"k. c #c0c0c0",
"l. c #c1c1c1",
"z. c #c0c2c2",
"x. c #c3c1c1",
"c. c Gray76",
"v. c #c3c3c3",
"b. c #c5c6c6",
"n. c Gray78",
"m. c #c3c7c8",
"M. c #c1caca",
"N. c #c4cacb",
"B. c #cac2c2",
"V. c #cfc7c5",
"C. c #cecece",
"Z. c Gray81",
"A. c #c8cdd1",
"S. c #d6cbc5",
"D. c #d7cbc4",
"F. c #dacec7",
"G. c #dfcaca",
"H. c #d0d0d0",
"J. c #d3d3d3",
"K. c Gray84",
"L. c #d0d5d9",
"P. c #d4d6d8",
"I. c #d9dbdb",
"U. c #dadada",
"Y. c #dddddd",
"T. c #dfdfde",
"R. c #d7e4e4",
"E. c #dae2e2",
"W. c #dce3e3",
"Q. c #dee1e1",
"!. c #dee4e4",
"~. c #dfe5e5",
"^. c #ddeaea",
"/. c #e5c7c7",
"(. c #e5c8c8",
"). c #e6c9c9",
"_. c #e7caca",
"`. c #e8cdcd",
"'. c #e9cfcf",
"]. c #ebcfcf",
"[. c #eed9ce",
"{. c #e9d6d6",
"}. c #f3e7df",
"|. c #e0e6e6",
" X c #e2e5e5",
".X c #e3e7e7",
"XX c #e4e4e4",
"oX c #e6e6e5",
"OX c #e2e7eb",
"+X c #e1e9e9",
"@X c #e2e9e9",
"#X c #e2eaea",
"$X c #e3ebeb",
"%X c #e1e9ec",
"&X c #e2e9ec",
"*X c #e5ecec",
"=X c #e6eded",
"-X c #e7eeee",
";X c #e8ebeb",
":X c #eaebeb",
">X c #e8efef",
",X c #eceeee",
"<X c #eeeded",
"1X c #e2f3f3",
"2X c #e4f0f0",
"3X c #e9f2f2",
"4X c #ecf3f3",
"5X c #ecf4f4",
"6X c #edf4f4",
"7X c #edf5f5",
"8X c #eef5f5",
"9X c Gray94",
"0X c #f1f1f1",
"qX c #f1f2f2",
"wX c Gray95",
"eX c #f2f3f3",
"rX c #f3f3f3",
"tX c #f1f7f7",
"yX c #f2f4f4",
"uX c #f4f4f4",
"iX c Gray96",
"pX c #f4f5f6",
"aX c #f6f5f5",
"sX c Gray97",
"dX c #f0f8f8",
"fX c #f1fafa",
"gX c #f5fbfb",
"hX c #f7f9f9",
"jX c #f7fafa",
"kX c #f8f8f8",
"lX c #f8ffff",
"zX c #f9ffff",
"xX c #fbfcfc",
"cX c #fbfdfd",
"vX c #fdffff",
/* pixels */
"C ^ I H [ [ [ [ @.@.@.%.k f r u ",
"^ R.2.( +XE.Q.!.!.|.+X1Xm n x z ",
"W G.0.e.]./.).).).].].{.b s.f.l ",
"w S y q R L I I Y I T E h v d.g ",
") 2X8.$.fX8X8XtX8XgXfXlXp.0 0 e ",
"[ +X3.X.Q.k.[ >.Q @.X.k.M.! ^.I.",
"[ +X4.X.:X@.k.J.J.n.H.Z.I.<XkXwX",
"[ +X4.&.:Xk.k.^ 1.[ @.T.k.oXaXwX",
"@.=X7.&.<XJ.Z.T.|.m.OX&XL.A.lXaX",
"@.=X7.&.tXn.N.&XP.V.S.S._ F.}.[.",
"@.=X8.k.vXr.y.j.h.g.a s d p i j ",
"@.>Xi.H & O t c N M 8 4 6 6 3 7 ",
">.3Xu.[ C $ > : @ # = = = = + , ",
">.4Xw.r.gX[ B 2 1 < X . X o   % ",
">.8Xw.,.lXwXlXgX|.[ V A F J F K ",
"1.oXa.B.wXwXwXwXaXwXwXwXaXaXaXaX"
};
