/* XPM */
static char * opera_16x16_xpm[] = {
"16 16 45 1",
" 	c None",
".	c #F0183B",
"+	c #EF072D",
"@	c #EF092F",
"#	c #EF0A30",
"$	c #F01E41",
"%	c #F01035",
"&	c #F01135",
"*	c #F01A3E",
"=	c #F0173B",
"-	c #F01B3E",
";	c #F12042",
">	c #F01539",
",	c #F01D3F",
"'	c #F01D40",
")	c #E41F3F",
"!	c #8C8C8C",
"~	c #878787",
"{	c #E42544",
"]	c #8D8D8D",
"^	c #898989",
"/	c #8F8F8F",
"(	c #EF082E",
"_	c #949494",
":	c #B47A83",
"<	c #F01136",
"[	c #929292",
"}	c #8A8A8A",
"|	c #EF1135",
"1	c #989898",
"2	c #AA5C69",
"3	c #909090",
"4	c #8B8B8B",
"5	c #BC465A",
"6	c #F00E33",
"7	c #DC405A",
"8	c #F01F41",
"9	c #E0193A",
"0	c #EF0E33",
"a	c #908F8F",
"b	c #B65362",
"c	c #E2193A",
"d	c #F02143",
"e	c #F0193D",
"f	c #F0183C",
"                ",
"        .++@    ",
"       #$   %&  ",
"      #+    *+= ",
"     -++     ++ ",
"     #+;     ++>",
"     ++,     ++'",
"     ++)     ++;",
" !~  ++{]^/  ++,",
"/~~  (+; _~~:++<",
"[~~} .+|  1~2++ ",
" 3~~4 ++   /5+6 ",
"   }~}7+8   90  ",
"     /abcd ef   ",
"                ",
"                "};
