/* XPM */
static char *password_16x16[] = {
/* columns rows colors chars-per-pixel */
"16 16 99 2",
"   c black",
".  c #470000",
"X  c #510000",
"o  c #630a00",
"O  c #711700",
"+  c #761b00",
"@  c #7a1e00",
"#  c #711aee",
"$  c #741cf3",
"%  c #761ffc",
"&  c #7620ff",
"*  c #842a00",
"=  c #892d00",
"-  c #8e3501",
";  c #8d3411",
":  c #933a00",
">  c #933d0e",
",  c #983f00",
"<  c #9a4200",
"1  c #9e4900",
"2  c #a04c00",
"3  c #a35200",
"4  c #ad5d00",
"5  c #a04e34",
"6  c #a95c23",
"7  c #ad6100",
"8  c #b06400",
"9  c #b77000",
"0  c #bb7600",
"q  c #bd7a00",
"w  c #be7d09",
"e  c #af633d",
"r  c #b67027",
"t  c #b6712e",
"y  c #a85c45",
"u  c #af635b",
"i  c #bc7b45",
"p  c #bc7b49",
"a  c #bf7f51",
"s  c #b5726b",
"d  c #bc7b6a",
"f  c #8934ff",
"g  c #bc7b9a",
"h  c #bc7caa",
"j  c #9847ff",
"k  c #9949ff",
"l  c #9e51ff",
"z  c #a45aff",
"x  c #b372ff",
"c  c #bf8076",
"v  c #c28200",
"b  c #c68a00",
"n  c #ca8e00",
"m  c #cc9300",
"M  c #d09b00",
"N  c #c0823f",
"B  c #ce9727",
"V  c #d5a400",
"C  c #d8a700",
"Z  c #d9ab01",
"A  c #e3be00",
"S  c #c08249",
"D  c #c3855e",
"F  c #c68c53",
"G  c #cd9772",
"H  c #d3a57a",
"J  c #e6c000",
"K  c #e8c500",
"L  c #e9c800",
"P  c #eed200",
"I  c #f0d400",
"U  c #f2d801",
"Y  c #f9e413",
"T  c #f9e521",
"R  c #fded22",
"E  c #fff839",
"W  c #bf85ff",
"Q  c #c48887",
"!  c #c48898",
"~  c #c68fad",
"^  c #ca94a1",
"/  c #c992d7",
"(  c #c28bff",
")  c #cb97e9",
"_  c #c896ff",
"`  c #cb9bff",
"'  c #d2a1ce",
"]  c #cea0ff",
"[  c #d1a4fd",
"{  c #dab2ee",
"}  c #d8b3ff",
"|  c #dfc0ff",
" . c #e6cdff",
".. c #e8cfff",
"X. c #ebd5ff",
"o. c #eedcff",
"O. c #faf3ff",
"+. c #fff8ff",
"@. c None",
/* pixels */
"@.@.@.@.@.@.@.@.@.@.@.@.@.@.@.@.",
"@.@.@.@.@.@.@.@.@.@.@.@.@.@.@.@.",
"0 v D @.@.@.@.@.@.@.@.@.@.@.@.@.",
"@ K A w ~ @.@.@.@.@.@.@.@.@.@.@.",
"- @ m U b S / @.@.@.@.{ B G @.@.",
"6 < 4 7 C J q ! @.@.H V L m S @.",
"r : Z < + - P n N [ q R K Y < h ",
"^ < 9 , y 5 * v A 9 R 7 1 T 0 6 ",
"@.) F 8 c @.Q , = A Y + s w K : ",
"@.@.@.' ] @.@.@.5 : Z : s p M @ ",
"@.@.@.@.@.@.@.@.@.g 2 v i d n o ",
"@.@.@.@.@.@.@.@.@.@.2 Z Z t M X ",
"@.@.@.@.@.@.@.@.@.@.e 1 E C m . ",
"@.@.@.@.@.@.@.@.@.@.h = 8 b * o ",
"@.@.@.@.@.@.@.@.@.@.@.u @ o O ; ",
"@.@.@.@.@.@.@.@.@.@.@.@.@.@.@.@."
};
