/* XPM */
static char *samba_16x16[] = {
/* columns rows colors chars-per-pixel */
"16 16 54 1",
"  c #000000",
". c #0d0d0d",
"X c gray19",
"o c #404000",
"O c gray34",
"+ c #585858",
"@ c #2727c9",
"# c #6262d8",
"$ c #b40000",
"% c #b57e09",
"& c #c92727",
"* c #ce3a3a",
"= c #d86262",
"- c #dd7575",
"; c #b88523",
": c #b6b600",
"> c #d79e0a",
", c #f5bd0e",
"< c #f5bd10",
"1 c #c9c927",
"2 c #cece3a",
"3 c #f6d821",
"4 c #d8d862",
"5 c #dddd75",
"6 c #f5ca47",
"7 c #808080",
"8 c #a0a0a0",
"9 c #8989e1",
"0 c #9c9ce6",
"q c #b0b0eb",
"w c #89e189",
"e c #e18989",
"r c #e69c9c",
"t c #ebb0b0",
"y c #f7dd8b",
"u c #e1e189",
"i c #e6e69c",
"p c #f6e489",
"a c #ebebb0",
"s c #c3c3c3",
"d c #dbdbdb",
"f c #c4c4f0",
"g c #d7d7f5",
"h c #c4f0c4",
"j c #d7f5d7",
"k c #f0c4c4",
"l c #f5d7d7",
"z c #f5e7c4",
"x c #f0f0c4",
"c c #f5f5d7",
"v c #eeeeee",
"b c gray96",
"n c #fefefe",
"m c None",
/* pixels */
"       X+mmmmmmm",
" nlt ngq   mmmmm",
" kr- f0 X X mmmm",
" e=* 9# n.n mmmm",
" e&$ 9@ ,p, mmmm",
"     X++3,% mmmm",
" nca nj %sdX mmm",
" xi5 h +ddn7  mm",
" u42Xw dnnnd  mm",
" u1:+ +nnnnnX  m",
"   X+ dbnnnn7  m",
"nmmn. OnnnbdX. m",
" mm z%X8nbv+;z m",
"nm zy6%XdbO>y<z ",
" n %6,>X +Xy6,> ",
"mmm  oo m  oo  m"
};
