/* XPM */
static char * screenshot_16x16_xpm[] = {
"16 16 113 2",
"  	c None",
". 	c #ABABAB",
"+ 	c #BEBEBE",
"@ 	c #B9B9B9",
"# 	c #DBDBDB",
"$ 	c #FAFAFA",
"% 	c #F2F2F2",
"& 	c #A7A7A7",
"* 	c #3F3F3F",
"= 	c #616161",
"- 	c #757575",
"; 	c #6E6E6E",
"> 	c #515151",
", 	c #1B1B1B",
"' 	c #4B4B4B",
") 	c #5B5B5B",
"! 	c #262626",
"~ 	c #000000",
"{ 	c #686767",
"] 	c #999999",
"^ 	c #A2A2A2",
"/ 	c #808080",
"( 	c #565554",
"_ 	c #6A6967",
": 	c #676767",
"< 	c #949494",
"[ 	c #8C8C8C",
"} 	c #818080",
"| 	c #7A7979",
"1 	c #868686",
"2 	c #787878",
"3 	c #7A7A7A",
"4 	c #8D8C87",
"5 	c #868682",
"6 	c #797876",
"7 	c #4D4C4A",
"8 	c #585858",
"9 	c #666666",
"0 	c #979696",
"a 	c #727371",
"b 	c #676968",
"c 	c #535656",
"d 	c #525552",
"e 	c #6B6C6A",
"f 	c #6D6D6D",
"g 	c #817E76",
"h 	c #706E65",
"i 	c #5C5A53",
"j 	c #343330",
"k 	c #5E5E5E",
"l 	c #7D7D7C",
"m 	c #646868",
"n 	c #505454",
"o 	c #4C5051",
"p 	c #474C4E",
"q 	c #3C4040",
"r 	c #30322C",
"s 	c #6D6C6C",
"t 	c #807D74",
"u 	c #706D65",
"v 	c #383632",
"w 	c #606060",
"x 	c #646666",
"y 	c #4C5050",
"z 	c #404242",
"A 	c #232424",
"B 	c #171818",
"C 	c #3B3E3E",
"D 	c #363A3A",
"E 	c #504F4B",
"F 	c #7E7C74",
"G 	c #6F6C64",
"H 	c #5A5952",
"I 	c #373631",
"J 	c #505354",
"K 	c #4B4F4E",
"L 	c #595A59",
"M 	c #AEAEAE",
"N 	c #343434",
"O 	c #464C4F",
"P 	c #363632",
"Q 	c #7E7B73",
"R 	c #6E6C64",
"S 	c #5A5852",
"T 	c #363531",
"U 	c #4F5152",
"V 	c #3C4242",
"W 	c #1F1F1E",
"X 	c #828282",
"Y 	c #595959",
"Z 	c #454B4E",
"` 	c #4C4D4C",
" .	c #7A7770",
"..	c #6D6A63",
"+.	c #595751",
"@.	c #2F2E2A",
"#.	c #414141",
"$.	c #373838",
"%.	c #384042",
"&.	c #2A2E2C",
"*.	c #333434",
"=.	c #484848",
"-.	c #484B4D",
";.	c #32373A",
">.	c #404040",
",.	c #191B1C",
"'.	c #4B4F52",
").	c #3E4448",
"!.	c #4B5052",
"~.	c #494C4E",
"{.	c #151718",
"].	c #202325",
"^.	c #232527",
"                                ",
"                . + @           ",
"                # $ % &         ",
"              * = - ; >         ",
"              , ' = ) !         ",
"      ~ ~ ~ ~ { ] ^ ^ / ~ ~     ",
"  ~ ~ ( _ : # < [ } | 1 2 3 ~   ",
"~ 4 5 6 7 8 9 0 a b c d e f ~   ",
"~ g h i j k l m n o p q r s ~   ",
"~ t u i v w x y z A B C D E ~   ",
"~ F G H I ) J K L M = N O P ~   ",
"~ Q R S T k U V W ; X Y Z ` ~   ",
"~  ...+.@.#.$.%.&.*.=.-.;.>.~   ",
"  ~ ~ ~ ~ ~ ~ ,.'.).!.~.{.~     ",
"              ~   ].^.  ~       ",
"                ~ ~ ~ ~         "};
