/* XPM */
static char *usb_16x16[] = {
/* columns rows colors chars-per-pixel */
"16 16 62 1",
"  c #2047a1",
". c #2552a5",
"X c #3257a7",
"o c #3d5dab",
"O c #3665ad",
"+ c #3a63ac",
"@ c #4466b0",
"# c #4b6eb4",
"$ c #4379b9",
"% c #4c71b4",
"& c #4a7abb",
"* c #5678b8",
"= c #587cba",
"- c #5b86be",
"; c #5387c1",
": c #5b8bc2",
"> c #5591c4",
", c #638bc1",
"< c #6592c6",
"1 c #659bca",
"2 c #6c96c6",
"3 c #6c97c9",
"4 c #6a9bc9",
"5 c #759dcc",
"6 c #7d9ecb",
"7 c #6da0cc",
"8 c #70a2cc",
"9 c #73a5d1",
"0 c #78a6d0",
"q c #7bacd3",
"w c #83aed5",
"e c #82b0d6",
"r c #84b2d8",
"t c #86b9da",
"y c #8ab3d6",
"u c #8bb5d9",
"i c #8ebcdc",
"p c #93b5d8",
"a c #92bddc",
"s c #8ec0df",
"d c #95c0df",
"f c #9ac0de",
"g c #9ac4e2",
"h c #9cc8e3",
"j c #a7c4de",
"k c #aec0df",
"l c #a0c6e3",
"z c #a1c9e4",
"x c #aac7e2",
"c c #adcfe5",
"v c #b4cbe6",
"b c #bdcae3",
"n c #b7d0e6",
"m c #c1dbed",
"M c #cddcec",
"N c #d3e2ef",
"B c #d3e3f0",
"V c #dae6f1",
"C c #e2edf6",
"Z c #e9eef6",
"A c #f3f6fa",
"S c #fefefe",
/* pixels */
"oooooooooooooooo",
"@@@@@@o X@@@@@@@",
"#%%%#.*Sk+%%##%%",
"===*OSSSZ+======",
",,,&VAObw-,,,,,,",
",:2:S$<:,322<:23",
"pv&yM$:::::;5B:,",
"SSSSSSSSSSSSSSSj",
"SSSSSSSSSSSSSSSx",
"fn<771wC>471wN80",
"wquuuyqSqwwrrquu",
"idiiiirBS9mcuaai",
"dfdfaffwASSSrddd",
"hhghghhgthSVshgh",
"hzhhzzzzhhsgjzhh",
"zzzzzzzzzhzzzzzz"
};
