/* XPM */
static char * x_16x16_xpm[] = {
"16 16 53 1",
" 	c None",
".	c #4B4B4B",
"+	c #232323",
"@	c #353535",
"#	c #282828",
"$	c #8D8D8D",
"%	c #0A0A0A",
"&	c #555555",
"*	c #2C2C2C",
"=	c #303030",
"-	c #424242",
";	c #464646",
">	c #747474",
",	c #414141",
"'	c #454545",
")	c #767676",
"!	c #2D2D2D",
"~	c #4F4F4F",
"{	c #333333",
"]	c #1E1E1E",
"^	c #181818",
"/	c #323232",
"(	c #565656",
"_	c #5D5D5D",
":	c #4D4D4D",
"<	c #3F3F3F",
"[	c #999999",
"}	c #262626",
"|	c #202020",
"1	c #434343",
"2	c #444444",
"3	c #383838",
"4	c #060606",
"5	c #252525",
"6	c #646464",
"7	c #787878",
"8	c #4A4A4A",
"9	c #777777",
"0	c #1F1F1F",
"a	c #494949",
"b	c #515151",
"c	c #2E2E2E",
"d	c #212121",
"e	c #5F5F5F",
"f	c #595959",
"g	c #080808",
"h	c #707070",
"i	c #2F2F2F",
"j	c #1C1C1C",
"k	c #161616",
"l	c #3D3D3D",
"m	c #5A5A5A",
"n	c #020202",
"                ",
" .+@#        $% ",
"  +&*=       +- ",
"  ;>,'-     )!  ",
"   =~{]    ^/   ",
"    (_:<  [}    ",
"     |:12 +-    ",
"     ;34 :=     ",
"      5-^6      ",
"     7=89<0     ",
"    ^=  (a:<    ",
"   [}    b,c=   ",
"   d-    ef''-  ",
"  )=      ghij  ",
" g=        &k}l ",
" m          nnn "};
