/* XPM */
static char * xcalc_16x16_xpm[] = {
"16 16 20 1",
" 	c None",
".	c #BFBFBF",
"+	c #606060",
"@	c #808080",
"#	c #E0E0E0",
"$	c #ECECEC",
"%	c #B0AEAE",
"&	c #D9D9D9",
"*	c #A3A3A3",
"=	c #6C6C6C",
"-	c #A09E9E",
";	c #CECEFF",
">	c #DEDEFF",
",	c #ACAAAA",
"'	c #C3C2C2",
")	c #807C7C",
"!	c #8C8C8C",
"~	c #403E3E",
"{	c #CCCCCC",
"]	c #504F4F",
".++++++++++++++.",
"@#$$$$$$$$$$$$%@",
"@#&&*========*-@",
"@#&&=;>>>>>>;,-@",
"@#&&=;>>>>>>;,-@",
"@#&&',,,,,,,,'-@",
"@#&&&&&&&&&&&&-@",
"@#,)=,)=,)=,)=-@",
"@#*=**=**=**=*-@",
"@#,)=,)=,)=,)=-@",
"@#!~=!~=!~=!~=-@",
"@#',*',*',*',*-@",
"@#!~=!~=!~=!~=-@",
"@#&&&&&&&&&&&&-@",
"@#{{{{{{{{{{{{-@",
".]~~~~~~~~~~~~~."};
