/* XPM */
static char * xcd_16x16_xpm[] = {
"16 16 194 2",
"  	c None",
". 	c #C6BAB1",
"+ 	c #D0C2B1",
"@ 	c #CEBEA7",
"# 	c #CEC1B0",
"$ 	c #D4CFCA",
"% 	c #D6D6D5",
"& 	c #CFC3BA",
"* 	c #CAB290",
"= 	c #D4BF92",
"- 	c #C4987B",
"; 	c #B46B52",
"> 	c #A6643C",
", 	c #A6692E",
"' 	c #AC8A5C",
") 	c #CAC0B3",
"! 	c #CFCBC6",
"~ 	c #BFAB97",
"{ 	c #CEB683",
"] 	c #DC6958",
"^ 	c #DC3829",
"/ 	c #B62B0E",
"( 	c #5D321C",
"_ 	c #B4A08E",
": 	c #C0795C",
"< 	c #9C5228",
"[ 	c #BCA99C",
"} 	c #DFDEDE",
"| 	c #BCB6AE",
"1 	c #B18062",
"2 	c #A96D21",
"3 	c #EDD338",
"4 	c #E8BC13",
"5 	c #C98E09",
"6 	c #A9740F",
"7 	c #734628",
"8 	c #A59377",
"9 	c #DA9186",
"0 	c #A75E3C",
"a 	c #C4BAAF",
"b 	c #CECECA",
"c 	c #B89A7D",
"d 	c #D55730",
"e 	c #F1D340",
"f 	c #EFC728",
"g 	c #DC981C",
"h 	c #BE651F",
"i 	c #D78D19",
"j 	c #E3C053",
"k 	c #BB9D77",
"l 	c #926C5C",
"m 	c #BC6A4A",
"n 	c #A28261",
"o 	c #D0CCC8",
"p 	c #E1E2E0",
"q 	c #C6C1B7",
"r 	c #C56C4D",
"s 	c #D3AA8D",
"t 	c #E2C33A",
"u 	c #D79322",
"v 	c #C67F32",
"w 	c #A46855",
"x 	c #BE722B",
"y 	c #ECB30E",
"z 	c #F8D61B",
"A 	c #BE8A26",
"B 	c #805240",
"C 	c #926354",
"D 	c #BEA696",
"E 	c #E0E1E0",
"F 	c #D4D5D4",
"G 	c #C1B294",
"H 	c #D67568",
"I 	c #8D7955",
"J 	c #ECBE1C",
"K 	c #B6743C",
"L 	c #AD8D83",
"M 	c #B49F97",
"N 	c #AD795F",
"O 	c #CF8522",
"P 	c #E6AA16",
"Q 	c #CC873A",
"R 	c #825A24",
"S 	c #C33D34",
"T 	c #986151",
"U 	c #D2D2D0",
"V 	c #DEDEDC",
"W 	c #9E8C66",
"X 	c #B29D80",
"Y 	c #8A5C07",
"Z 	c #E3A616",
"` 	c #B7784B",
" .	c #B2A4A0",
"..	c #C1B8B3",
"+.	c #AF928A",
"@.	c #B68E78",
"#.	c #AB7055",
"$.	c #BA6C2E",
"%.	c #C89210",
"&.	c #C91102",
"*.	c #974835",
"=.	c #DCDBD9",
"-.	c #A6754E",
";.	c #602B23",
">.	c #966308",
",.	c #B9814D",
"'.	c #B1A29B",
").	c #C0BCB8",
"!.	c #A87F72",
"~.	c #B97238",
"{.	c #E6B017",
"].	c #A46A18",
"^.	c #C32206",
"/.	c #9E563B",
"(.	c #DBD9D7",
"_.	c #D4D4D2",
":.	c #A4775F",
"<.	c #BB0A00",
"[.	c #B27514",
"}.	c #DFAB26",
"|.	c #A86B4C",
"1.	c #A78C86",
"2.	c #AD9893",
"3.	c #B29F99",
"4.	c #AF7659",
"5.	c #DC9E22",
"6.	c #F0D432",
"7.	c #825635",
"8.	c #763E34",
"9.	c #A27A5C",
"0.	c #C3B196",
"a.	c #C51E10",
"b.	c #8C1005",
"c.	c #94532B",
"d.	c #A56F5B",
"e.	c #AD8D7F",
"f.	c #B6886A",
"g.	c #D39F4F",
"h.	c #B87745",
"i.	c #D5911E",
"j.	c #B89056",
"k.	c #958784",
"l.	c #BB8466",
"m.	c #BAA796",
"n.	c #D5D0C6",
"o.	c #C48F77",
"p.	c #C22B11",
"q.	c #6D1707",
"r.	c #886C62",
"s.	c #BE9979",
"t.	c #BC8858",
"u.	c #EFD130",
"v.	c #E5B730",
"w.	c #C48C14",
"x.	c #977550",
"y.	c #D0ACA4",
"z.	c #AA7048",
"A.	c #D2CFCC",
"B.	c #C6BCB1",
"C.	c #9E7258",
"D.	c #CA391C",
"E.	c #A6897B",
"F.	c #B7A394",
"G.	c #BC9379",
"H.	c #C2AD78",
"I.	c #8D5538",
"J.	c #861106",
"K.	c #D44C2E",
"L.	c #A95428",
"M.	c #C0B2A7",
"N.	c #DFDEDD",
"O.	c #BEB6B0",
"P.	c #855241",
"Q.	c #BC432D",
"R.	c #C79684",
"S.	c #B4A297",
"T.	c #56372C",
"U.	c #740601",
"V.	c #94140E",
"W.	c #925748",
"X.	c #BEB2AB",
"Y.	c #DFDFDF",
"Z.	c #D0D0CE",
"`.	c #A99C96",
" +	c #98635C",
".+	c #A67A73",
"++	c #C5B8A4",
"@+	c #C1B7A8",
"#+	c #C7C0B8",
"$+	c #D1CFCC",
"%+	c #D9DAD9",
"&+	c #DDDEDD",
"*+	c #D7D8D6",
"=+	c #DCDDDC",
"          . + @ # $ %           ",
"      & * = - ; > , ' )         ",
"    ! ~ { ] ^ / ( _ : < [ }     ",
"    | 1 2 3 4 5 6 7 8 9 0 a     ",
"  b c d e f g h i j k l m n o   ",
"p q r s t u v w x y z A B C D E ",
"F G H I J K L M N O P Q R S T U ",
"V W X Y Z `  ...+.@.#.$.%.&.*.=.",
"V -.;.>.,.'.).    !.~.{.].^./.(.",
"_.:.<.[.}.|.1.2.3.4.5.6.7.8.9.U ",
"E 0.a.b.c.d.e.f.g.h.i.j.k.l.m.p ",
"  n.o.p.q.r.s.t.u.v.w.x.y.z.A.  ",
"    B.C.D.E.F.G.H.I.J.K.L.M.    ",
"    N.O.P.Q.R.S.T.U.V.W.X.Y.    ",
"        Z.`. +.+++@+#+$+        ",
"          %+&+%+*+=+%+          "};
