/* XPM */
static char * xclock_16x16_xpm[] = {
"16 16 30 1",
" 	c None",
".	c #806060",
"+	c #554040",
"@	c #000000",
"#	c #FF6060",
"$	c #E00000",
"%	c #800000",
"&	c #B00000",
"*	c #400000",
"=	c #C00000",
"-	c #900000",
";	c #404040",
">	c #919191",
",	c #A2A2A2",
"'	c #606060",
")	c #502020",
"!	c #C1C1C1",
"~	c #D0D0D0",
"{	c #FFFFFF",
"]	c #461616",
"^	c #DFDFDF",
"/	c #F0F0F0",
"(	c #C0C0C0",
"_	c #FF8080",
":	c #E1E1E1",
"<	c #600000",
"[	c #363636",
"}	c #802020",
"|	c #B03030",
"1	c #A00000",
"                ",
"                ",
"  ...........+  ",
" @#$$$%%%&$$$*  ",
" @#=-;>,,')==*  ",
" @#-'!~~{!>)=*  ",
" @#],^/(_{!'-*  ",
" @#;:/{(_/{,<*  ",
" @#;!/{_{{~,<*  ",
" @#[!~{{{/~><*  ",
" @#<>/~//^!;=*  ",
" @#=)>!!:,'-=*  ",
" @#==<;;;}===*  ",
" @|1111111111*  ",
"  @@@@@@*%@@@   ",
"                "};
