/* XPM */
static char *xedit_16x16[] = {
/* columns rows colors chars-per-pixel */
"16 16 17 1",
"  c black",
". c gray19",
"X c #004040",
"o c #585858",
"O c #800000",
"+ c #c00000",
"@ c #c05800",
"# c #ff8000",
"$ c #ffa858",
"% c yellow",
"& c #808080",
"* c #a0a0a0",
"= c #ffdca8",
"- c #c3c3c3",
"; c gainsboro",
": c white",
"> c None",
/* pixels */
">>>>>>>>>    >>>",
">>>>>>>> @##+ >>",
">>>>>>> -;-### >",
">>>>>> ##---##+ ",
">>>>> %%:#-*o#+ ",
">>>> %%=$$#o o+ ",
">>> %%:$$$o -O X",
">> %%=$$$@@o  XX",
"> $$#$$$@@#  XX>",
"> =:=#$@@#  XX>>",
" =:===#@#@ XX>>>",
" =====#@@ XX>>>>",
" .&==$#@ XX>>>>>",
"  .$$@  XX>>>>>>",
"     XXXX>>>>>>>",
">>>XXXX>>>>>>>>>"
};
