/* XPM */
static char *magick[] = {
/* columns rows colors chars-per-pixel */
"16 16 240 2",
"   c Gray0",
".  c #070606",
"X  c #030a0f",
"o  c #0a080a",
"O  c #0a090b",
"+  c #090c0f",
"@  c #0d0d0c",
"#  c #141311",
"$  c #141514",
"%  c #161a1b",
"&  c #1d1d1d",
"*  c #19232b",
"=  c #19232c",
"-  c #1c272f",
";  c #2e2c2e",
":  c #212d39",
">  c #202e39",
",  c #212e39",
"<  c #212f39",
"1  c #202e3a",
"2  c #212e3b",
"3  c #212f3a",
"4  c #222e3a",
"5  c #2a333a",
"6  c #333332",
"7  c #363637",
"8  c #383a3b",
"9  c #3a3b3b",
"0  c Gray23",
"q  c #393e3e",
"w  c #3a3e3d",
"e  c #3f3e3e",
"r  c #444444",
"t  c Gray27",
"y  c #464545",
"u  c #464646",
"i  c #484847",
"p  c Gray29",
"a  c #534f4d",
"s  c #52514f",
"d  c #515151",
"f  c #545353",
"g  c #54565a",
"h  c #56575b",
"j  c #595a5d",
"k  c #5b5d60",
"l  c #6c6a6a",
"z  c #677079",
"x  c #6a7373",
"c  c #7a7c7e",
"v  c #446c8a",
"b  c #51728d",
"n  c #6c7680",
"m  c #78949e",
"M  c #6188ad",
"N  c #6389af",
"B  c #628cad",
"V  c #638daf",
"C  c #648cae",
"Z  c #648dae",
"A  c #648eae",
"S  c #628cb2",
"D  c #638db4",
"F  c #6694b8",
"G  c #6996b8",
"H  c #6b96b8",
"J  c #7697b3",
"K  c #6fa0b9",
"L  c #6fa8ca",
"P  c #78add5",
"I  c #74b2db",
"U  c #7ab4e7",
"Y  c #7eb9e4",
"T  c #7fb9e4",
"R  c #7fbfe8",
"E  c #70c6ef",
"W  c #7fc2ed",
"Q  c #b53436",
"!  c #a06468",
"~  c #a67374",
"^  c #a4737b",
"/  c #dc1a24",
"(  c #d9323b",
")  c #eb2c34",
"_  c #ed2f33",
"`  c #f42025",
"'  c #f3292c",
"]  c #e73d41",
"[  c #cf4d5f",
"{  c #c75059",
"}  c #c0595d",
"|  c #d14f54",
" . c #d34d57",
".. c #d14d5c",
"X. c #c8576a",
"o. c #cd686a",
"O. c #ca6d7f",
"+. c #c47473",
"@. c #d36474",
"#. c #ec4346",
"$. c #ea454b",
"%. c #ff4d4f",
"&. c #8d7c8c",
"*. c #a67681",
"=. c #a77d8f",
"-. c #f17c80",
";. c Gray51",
":. c #838282",
">. c #848484",
",. c #898686",
"<. c #8b8a88",
"1. c #828d94",
"2. c #888395",
"3. c #80959b",
"4. c #9f9d9d",
"5. c #9f9e9e",
"6. c #8d9ba6",
"7. c #929fa6",
"8. c #9897aa",
"9. c #8da5a1",
"0. c #8cacae",
"q. c #8ba7b7",
"w. c #8eb5b9",
"e. c #92abaa",
"r. c #98a3a5",
"t. c #9aa7ac",
"y. c #99aaaa",
"u. c #9ea8a8",
"i. c #9eacad",
"p. c #95a5b3",
"a. c #a0a4a6",
"s. c #a1a9a9",
"d. c #a3acae",
"f. c #a5a8a8",
"g. c #aaacac",
"h. c #aeabab",
"j. c #acadac",
"k. c #acaeac",
"l. c #aeaead",
"z. c #a0afbb",
"x. c #a5afb8",
"c. c #aab0af",
"v. c #a2b5b6",
"b. c #b5a6a6",
"n. c #b0afaa",
"m. c #b3b1b0",
"M. c #b0b6b5",
"N. c #b0bcbc",
"B. c #b9b7b7",
"V. c #bcbab6",
"C. c #bbb8b8",
"Z. c #879ec6",
"A. c #81b3d4",
"S. c #82b1d8",
"D. c #80b4da",
"F. c #87b9de",
"G. c #91aac0",
"H. c #9dafca",
"J. c #82b8e2",
"K. c #83b8e3",
"L. c #83b8e5",
"P. c #84bae5",
"I. c #86bce3",
"U. c #80bcec",
"Y. c #8cbae4",
"T. c #a0a7c7",
"R. c #a7adc6",
"E. c #aec2be",
"W. c #84c0e6",
"Q. c #8cc1e6",
"!. c #8bc3f1",
"~. c #8cd0f3",
"^. c #90c0e7",
"/. c #95c7ea",
"(. c #94c8e4",
"). c #95cae7",
"_. c #add2d1",
"`. c #b1cacd",
"'. c #b8c8d4",
"]. c #b6d0cd",
"[. c #b0cfe5",
"{. c #b9d2e0",
"}. c #bad7e8",
"|. c #d09696",
" X c #ccbfbe",
".X c #c4c3c3",
"XX c #c7c6c6",
"oX c #c4cac7",
"OX c #c3cecd",
"+X c #c9c8c8",
"@X c #cdccca",
"#X c #cccfce",
"$X c Gray81",
"%X c #c6cbd9",
"&X c #c4d6d3",
"*X c #cbd7dd",
"=X c #cededd",
"-X c #d1d0d0",
";X c #d3d1d0",
":X c #d2d2d2",
">X c #d2d6d2",
",X c #d6d5d5",
"<X c #d9d6d6",
"1X c #dcd5d6",
"2X c #dad9d9",
"3X c #c9d6e1",
"4X c #cfe0de",
"5X c #d7e0df",
"6X c #c9e4e6",
"7X c #cce5ed",
"8X c #c4e3f7",
"9X c #d3e1e3",
"0X c #d3e5e4",
"qX c #d1e1ea",
"wX c #dae1e0",
"eX c #dbe2e0",
"rX c #d8e5e5",
"tX c #dde1e0",
"yX c #dee1e0",
"uX c #d0edf5",
"iX c #d3f2f0",
"pX c #e0dfdd",
"aX c #e5e3e1",
"sX c #e5e4e3",
"dX c #e0e8e6",
"fX c #e8e6e6",
"gX c #e8ebe9",
"hX c #ebeaea",
"jX c #efedeb",
"kX c #efeeed",
"lX c #efefee",
"zX c #e0eef0",
"xX c #edf3f2",
"cX c #f1efef",
"vX c #f4f1ea",
"bX c #f9f7f7",
"nX c Gray98",
"mX c #fffdfd",
"MX c #fffefe",
"NX c Gray100",
/* pixels */
"+ = 3 3 3 3 3 3 3 - 7 u u u u p ",
"* b G Z Z Z N N F v h.<X,X2X+X.X",
"3 G !.K.T U.U Y.8Xq.pXC.;.cX4.nX",
"3 V K.P I Z.S.{.vXn.;XNXf ;.NXNX",
"3 Z ^.).H.[ 8.4XjXk.$XNX4.e NXNX",
"3 V Q.).R.( *.&XkXk.;XXXB.>.l bX",
"3 D I.F.W.) ! ].kXk.@XfXNXNX;XhX",
"3 S L.A.E X.Q _.xXOXx k h h j c ",
"5 J Y.F.W.../ +.iXeX Xv.i.s.u.d.",
"8 M.}.Y.T. .&.` ' #._ |.6XrX9X*X",
"0 V.uX~.@.{ 2.q.=.o.| ^ `.zXqX3X",
"0 E.%X*.] m K U.L w.e.3.t.x.p.'.",
"w m.-.$.~ 0.[./.X a $ i @ s # 1.",
"w b.%.} 9.>XrX7X% ,.& ;.d <.  z ",
"8 N.1Xy.oXsXaXhX6 .   ; O O   n ",
"u c.0X=X5XeXyXyX$Xg.f.a.r.7.6.z."
};
