/* XPM */
static char * fr_xpm[] = {
"24 24 22 1",
" 	c #3078E4",
".	c #FFFFFF",
"+	c #B8D1F6",
"@	c #FCFDFF",
"#	c #DAE7FA",
"$	c #73A3ED",
"%	c #77A6ED",
"&	c #387DE5",
"*	c #9CBEF2",
"=	c #DFEAFB",
"-	c #377DE5",
";	c #F9FBFE",
">	c #9ABDF2",
",	c #C8DBF8",
"'	c #DCE8FA",
")	c #4887E7",
"!	c #D7E5FA",
"~	c #4485E7",
"{	c #367CE5",
"]	c #A3C3F3",
"^	c #C5D9F7",
"/	c #FAFCFE",
"                        ",
"                        ",
"                        ",
"                        ",
"                        ",
"                        ",
"  ........+ .....@#$    ",
"  ........+ ........%   ",
"  ..        ..   &*.=   ",
"  ..        ..    -.;   ",
"  ..        ..   ->.,   ",
"  .......   .......')   ",
"  .......   .......!~   ",
"  ..        ..   {].^   ",
"  ..        ..    {./   ",
"  ..        ..     ..   ",
"  ..        ..     ..   ",
"  ..        ..     ..   ",
"                        ",
"                        ",
"                        ",
"                        ",
"                        ",
"                        "};
