/* XPM */
static char * ua_xpm[] = {
"24 24 40 1",
" 	c #3078E4",
".	c #FFFFFF",
"+	c #337AE4",
"@	c #E2ECFB",
"#	c #E6EFFC",
"$	c #357BE5",
"%	c #84AFEF",
"&	c #88B1EF",
"*	c #377DE5",
"=	c #EAF1FC",
"-	c #98BCF2",
";	c #ECF2FC",
">	c #387DE5",
",	c #8FB6F0",
"'	c #CDDFF9",
")	c #C9DCF8",
"!	c #91B8F1",
"~	c #3C80E6",
"{	c #F0F5FD",
"]	c #659AEB",
"^	c #6299EB",
"/	c #F1F6FD",
"(	c #9ABDF2",
"_	c #CCDEF8",
":	c #CBDDF8",
"<	c #9BBEF2",
"[	c #F5F9FE",
"}	c #649AEB",
"|	c #FDFEFF",
"1	c #367CE5",
"2	c #E0EBFB",
"3	c #A3C3F3",
"4	c #397EE5",
"5	c #A2C3F3",
"6	c #DFEAFB",
"7	c #77A7ED",
"8	c #77A6ED",
"9	c #73A4ED",
"0	c #DAE7FA",
"a	c #FDFDFF",
"                        ",
"                        ",
"                        ",
"                        ",
"                        ",
"                        ",
"  ..     ..   +@.#$     ",
"  ..     ..   %...&     ",
"  ..     ..  *=.-.;>    ",
"  ..     ..  ,.' ).!    ",
"  ..     .. ~{.] ^./~   ",
"  ..     .. (._   :.<   ",
"  ..     .. [.}   }.[   ",
"  ..     .. .........   ",
"  |.>   1.| .........   ",
"  2.3> 45.6 ..     ..   ",
"  7.......8 ..     ..   ",
"   90a.a09  ..     ..   ",
"                        ",
"                        ",
"                        ",
"                        ",
"                        ",
"                        "};
