/* XPM */
static char * edges_xpm[] = {
"17 17 80 1",
" 	c None",
".	c #797977",
"+	c #767B77",
"@	c #767A7D",
"#	c #76797E",
"$	c #75787D",
"%	c #797A7E",
"&	c #7B797A",
"*	c #797778",
"=	c #78797D",
"-	c #777B7E",
";	c #77787C",
">	c #79787D",
",	c #79797B",
"'	c #7A787B",
")	c #4D4E50",
"!	c #4E4F52",
"~	c #4E4F51",
"{	c #4D4F50",
"]	c #4E4E50",
"^	c #4E5051",
"/	c #4F4F51",
"(	c #4F5153",
"_	c #505153",
":	c #505152",
"<	c #515355",
"[	c #515354",
"}	c #515255",
"|	c #525355",
"1	c #525255",
"2	c #535557",
"3	c #535556",
"4	c #535457",
"5	c #525556",
"6	c #535456",
"7	c #545758",
"8	c #545658",
"9	c #555758",
"0	c #545759",
"a	c #555658",
"b	c #56585A",
"c	c #565859",
"d	c #56595A",
"e	c #575A5C",
"f	c #585A5B",
"g	c #575A5B",
"h	c #585A5C",
"i	c #595C5E",
"j	c #595C5D",
"k	c #595B5D",
"l	c #5A5B5D",
"m	c #5A5C5E",
"n	c #5B5D5F",
"o	c #5A5E5F",
"p	c #5A5D5E",
"q	c #5B5E5F",
"r	c #5B5E5E",
"s	c #5A5D5F",
"t	c #5D6061",
"u	c #5C6061",
"v	c #5C5F61",
"w	c #5C6060",
"x	c #5C5F60",
"y	c #5D5F60",
"z	c #5D6163",
"A	c #5E6263",
"B	c #5E6262",
"C	c #5E6162",
"D	c #5E6163",
"E	c #5D6162",
"F	c #5F6364",
"G	c #606364",
"H	c #5F6365",
"I	c #616465",
"J	c #616565",
"K	c #616566",
"L	c #616466",
"M	c #606566",
"N	c #606466",
"O	c #626667",
".+@#$%&*=-;>>,','",
")))))))))))))))))",
"!~!{]!~~~~~^~^^~/",
"((_((__(______:(_",
"<<[[}[[|<}<<|<1<|",
"23343425663236643",
"788907a777978a789",
"bbbbbbcbbbcdddbbd",
"efgfheffehghefgef",
"ijjjjkjjlikkmjmkj",
"nopoqonqqrnoqnqsn",
"tuvwxuxuvyxvuvuux",
"zABCCDDDBDDCDEEzC",
"FFFFFGFGFFHGFFGFG",
"IJKKKKLLJLJKMKKNK",
"OOOOOOOOOOOOOOOOO",
"OOOOOOOOOOOOOOOOO"};
