/* XPM */
static char * bar_act_xpm[] = {
"17 17 80 1",
" 	c None",
".	c #626667",
"+	c #616566",
"@	c #606466",
"#	c #606566",
"$	c #616565",
"%	c #616466",
"&	c #616465",
"*	c #606364",
"=	c #5F6364",
"-	c #5F6365",
";	c #5E6162",
">	c #5D6163",
",	c #5D6162",
"'	c #5E6163",
")	c #5E6262",
"!	c #5E6263",
"~	c #5C5F60",
"{	c #5C6061",
"]	c #5C5F61",
"^	c #5D5F60",
"/	c #5C6060",
"(	c #5D6061",
"_	c #5B5D5F",
":	c #5A5D5F",
"<	c #5B5E5F",
"[	c #5A5E5F",
"}	c #5B5E5E",
"|	c #5A5D5E",
"1	c #595C5D",
"2	c #595B5D",
"3	c #5A5C5E",
"4	c #595C5E",
"5	c #5A5B5D",
"6	c #585A5B",
"7	c #575A5C",
"8	c #575A5B",
"9	c #585A5C",
"0	c #56595A",
"a	c #56585A",
"b	c #565859",
"c	c #555758",
"d	c #545658",
"e	c #545758",
"f	c #555658",
"g	c #545759",
"h	c #535556",
"i	c #535457",
"j	c #535456",
"k	c #535557",
"l	c #525556",
"m	c #525355",
"n	c #515355",
"o	c #525255",
"p	c #515255",
"q	c #515354",
"r	c #505153",
"s	c #4F5153",
"t	c #505152",
"u	c #4F4F51",
"v	c #4E4F51",
"w	c #4E5051",
"x	c #4E4F52",
"y	c #4E4E50",
"z	c #4D4F50",
"A	c #4D4E50",
"B	c #7A787B",
"C	c #79797B",
"D	c #79787D",
"E	c #77787C",
"F	c #777B7E",
"G	c #78797D",
"H	c #797778",
"I	c #7B797A",
"J	c #797A7E",
"K	c #75787D",
"L	c #76797E",
"M	c #767A7D",
"N	c #767B77",
"O	c #797977",
".................",
".................",
"+@++#+$%$%%++++$&",
"*=*==*-==*=*=====",
";>,,';'')''';;)!>",
"~{{]{]~^]{~{~/]{(",
"_:<_<[_}<<_[<[|[_",
"12313224511211114",
"67867989766796867",
"0aa000baaabaaaaaa",
"cdefdeceeefegcdde",
"hijjhkhjjlkihihhk",
"mnonmnnpnmqqpqqnn",
"rstrrrrrrsrrssrss",
"uvwwvwvvvvvxyzxvx",
"AAAAAAAAAAAAAAAAA",
"BCBCDDEFGHIJKLMNO"};
