/* XPM */
static char * max_xpm[] = {
"17 17 71 1",
" 	c None",
".	c #79797B",
"+	c #7A787B",
"@	c #7A7A7C",
"#	c #4D4E50",
"$	c #4F5051",
"%	c #4E4F51",
"&	c #4E4F52",
"*	c #4F4F51",
"=	c #4F4F52",
"-	c #4E5051",
";	c #4F5153",
">	c #505153",
",	c #4F5152",
"'	c #515355",
")	c #525254",
"!	c #515255",
"~	c #525355",
"{	c #515354",
"]	c #525354",
"^	c #515254",
"/	c #535556",
"(	c #535456",
"_	c #525557",
":	c #535557",
"<	c #535457",
"[	c #FBFCFE",
"}	c #FDFEFF",
"|	c #FEFFFF",
"1	c #525556",
"2	c #545659",
"3	c #555758",
"4	c #545758",
"5	c #545658",
"6	c #FCFDFF",
"7	c #000000",
"8	c #555658",
"9	c #56595A",
"0	c #56585A",
"a	c #565859",
"b	c #585A5C",
"c	c #585A5B",
"d	c #575A5B",
"e	c #575A5C",
"f	c #595B5E",
"g	c #5A5C5D",
"h	c #595C5D",
"i	c #595C5E",
"j	c #595B5D",
"k	c #5A5B5D",
"l	c #5B5E5F",
"m	c #5A5D5F",
"n	c #5A5E5F",
"o	c #5B5D5F",
"p	c #5D5F61",
"q	c #5C6061",
"r	c #5C5F61",
"s	c #5D6061",
"t	c #5C5F60",
"u	c #5E6262",
"v	c #5D6162",
"w	c #5E6162",
"x	c #5E6163",
"y	c #5F6364",
"z	c #606364",
"A	c #5F6365",
"B	c #606365",
"C	c #616566",
"D	c #616466",
"E	c #616565",
"F	c #626667",
".+.+......@......",
"#################",
"$%%%%%%%&%%%**%=-",
";>;>>>;;;>>>>>;;,",
"')!~!{!')']{^^~''",
"/(_:(<[}|||}|</(1",
"234355||[|6|}7884",
"9000a0677777|70a0",
"bcbbbb|7debc|7bbe",
"fghhij|7hikg|7hih",
"lmlnlo|7mllm}7lnn",
"pqrqst6|}||6|7qpr",
"uvwvwxx7777777xww",
"yyzyzzAyyyzBzzyyz",
"CCCCDCCCDCCCCCECC",
"FFFFFFFFFFFFFFFFF",
"FFFFFFFFFFFFFFFFF"};
