/* XPM */
static char * stucku_xpm[] = {
"17 17 64 1",
" 	c None",
".	c #7A787B",
"+	c #79797B",
"@	c #78787A",
"#	c #4D4E50",
"$	c #4E4F52",
"%	c #4E4F51",
"&	c #4E5051",
"*	c #4F4F52",
"=	c #4F5153",
"-	c #505153",
";	c #505152",
">	c #4F5152",
",	c #515355",
"'	c #515354",
")	c #515255",
"!	c #525355",
"~	c #525354",
"{	c #525556",
"]	c #535557",
"^	c #535556",
"/	c #535457",
"(	c #535456",
"_	c #525457",
":	c #555758",
"<	c #545758",
"[	c #555658",
"}	c #545658",
"|	c #545759",
"1	c #565959",
"2	c #56585A",
"3	c #56595A",
"4	c #565859",
"5	c #55585A",
"6	c #585A5C",
"7	c #575A5C",
"8	c #585A5B",
"9	c #C1C1C1",
"0	c #595C5E",
"a	c #595C5D",
"b	c #595B5D",
"c	c #000000",
"d	c #5A5C5D",
"e	c #5A5D5F",
"f	c #5A5E5F",
"g	c #5B5E5F",
"h	c #5C5F61",
"i	c #5C6060",
"j	c #5C5F60",
"k	c #5E6163",
"l	c #5D6162",
"m	c #5E6162",
"n	c #5D6263",
"o	c #5D6163",
"p	c #5E6262",
"q	c #606364",
"r	c #5F6364",
"s	c #5F6365",
"t	c #606365",
"u	c #616565",
"v	c #616566",
"w	c #616466",
"x	c #616465",
"y	c #626667",
".+.+.++++++++@++.",
"#################",
"$%&$$$$$%%%$%*%%%",
"=---;--->---==>==",
",,',),!~!,,,!,,,~",
"{]^/{]^^(_/{(]/(^",
":<[<}[<:}|}}<}}<<",
"12342225232233223",
"66777879999678666",
"0aabaab9999cabada",
"eeffggg9999cffggf",
"hhijjhh9999cijjjh",
"kklmnommcccclmnlp",
"qrssqqrqqqqqsqqqt",
"uvvvvvvvuwvvvxvwv",
"yyyyyyyyyyyyyyyyy",
"yyyyyyyyyyyyyyyyy"};
