/* XPM */
static char * fr_16_xpm[] = {
"16 16 2 1",
" 	c #3078E4",
".	c #FFFFFF",
"                ",
"                ",
"                ",
"                ",
"  ..... ....    ",
"  .     .   .   ",
"  .     .   .   ",
"  ....  ....    ",
"  .     .   .   ",
"  .     .   .   ",
"  .     .   .   ",
"                ",
"                ",
"                ",
"                ",
"                "};
