/* XPM */
static char * ru_16_xpm[] = {
"16 16 2 1",
" 	c #990000",
".	c #FFFFFF",
"                ",
"                ",
"                ",
"                ",
"  ....  .   .   ",
"  .   . .   .   ",
"  .   . .   .   ",
"  ....  .   .   ",
"  .   . .   .   ",
"  .   . .   .   ",
"  .   .  ...    ",
"                ",
"                ",
"                ",
"                ",
"                "};
