/* XPM */
static char * de_xpm[] = {
"24 24 19 1",
" 	c #990000",
".	c #FFFFFF",
"+	c #FDFBFB",
"@	c #ECD0D0",
"#	c #B95050",
"$	c #DCA8A8",
"%	c #BB5454",
"&	c #9D0B0B",
"*	c #D18D8D",
"=	c #EFD7D7",
"-	c #9C0707",
";	c #FEFDFD",
">	c #9B0606",
",	c #9D0A0A",
"'	c #D08A8A",
")	c #EFD8D8",
"!	c #BB5555",
"~	c #FEFCFC",
"{	c #EDD1D1",
"                        ",
"                        ",
"                        ",
"                        ",
"                        ",
"                        ",
"  .....+@#  ........$   ",
"  ........% ........$   ",
"  ..   &*.= ..          ",
"  ..    -.; ..          ",
"  ..     .. ..          ",
"  ..     .. .......     ",
"  ..     .. .......     ",
"  ..     .. ..          ",
"  ..    >.; ..          ",
"  ..   ,'.) ..          ",
"  ........! ........$   ",
"  .....~{#  ........$   ",
"                        ",
"                        ",
"                        ",
"                        ",
"                        ",
"                        "};
