/* XPM */
static char * ru_xpm[] = {
"24 24 28 1",
" 	c #990000",
".	c #FFFFFF",
"+	c #FDFBFB",
"@	c #EDD2D2",
"#	c #BA5252",
"$	c #BC5757",
"%	c #9D0A0A",
"&	c #CE8585",
"*	c #EFD8D8",
"=	c #9D0909",
"-	c #FCF7F7",
";	c #CD8383",
">	c #E4BBBB",
",	c #EED4D4",
"'	c #A51D1D",
")	c #EBCECE",
"!	c #A31919",
"~	c #9C0808",
"{	c #D28E8E",
"]	c #E2B7B7",
"^	c #FDF9F9",
"/	c #FEFDFD",
"(	c #F0D9D9",
"_	c #9D0B0B",
":	c #D18D8D",
"<	c #BC5858",
"[	c #BA5353",
"}	c #FEFCFC",
"                        ",
"                        ",
"                        ",
"                        ",
"                        ",
"                        ",
"  .....+@#  ..     ..   ",
"  ........$ ..     ..   ",
"  ..   %&.* ..     ..   ",
"  ..    =.- ..     ..   ",
"  ..   =;.> ..     ..   ",
"  .......,' ..     ..   ",
"  .......)! ..     ..   ",
"  ..   ~{.] ..     ..   ",
"  ..    ~.^ /.%   ~./   ",
"  ..     .. (.{% _:.*   ",
"  ..     .. <.......$   ",
"  ..     ..  [@}.}@[    ",
"                        ",
"                        ",
"                        ",
"                        ",
"                        ",
"                        "};
