/* XPM */
static char * en_xpm[] = {
"24 24 20 1",
" 	c #3078E4",
".	c #FFFFFF",
"+	c #B8D1F6",
"@	c #C1D7F7",
"#	c #357BE5",
"$	c #C4D8F7",
"%	c #367CE5",
"&	c #FEFEFF",
"*	c #C6DAF8",
"=	c #377DE5",
"-	c #88B2F0",
";	c #C9DCF8",
">	c #387DE5",
",	c #8DB5F0",
"'	c #CDDEF8",
")	c #3A7EE5",
"!	c #93B9F1",
"~	c #CFE0F9",
"{	c #99BCF2",
"]	c #9EC0F2",
"                        ",
"                        ",
"                        ",
"                        ",
"                        ",
"                        ",
"  ........+ .@#    ..   ",
"  ........+ ..$%   ..   ",
"  ..        ..&*=  ..   ",
"  ..        ..-.;> ..   ",
"  ..        .. ,.')..   ",
"  .......   ..  !.~..   ",
"  .......   ..   {...   ",
"  ..        ..    ]..   ",
"  ..        ..     ..   ",
"  ..        ..     ..   ",
"  ........+ ..     ..   ",
"  ........+ ..     ..   ",
"                        ",
"                        ",
"                        ",
"                        ",
"                        ",
"                        "};
