/* XPM */
static char * es_xpm[] = {
"24 24 44 1",
" 	c #3078E4",
".	c #FFFFFF",
"+	c #B8D1F6",
"@	c #88B2F0",
"#	c #E8F0FC",
"$	c #E6EFFC",
"%	c #79A8EE",
"&	c #81ADEF",
"*	c #FEFEFF",
"=	c #6A9EEC",
"-	c #E0EBFB",
";	c #91B7F1",
">	c #337AE4",
",	c #689DEB",
"'	c #FDFDFF",
")	c #D3E2F9",
"!	c #FBFCFE",
"~	c #397EE5",
"{	c #A0C1F3",
"]	c #B7D0F6",
"^	c #E2ECFB",
"/	c #92B8F1",
"(	c #357BE5",
"_	c #84AFEF",
":	c #F0F5FD",
"<	c #95BAF1",
"[	c #8EB5F0",
"}	c #ECF3FD",
"|	c #87B1EF",
"1	c #3279E4",
"2	c #6EA0EC",
"3	c #E1EBFB",
"4	c #B4CEF5",
"5	c #377DE5",
"6	c #D6E4FA",
"7	c #96BBF1",
"8	c #6399EB",
"9	c #FAFCFE",
"0	c #6FA1EC",
"a	c #80ACEE",
"b	c #7DAAEE",
"c	c #E7EFFC",
"d	c #E9F1FC",
"e	c #88B1EF",
"                        ",
"                        ",
"                        ",
"                        ",
"                        ",
"                        ",
"   ........+  @#..$%    ",
"   ........+ &.....*=   ",
"   ..        -.;> ,')   ",
"   ..        !.~   {]   ",
"   ..        ^./(       ",
"   .......   _....:<    ",
"   .......    [}....|   ",
"   ..            12!3   ",
"   ..        4+5   6!   ",
"   ..        6.7> 89-   ",
"   ........+ 0......a   ",
"   ........+  bc..de    ",
"                        ",
"                        ",
"                        ",
"                        ",
"                        ",
"                        "};
