/* XPM */
static char * cz_16_xpm[] = {
"16 16 2 1",
" 	c #333333",
".	c #FFFFFF",
"                ",
"                ",
"                ",
"                ",
"   ...  .....   ",
"  .   .     .   ",
"  .        .    ",
"  .       .     ",
"  .      .      ",
"  .   . .       ",
"   ...  .....   ",
"                ",
"                ",
"                ",
"                ",
"                "};
