/* XPM */
static char * app_16x16_xpm[] = {
"16 16 39 1",
" 	c None",
".	c #075D83",
"+	c #FFFFFF",
"@	c #C3C3C3",
"#	c #1998C2",
"$	c #168FB8",
"%	c #1386AF",
"&	c #0F7CA4",
"*	c #0C739A",
"=	c #096990",
"-	c #878787",
";	c #147A9C",
">	c #127394",
",	c #0F6C8D",
"'	c #0C6484",
")	c #0A5C7C",
"!	c #075474",
"~	c #555555",
"{	c #FEFEFE",
"]	c #FDFDFD",
"^	c #FBFBFB",
"/	c #F8F8F8",
"(	c #F4F4F4",
"_	c #F0F0F0",
":	c #EAEAEA",
"<	c #E6E6E6",
"[	c #FCFCFC",
"}	c #FAFAFA",
"|	c #F7F7F7",
"1	c #EFEFEF",
"2	c #F9F9F9",
"3	c #F6F6F6",
"4	c #F2F2F2",
"5	c #EEEEEE",
"6	c #E8E8E8",
"7	c #ECECEC",
"8	c #E7E7E7",
"9	c #F1F1F1",
"0	c #E9E9E9",
"                ",
"                ",
"                ",
"                ",
"  ............  ",
"  .+@#$%&*=+@.  ",
"  .@-;>,')!@-.  ",
"  ~{+{]^/(_:<~  ",
"  ~{{{[}|(1:<~  ",
"  ~[][^23456<~  ",
"  ~}^}2|(_78<~  ",
"  ~|/|3(950<<~  ",
"  ~~~~~~~~~~~~  ",
"                ",
"                ",
"                "};
