/* XPM */
static char * app_16x16_xpm[] = {
"16 16 90 1",
" 	c None",
".	c #6FACAA",
"+	c #3A5E5B",
"@	c #66B4AA",
"#	c #84D2CA",
"$	c #82CBC6",
"%	c #395250",
"&	c #6CA7AA",
"*	c #7ECBC4",
"=	c #75BEB8",
"-	c #78B8B3",
";	c #74A8A3",
">	c #2D413F",
",	c #6AA2A4",
"'	c #80C4BE",
")	c #6DADA7",
"!	c #68A49E",
"~	c #71A8A4",
"{	c #62938F",
"]	c #63938E",
"^	c #2F4746",
"/	c #689E9F",
"(	c #7FBEBA",
"_	c #77B2AE",
":	c #689694",
"<	c #608A88",
"[	c #629390",
"}	c #6DA8A4",
"|	c #78B2AF",
"1	c #354F4E",
"2	c #638888",
"3	c #78AEAB",
"4	c #74AAA6",
"5	c #64918E",
"6	c #5E8682",
"7	c #5F8784",
"8	c #5F8A87",
"9	c #649A95",
"0	c #76B0AC",
"a	c #74ADA9",
"b	c #71A6A2",
"c	c #2D3D3B",
"d	c #3B5050",
"e	c #526E6D",
"f	c #597876",
"g	c #546E6D",
"h	c #5C7C7A",
"i	c #6C9E9B",
"j	c #669490",
"k	c #5E8582",
"l	c #628C89",
"m	c #6DA19E",
"n	c #6EA09D",
"o	c #699894",
"p	c #3B4E4C",
"q	c #2B3635",
"r	c #465B59",
"s	c #5C7A77",
"t	c #648A88",
"u	c #668F8D",
"v	c #5E817F",
"w	c #55706E",
"x	c #5A7A78",
"y	c #67908D",
"z	c #3B4C4B",
"A	c #2F3C3B",
"B	c #526C6B",
"C	c #5E7C7A",
"D	c #607F7E",
"E	c #536D6C",
"F	c #4C6260",
"G	c #4A5F5E",
"H	c #64807E",
"I	c #394746",
"J	c #2E3A39",
"K	c #506864",
"L	c #5A7472",
"M	c #587270",
"N	c #435856",
"O	c #536462",
"P	c #2C3736",
"Q	c #2C3837",
"R	c #526665",
"S	c #576D6B",
"T	c #607474",
"U	c #293231",
"V	c #2A3534",
"W	c #566968",
"X	c #323D3D",
"Y	c #151B1B",
"                ",
"                ",
"       .+       ",
"      @#$%      ",
"     &*=-;>     ",
"    ,')!~{]^    ",
"   /(_{:<[}|1   ",
"  234567890abc  ",
" defghijklmnop  ",
"  qrstuvwxuyz   ",
"   ABCDEFGHI    ",
"    JKLMNOP     ",
"     QRSTU      ",
"      VWX       ",
"       Y        ",
"                "};
