/* XPM */
static char * bomb_16x16_xpm[] = {
"16 16 47 1",
" 	c None",
".	c #000000",
"+	c #151515",
"@	c #252525",
"#	c #1E1E1E",
"$	c #060606",
"%	c #191919",
"&	c #747474",
"*	c #ABABAB",
"=	c #7F7F7F",
"-	c #181818",
";	c #030303",
">	c #383838",
",	c #333333",
"'	c #AEAEAE",
")	c #8D8D8D",
"!	c #303030",
"~	c #0D0D0D",
"{	c #373737",
"]	c #1C1C00",
"^	c #0E0E0E",
"/	c #222222",
"(	c #656565",
"_	c #121212",
":	c #070700",
"<	c #1F1F03",
"[	c #15150D",
"}	c #949400",
"|	c #1B1B1B",
"1	c #131313",
"2	c #040403",
"3	c #303013",
"4	c #8B8B1B",
"5	c #222206",
"6	c #777700",
"7	c #D3D300",
"8	c #BDBD00",
"9	c #111111",
"0	c #64645D",
"a	c #909074",
"b	c #2D2D26",
"c	c #B6B600",
"d	c #AFAF00",
"e	c #4B4B4B",
"f	c #3E3E3E",
"g	c #939300",
"h	c #0A0A0A",
"                ",
"       ...      ",
"      .   .     ",
"     .     .    ",
"    ...     .   ",
"   +@#$.    .   ",
"  %&*=-.;    .  ",
" >,')!$.~{   ]  ",
" ^/)(_.:<[   } }",
" .$|1;2345 6 78 ",
" ~;...90ab  c7d ",
" {~...9e{f  g   ",
"  $~;.$|h       ",
"   {~.~{        ",
"                ",
"                "};
