/* XPM */
static char * clanbomber_16x16_xpm[] = {
"16 16 92 2",
"  	c None",
". 	c #F2B80E",
"+ 	c #FB7B44",
"@ 	c #FCEB05",
"# 	c #060E30",
"$ 	c #070F32",
"% 	c #060E2E",
"& 	c #071238",
"* 	c #122D7C",
"= 	c #050B23",
"- 	c #F79615",
"; 	c #F82A16",
"> 	c #061030",
", 	c #061036",
"' 	c #081544",
") 	c #0A1B58",
"! 	c #0C1B58",
"~ 	c #091540",
"{ 	c #081138",
"] 	c #061234",
"^ 	c #0E2368",
"/ 	c #0C1746",
"( 	c #060E2F",
"_ 	c #071136",
": 	c #0D2068",
"< 	c #193EAE",
"[ 	c #2E5FD6",
"} 	c #1D4AC4",
"| 	c #122A84",
"1 	c #0B184A",
"2 	c #081034",
"3 	c #071032",
"4 	c #091239",
"5 	c #060F30",
"6 	c #0A1B56",
"7 	c #1A3FB2",
"8 	c #447DE8",
"9 	c #5A96EC",
"0 	c #2F65E4",
"a 	c #16369E",
"b 	c #0A1950",
"c 	c #08123A",
"d 	c #060F2E",
"e 	c #060F31",
"f 	c #0E226A",
"g 	c #2557D6",
"h 	c #518CEA",
"i 	c #4D87EA",
"j 	c #2A5DDA",
"k 	c #153698",
"l 	c #0A1A52",
"m 	c #071134",
"n 	c #060E2C",
"o 	c #091A56",
"p 	c #183DAC",
"q 	c #1D45BA",
"r 	c #1E48C0",
"s 	c #1636A0",
"t 	c #0D1F64",
"u 	c #081542",
"v 	c #060F34",
"w 	c #0B1E5E",
"x 	c #0E2470",
"y 	c #0B1A56",
"z 	c #061238",
"A 	c #060E32",
"B 	c #070F30",
"C 	c #061032",
"D 	c #08113A",
"E 	c #07123E",
"F 	c #081340",
"G 	c #061038",
"H 	c #071034",
"I 	c #0A1032",
"J 	c #060F32",
"K 	c #09123C",
"L 	c #061132",
"M 	c #08133C",
"N 	c #1E0B27",
"O 	c #0A1034",
"P 	c #08143E",
"Q 	c #221B59",
"R 	c #060F2F",
"S 	c #081136",
"T 	c #0B194E",
"U 	c #192A7F",
"V 	c #091138",
"W 	c #0A174A",
"X 	c #16287A",
"Y 	c #292E88",
"Z 	c #0A1544",
"` 	c #0C2168",
"                          . + @ ",
"          # # # $ % & * = - ;   ",
"      > , ' ) ! ~ { ] ^ /     @ ",
"    ( _ : < [ } | 1 2 > 3 4     ",
"    5 6 7 8 9 0 a b c d 3 3     ",
"  e & f g h i j k l _ 3 d m n   ",
"  > , o p q r s t u 3 3 m 5 3   ",
"n 5 v ' w x x y z A B 3 % B %   ",
"  % C D E F E G H m 3 d I d 3   ",
"  B 3 > J # # % 5 > m B 3 > K   ",
"    $ > $ % A n m > d L d M     ",
"    N d 3 % % # 3 O d 3 P Q     ",
"      R S n # % > d S T U       ",
"        n # # % V W X Y         ",
"              Z `               ",
"                                "};
