/* XPM */
static char * xclock_16x16_xpm[] = {
"16 16 112 2",
"  	c None",
". 	c #D0BE5B",
"+ 	c #DCCC64",
"@ 	c #C1B35C",
"# 	c #B6A74F",
"$ 	c #A19245",
"% 	c #9C9153",
"& 	c #A59C5D",
"* 	c #BDB460",
"= 	c #E2D867",
"- 	c #EADF67",
"; 	c #BFB159",
"> 	c #9F9144",
", 	c #837E63",
"' 	c #979695",
") 	c #939393",
"! 	c #929292",
"~ 	c #999999",
"{ 	c #93927D",
"] 	c #C1B761",
"^ 	c #D5C553",
"/ 	c #C0B159",
"( 	c #9B8C40",
"_ 	c #8D8A7E",
": 	c #9D9D9D",
"< 	c #838383",
"[ 	c #969696",
"} 	c #797979",
"| 	c #93928F",
"1 	c #B7A857",
"2 	c #BEA439",
"3 	c #B4A44D",
"4 	c #857F65",
"5 	c #A3A3A3",
"6 	c #9F9F9F",
"7 	c #9C9C9C",
"8 	c #8B8B8B",
"9 	c #8A887E",
"0 	c #BB9E37",
"a 	c #A39446",
"b 	c #969594",
"c 	c #878787",
"d 	c #9B9B9B",
"e 	c #989898",
"f 	c #959595",
"g 	c #8F8F8F",
"h 	c #747474",
"i 	c #848484",
"j 	c #B9A65D",
"k 	c #AC912D",
"l 	c #CCBA51",
"m 	c #9D9253",
"n 	c #979797",
"o 	c #4C4C4C",
"p 	c #2F2F2F",
"q 	c #868686",
"r 	c #7C7C7C",
"s 	c #B8AB76",
"t 	c #BCA138",
"u 	c #D6C557",
"v 	c #A49B5C",
"w 	c #8C8C8C",
"x 	c #5C5C5C",
"y 	c #3F3F3F",
"z 	c #696969",
"A 	c #818181",
"B 	c #7F7F7F",
"C 	c #6B6B6B",
"D 	c #BBB682",
"E 	c #B59E3D",
"F 	c #BBB25C",
"G 	c #676767",
"H 	c #7D7D7D",
"I 	c #CECA85",
"J 	c #A1903C",
"K 	c #D7CC5D",
"L 	c #93917D",
"M 	c #707070",
"N 	c #8D8D8D",
"O 	c #888888",
"P 	c #838380",
"Q 	c #CDC96A",
"R 	c #9F903D",
"S 	c #D4C655",
"T 	c #BDB25D",
"U 	c #8D8D8A",
"V 	c #8A8A8A",
"W 	c #585858",
"X 	c #6F6F6F",
"Y 	c #C8C68E",
"Z 	c #B0A449",
"` 	c #D1C04F",
" .	c #B4A554",
"..	c #848278",
"+.	c #7B7B7B",
"@.	c #6C6C6C",
"#.	c #7B7B78",
"$.	c #CBC98F",
"%.	c #BDB453",
"&.	c #C0A439",
"*.	c #BEA038",
"=.	c #BAA65D",
"-.	c #B9AC76",
";.	c #BCB883",
">.	c #D7D389",
",.	c #DEDA71",
"'.	c #BBB04E",
").	c #A88F2E",
"!.	c #BCA23B",
"~.	c #C3AA43",
"{.	c #BCA745",
"].	c #AC9D42",
"                                ",
"              . +               ",
"        @ # $ % & * = -         ",
"      ; > , ' ) ! ~ { ] ^       ",
"    / ( _ : < ~ [ ! } | 1 2     ",
"    3 4 [ 5 6 7 ~ [ ) 8 9 0     ",
"    a b c d d e f ! g h i j k   ",
"  l m e ~ d n } o p p q r s t   ",
"  u v w w n ) x y z A B C D E   ",
"    F f ) ! g w G q < r H I J   ",
"    K L M N 8 O C } B G P Q R   ",
"    S T U V h i A W X B Y Z     ",
"      `  ...+.X @.+.#.$.%.      ",
"        &.*.=.-.;.>.,.'.        ",
"            ).!.~.{.].          ",
"                                "};
