/* XPM */
static char *magick[] = {
/* columns rows colors chars-per-pixel */
"16 16 240 2",
"   c #040f0f",
".  c #0e0f0f",
"X  c #161917",
"o  c #121c1b",
"O  c #131e1d",
"+  c #151e1e",
"@  c #181918",
"#  c #181b1a",
"$  c #191b1a",
"%  c #181c1a",
"&  c #191c1b",
"*  c #1a1d1b",
"=  c #1b1f1f",
"-  c #171f21",
";  c #131d29",
":  c #14201f",
">  c #1a201e",
",  c #1d201e",
"<  c #162122",
"1  c #172222",
"2  c #192221",
"3  c #192324",
"4  c #192524",
"5  c #182626",
"6  c #1b2526",
"7  c #1a2626",
"8  c #1c2020",
"9  c #1c2120",
"0  c #1c2221",
"q  c #1f2221",
"w  c #1e2222",
"e  c #1f2323",
"r  c #1c2326",
"t  c #1f2423",
"y  c #1f2927",
"u  c #1d2929",
"i  c #1f2a29",
"p  c #1f2a2c",
"a  c #1e2a2f",
"s  c #202423",
"d  c #212423",
"f  c #202625",
"g  c #222524",
"h  c #222827",
"j  c #212b28",
"k  c #222a2b",
"l  c #232a2b",
"z  c #22292c",
"x  c #212c29",
"c  c #232c2d",
"v  c #252a2c",
"b  c #252d2f",
"n  c #282928",
"m  c #2a2c2a",
"M  c #2c2d2c",
"N  c #242d30",
"B  c #2b312f",
"V  c #2d302f",
"C  c #283030",
"Z  c #2b3232",
"A  c #2e3030",
"S  c #2c3534",
"D  c #2c3734",
"F  c #2e3736",
"G  c #2e3638",
"H  c #2f3a38",
"J  c #313331",
"K  c #303433",
"L  c #303737",
"P  c #363535",
"I  c #303739",
"U  c #313a37",
"Y  c #333835",
"T  c #313a3a",
"R  c #313a3b",
"E  c #333d3a",
"W  c #333f3c",
"Q  c #353b3e",
"!  c #363c38",
"~  c #343f3e",
"^  c #363c3d",
"/  c #373e3c",
"(  c #383935",
")  c #3b3935",
"_  c #333f41",
"`  c #313d45",
"'  c #36403f",
"]  c #3b413f",
"[  c #354140",
"{  c #374243",
"}  c #394341",
"|  c #3a4341",
" . c #3a4343",
".. c #3b4342",
"X. c #3a4442",
"o. c #3a4542",
"O. c #3b4645",
"+. c #3d4541",
"@. c #3c4542",
"#. c #3c4643",
"$. c #3e4643",
"%. c #3d4546",
"&. c #3f4745",
"*. c #3e4746",
"=. c #3f494b",
"-. c #45403f",
";. c #5f6024",
":. c #60622c",
">. c #797c33",
",. c #404644",
"<. c #414c4d",
"1. c #444a4a",
"2. c #484c4b",
"3. c #494f4e",
"4. c #4d4848",
"5. c #4c4b48",
"6. c #4b5150",
"7. c #4d5150",
"8. c #4d5152",
"9. c #4d5252",
"0. c #554c4c",
"q. c #564d4d",
"w. c #57544f",
"e. c #56585e",
"r. c #5a5051",
"t. c #5c5552",
"y. c #5d5454",
"u. c #615c57",
"i. c #605e5d",
"p. c #605f5d",
"a. c #615f5d",
"s. c #625f5d",
"d. c #645958",
"f. c #646663",
"g. c #656666",
"h. c #6b6260",
"j. c #6d6160",
"k. c #6f6464",
"l. c #6c6a66",
"z. c #686968",
"x. c #6b6b68",
"c. c #6b6c6b",
"v. c #716665",
"b. c #736966",
"n. c #736869",
"m. c #74696b",
"M. c #786c6b",
"N. c #7c726e",
"B. c #75767f",
"V. c #7f7070",
"C. c #7e7f81",
"Z. c #827273",
"A. c #827773",
"S. c #847776",
"D. c #867a77",
"F. c #887b7a",
"G. c #887c79",
"H. c #887c7a",
"J. c #818335",
"K. c #afaf0c",
"L. c #a7a710",
"P. c #b5b300",
"I. c #b7b70c",
"U. c #bbb900",
"Y. c #bdbd00",
"T. c #bdbe0c",
"R. c #c6c400",
"E. c #c4c40c",
"W. c #cdcc00",
"Q. c #caca0c",
"!. c #cfcf0d",
"~. c #d3d400",
"^. c #d3d30d",
"/. c #d7d800",
"(. c #d9d700",
"). c #d6d612",
"_. c #f0ef00",
"`. c #858588",
"'. c #888687",
"]. c #898988",
"[. c #8b8b8e",
"{. c #8b8c8a",
"}. c #8d8e8d",
"|. c #908381",
" X c #90908f",
".X c #90918e",
"XX c #909092",
"oX c #959597",
"OX c #969695",
"+X c #98989a",
"@X c #9a9a9d",
"#X c #9c9a9b",
"$X c #9291a4",
"%X c #9997a4",
"&X c #9c9cae",
"*X c #a39291",
"=X c #a59791",
"-X c #a99993",
";X c #aa9c97",
":X c #a0a19f",
">X c #b3a09c",
",X c #b3a49e",
"<X c #a5a3a4",
"1X c #a5a5a4",
"2X c #aaa9a9",
"3X c #a2a2b5",
"4X c #a8a8bc",
"5X c #b5a4a1",
"6X c #b1afaf",
"7X c #bcada8",
"8X c #b0b1af",
"9X c #b4b4b3",
"0X c #bab9b8",
"qX c #bcbcbc",
"wX c #bdbcbc",
"eX c #acadc2",
"rX c #b2b0c7",
"tX c #b3b1c8",
"yX c #c3b3ac",
"uX c #cab7b3",
"iX c #c2c1c0",
"pX c #c3c1c2",
"aX c #c5c3c2",
"sX c #c5c5c4",
"dX c #c8c8c6",
"fX c #c9c8c8",
"gX c #cbcbca",
"hX c #cdcecd",
"jX c #cfcfcd",
"kX c #cac9d8",
"lX c #d0cecd",
"zX c #d1d2d0",
"xX c #d3d2d0",
"cX c #d5d4d3",
"vX c #d7d6d5",
"bX c #d7d7d6",
"nX c #d8d6d7",
"mX c #d8d7d6",
"MX c #fcfbfd",
"NX c Gray100",
/* pixels */
". B | U 5.r.0.0.y.h.N.A.) A n $ ",
"X @.<.u p.V.k.v.H.b.w.,X) Q ] d ",
"* / R : p.Z.m.S.5Xu.  |.J S { h ",
"* @.*.< p.F.H.;XuXt.o M.M S E f ",
"$ *.=.< l.>X7XyX*X-.O n.V F ~ f ",
"$ *.{ 5 p.-X=XD.j.5.P d.m F R d ",
"$ #.O.~ b 2 + - r z N l C I / e ",
"* #._ | 9.9.9.9.6.3.2.1.,.L H t ",
"* @.c {.NXvXcXjXdXiX0X6XmXx.l e ",
"* #.5  XNXlXjXgXiXwX9X2XxXc.y e ",
"# | 5 }.NX1X<X:X#XOX X'.aXz.u e ",
"* ' 3 ].NXvXmXxXgXsXwX8XdXf.l > ",
"t | 5 ].MX@X+XOXXX[.`.C.wXg.x > ",
"f *.p B.kXtXrXeX4X3X&X$X%Xe.p = ",
"f ! ; J._./.(.~.W.R.Y.P.U.;.` K ",
"s Y C >.).^.!.Q.E.T.I.K.L.:.v , "
};
