/* XPM */
static char * gftp_16x16_xpm[] = {
"16 16 220 2",
"  	c None",
". 	c #FEFEFE",
"+ 	c #F9F9F9",
"@ 	c #E0E0E0",
"# 	c #DDE2F7",
"$ 	c #D6DDF6",
"% 	c #D0D8F5",
"& 	c #CAD3F4",
"* 	c #C3CDF2",
"= 	c #BAC5EC",
"- 	c #B3BEEA",
"; 	c #ADBAE8",
"> 	c #A7B5E7",
", 	c #A1B0E6",
"' 	c #9BABE5",
") 	c #95A7E5",
"! 	c #90A3E5",
"~ 	c #838EB4",
"{ 	c #F0F0F1",
"] 	c #F5F5F5",
"^ 	c #CFD7F5",
"/ 	c #C7D1F3",
"( 	c #BAC6F1",
"_ 	c #B0BEEF",
": 	c #AAB7E6",
"< 	c #808CC2",
"[ 	c #717DB6",
"} 	c #6775B4",
"| 	c #5F6EB3",
"1 	c #5768B1",
"2 	c #5064B3",
"3 	c #4A60B8",
"4 	c #53597D",
"5 	c #CAC9D1",
"6 	c #EEEEF0",
"7 	c #CDD6F4",
"8 	c #C1CBF0",
"9 	c #B3BEE8",
"0 	c #B6C1EA",
"a 	c #96A2D3",
"b 	c #3B3F58",
"c 	c #303245",
"d 	c #2E3144",
"e 	c #303246",
"f 	c #2E3044",
"g 	c #2A2D44",
"h 	c #292D45",
"i 	c #31396A",
"j 	c #2C2D39",
"k 	c #53525A",
"l 	c #BAB9C2",
"m 	c #D3DAF4",
"n 	c #AEB6D8",
"o 	c #8990B7",
"p 	c #8D95BF",
"q 	c #8A92BD",
"r 	c #2C2D3C",
"s 	c #373A59",
"t 	c #3A3F64",
"u 	c #3C4267",
"v 	c #2D2F49",
"w 	c #2D2E3F",
"x 	c #303864",
"y 	c #2B3159",
"z 	c #353441",
"A 	c #464550",
"B 	c #6A6971",
"C 	c #C8CFE9",
"D 	c #6B708D",
"E 	c #2D2F38",
"F 	c #35384A",
"G 	c #6A719F",
"H 	c #2C2E3F",
"I 	c #545B8B",
"J 	c #5C69A7",
"K 	c #6979BD",
"L 	c #474F7B",
"M 	c #3A3F5E",
"N 	c #5669B7",
"O 	c #283368",
"P 	c #5D5C6A",
"Q 	c #888697",
"R 	c #4B4A51",
"S 	c #B8BDD6",
"T 	c #3B3C48",
"U 	c #4F5171",
"V 	c #2D2D3A",
"W 	c #5D638F",
"X 	c #2F2F3A",
"Y 	c #31334A",
"Z 	c #41476A",
"` 	c #7689CF",
" .	c #4C5689",
"..	c #394066",
"+.	c #667CCF",
"@.	c #2C386E",
"#.	c #5D5B6A",
"$.	c #777686",
"%.	c #54535A",
"&.	c #A7ABC3",
"*.	c #3E3E4A",
"=.	c #888EB2",
"-.	c #3D3E4E",
";.	c #62668E",
">.	c #2C2D3A",
",.	c #36384E",
"'.	c #484E6F",
").	c #7C8ED2",
"!.	c #5B638E",
"~.	c #454A69",
"{.	c #6B81D2",
"].	c #353F6E",
"^.	c #333239",
"/.	c #333237",
"(.	c #8B8A93",
"_.	c #9CA0BD",
":.	c #3E3F4D",
"<.	c #8D94BC",
"[.	c #3D3F4F",
"}.	c #5F648D",
"|.	c #2C2E41",
"1.	c #6973A6",
"2.	c #7989C9",
"3.	c #7A8FDC",
"4.	c #57608D",
"5.	c #3B4267",
"6.	c #6078D0",
"7.	c #343D69",
"8.	c #3E3C48",
"9.	c #7F7E8A",
"0.	c #D6D5DB",
"a.	c #A7ACC9",
"b.	c #343543",
"c.	c #676B90",
"d.	c #343441",
"e.	c #2F3145",
"f.	c #7E8CC4",
"g.	c #8FA2E6",
"h.	c #92A4E5",
"i.	c #535D8D",
"j.	c #3F4568",
"k.	c #657CD1",
"l.	c #394064",
"m.	c #6E6D79",
"n.	c #DBDADF",
"o.	c #F7F7F8",
"p.	c #C2C7DE",
"q.	c #454756",
"r.	c #282930",
"s.	c #27262B",
"t.	c #696E94",
"u.	c #8D99CE",
"v.	c #98AAEA",
"w.	c #96A8E7",
"x.	c #656D95",
"y.	c #4C526F",
"z.	c #6F85D5",
"A.	c #363C5B",
"B.	c #85848D",
"C.	c #F6F6F7",
"D.	c #CDD3E9",
"E.	c #747797",
"F.	c #3C3D5D",
"G.	c #292939",
"H.	c #767EAB",
"I.	c #6F7598",
"J.	c #95A3DA",
"K.	c #8CA0E8",
"L.	c #889DE6",
"M.	c #6C7BBA",
"N.	c #626FA6",
"O.	c #6C84D9",
"P.	c #454D73",
"Q.	c #BBBAC2",
"R.	c #FBFBFB",
"S.	c #CFD4E8",
"T.	c #54566A",
"U.	c #323347",
"V.	c #373848",
"W.	c #929DCC",
"X.	c #A6B2DE",
"Y.	c #A1B0E8",
"Z.	c #96A9EA",
"`.	c #8CA1E8",
" +	c #7B90DC",
".+	c #7F92DA",
"++	c #748BDD",
"@+	c #7A809A",
"#+	c #EFEFF1",
"$+	c #FDFDFD",
"%+	c #D5DAED",
"&+	c #71748B",
"*+	c #494A5C",
"=+	c #777DA0",
"-+	c #B3BEE7",
";+	c #BCC8F0",
">+	c #AAB9EE",
",+	c #9EAFEC",
"'+	c #93A6EA",
")+	c #97A9EA",
"!+	c #96A9E9",
"~+	c #738AD8",
"{+	c #9FA2AE",
"]+	c #D9DFF4",
"^+	c #BAC0DB",
"/+	c #A6ADCD",
"(+	c #B1BBE0",
"_+	c #B8C4EF",
":+	c #A8B7ED",
"<+	c #9FB0EC",
"[+	c #8EA2E8",
"}+	c #859BE7",
"|+	c #6E83CC",
"1+	c #A4A6AE",
"2+	c #E7E7E7",
"3+	c #FBFBFC",
"4+	c #FAFAFA",
"5+	c #E5E5E5",
"6+	c #848484",
"7+	c #818181",
". . . . . . . . . . . . . + @ @ ",
"# $ % & * = - ; > , ' ) ! ~ { ] ",
"^ / ( _ : < [ } | } 1 2 3 4 5 6 ",
"7 8 9 0 a b c d e f g h i j k l ",
"m n o p q r s t u v w x y z A B ",
"C D E F G H I J K L M N O P Q R ",
"S T U V W X Y Z `  ...+.@.#.$.%.",
"&.*.=.-.;.>.,.'.).!.~.{.].^./.(.",
"_.:.<.[.}.|.1.2.3.4.5.6.7.8.9.0.",
"a.b.c.d.}.e.f.g.h.i.j.k.l.m.n.o.",
"p.q.r.s.t.F u.v.w.x.y.z.A.B.C.. ",
"D.E.F.G.H.I.J.K.L.M.N.O.P.Q.R.. ",
"S.T.U.V.W.X.Y.Z.`. +.+++@+#+$+. ",
"%+&+*+=+-+;+>+,+'+)+!+~+{+$+. . ",
"]+^+/+(+_+_ :+<+Z.[+}+|+1+2+2+2+",
". 3+4+$+. . . . . . . 5+6+7+7+7+"};
