/* XPM */
static char * isp_16x16_xpm[] = {
"16 16 138 2",
"  	c None",
". 	c #808E97",
"+ 	c #BEC0C2",
"@ 	c #C8C8C8",
"# 	c #C6C6C6",
"$ 	c #C7C8C7",
"% 	c #C6C7C6",
"& 	c #A8AFB3",
"* 	c #697C87",
"= 	c #9BA4A8",
"- 	c #D8D7D8",
"; 	c #DDDBDD",
"> 	c #DCDADC",
", 	c #DAD8DA",
"' 	c #DBD9DB",
") 	c #CECCCE",
"! 	c #687478",
"~ 	c #9FAAB0",
"{ 	c #9E9D9E",
"] 	c #777877",
"^ 	c #767876",
"/ 	c #BAB8BA",
"( 	c #6D787D",
"_ 	c #929292",
": 	c #4C4B4C",
"< 	c #4E6070",
"[ 	c #527898",
"} 	c #4B4D52",
"| 	c #4B5158",
"1 	c #506E87",
"2 	c #4A484A",
"3 	c #4E4E4E",
"4 	c #CCCACC",
"5 	c #4A4C51",
"6 	c #5593C2",
"7 	c #5697C9",
"8 	c #5590BE",
"9 	c #4C5865",
"0 	c #4C545D",
"a 	c #5AAEEE",
"b 	c #5699CD",
"c 	c #4B4E53",
"d 	c #4B5057",
"e 	c #5592C1",
"f 	c #4D5C6A",
"g 	c #5693C3",
"h 	c #5695C6",
"i 	c #364E5C",
"j 	c #8A8E4F",
"k 	c #7C7C3A",
"l 	c #3A383A",
"m 	c #4D5C6B",
"n 	c #4C5661",
"o 	c #506C85",
"p 	c #4C5A66",
"q 	c #566D46",
"r 	c #E4E400",
"s 	c #A4A34E",
"t 	c #B9B961",
"u 	c #EAEA51",
"v 	c #9F9F2F",
"w 	c #7A7C54",
"x 	c #B2B2B2",
"y 	c #B8B8B8",
"z 	c #CFCDCF",
"A 	c #57672F",
"B 	c #78770C",
"C 	c #8E8D0C",
"D 	c #9A983A",
"E 	c #979600",
"F 	c #9C9C49",
"G 	c #E3E250",
"H 	c #ACAC1B",
"I 	c #767670",
"J 	c #7E7F7E",
"K 	c #7B8487",
"L 	c #798991",
"M 	c #3F555B",
"N 	c #C1C03F",
"O 	c #CACA47",
"P 	c #E0DF37",
"Q 	c #B0B004",
"R 	c #C4C337",
"S 	c #818000",
"T 	c #FFFF52",
"U 	c #B0B038",
"V 	c #A0A0A0",
"W 	c #BCBCBC",
"X 	c #A9AAA9",
"Y 	c #B9B9B9",
"Z 	c #BDBF41",
"` 	c #CAC956",
" .	c #ACAB53",
"..	c #AAA942",
"+.	c #EDED06",
"@.	c #DAD830",
"#.	c #7C7B02",
"$.	c #ECEB45",
"%.	c #87861E",
"&.	c #727272",
"*.	c #CCC9CC",
"=.	c #A8A8A8",
"-.	c #C4C6C9",
";.	c #919381",
">.	c #FDFD86",
",.	c #D6D62E",
"'.	c #B8B73C",
").	c #E8E800",
"!.	c #D9D82F",
"~.	c #8A880F",
"{.	c #6D6C00",
"].	c #B8B72B",
"^.	c #525000",
"/.	c #858485",
"(.	c #B4B2B4",
"_.	c #B7B6B7",
":.	c #AFAEAF",
"<.	c #B4B3B4",
"[.	c #989B9C",
"}.	c #868540",
"|.	c #FBFB29",
"1.	c #FFFF86",
"2.	c #FFFF85",
"3.	c #D9D839",
"4.	c #838100",
"5.	c #5A5900",
"6.	c #656915",
"7.	c #45532B",
"8.	c #38576A",
"9.	c #607168",
"0.	c #C5C43B",
"a.	c #FCFC28",
"b.	c #989615",
"c.	c #5B5E0C",
"d.	c #394830",
"e.	c #627268",
"f.	c #606114",
"g.	c #384833",
"        . + @ # @ # $ % & *     ",
"      = - ; > , ; ' > > , ) !   ",
"      ~ { ] ^ ^ ^ ^ ^ ^ ] / (   ",
"      ~ _ : < [ } | 1 2 3 4 (   ",
"      ~ _ : 5 6 7 8 9 2 3 4 (   ",
"      ~ _ : 2 0 a b c 2 3 4 (   ",
"      ~ _ : d e f g h c 3 4 (   ",
"    i j k l m n 2 5 o p 3 4 (   ",
"  q r s t u v w x y y y y z (   ",
"  A B C D E F G H I J J K L     ",
"  M N O P Q R S T U V W X Y     ",
"  Z `  ...+.@.#.$.%.&.*.=.{ -.  ",
";.>.,.'.).!.~.{.].^./.(._.:.<.[.",
"}.|.1.2.3.~.4.5.6.7.            ",
"8.9.0.a.b.4.c.d.                ",
"      e.f.g.                    "};
