/* XPM */
static char * psi_16x16_xpm[] = {
"16 16 86 1",
" 	c None",
".	c #6090CF",
"+	c #5996DD",
"@	c #487DC5",
"#	c #4677C3",
"$	c #649CDE",
"%	c #4D88D2",
"&	c #508FDA",
"*	c #5588C7",
"=	c #075BC3",
"-	c #096ACF",
";	c #0655B8",
">	c #076ACF",
",	c #0B5BB9",
"'	c #0867CE",
")	c #0743A8",
"!	c #044EB5",
"~	c #056FD2",
"{	c #054FA1",
"]	c #0359BC",
"^	c #0570D1",
"/	c #0562C0",
"(	c #0466CE",
"_	c #032C91",
":	c #0750B7",
"<	c #0A75D5",
"[	c #085DB1",
"}	c #065FBF",
"|	c #0A77D5",
"1	c #086BC8",
"2	c #0868D0",
"3	c #042A93",
"4	c #0B5EC0",
"5	c #0E80DA",
"6	c #0C6CC0",
"7	c #0968C4",
"8	c #0F82DA",
"9	c #0E7CD5",
"0	c #0C6FD5",
"a	c #053692",
"b	c #0E74CB",
"c	c #128CDF",
"d	c #107CCE",
"e	c #0C72C9",
"f	c #128DDF",
"g	c #128CDE",
"h	c #0E7CDB",
"i	c #053787",
"j	c #149BE5",
"k	c #188EDC",
"l	c #0D78CC",
"m	c #1496E4",
"n	c #1697E4",
"o	c #0F8CE0",
"p	c #12A2E4",
"q	c #22A1E8",
"r	c #0B7BCE",
"s	c #119AE6",
"t	c #2486CF",
"u	c #189EE8",
"v	c #0D81CA",
"w	c #17ADEA",
"x	c #3DA1DD",
"y	c #1B86D0",
"z	c #0D9CE7",
"A	c #367FB8",
"B	c #3EACE7",
"C	c #13A2E0",
"D	c #5F5F5F",
"E	c #4C4C4C",
"F	c #3F3F3F",
"G	c #0F9FDA",
"H	c #14A5E8",
"I	c #099BE7",
"J	c #1DACE8",
"K	c #1893C7",
"L	c #515151",
"M	c #494949",
"N	c #047FC9",
"O	c #039AE7",
"P	c #0185D8",
"Q	c #019BE7",
"R	c #0092DE",
"S	c #00A4E9",
"T	c #00A4E6",
"U	c #00BDEF",
"                ",
" .+@  #$   %&*  ",
"  =-  ;>  ,')   ",
"  !~{ ]^  /(_   ",
"  :<[ }|  123   ",
"  456 78  90a   ",
"  bcd ef  ghi   ",
"   jk lm  no    ",
"   pq rs tuv    ",
"    wxyzABC DEF ",
"     GHIJK   LM ",
"      NO        ",
"      PQ        ",
"      RS        ",
"      TU        ",
"                "};
