/* XPM */
static char * remote_16x16_xpm[] = {
"16 16 65 1",
" 	c None",
".	c #181818",
"+	c #BFBFBF",
"@	c #E7E7E7",
"#	c #E0E0E0",
"$	c #DFDFDF",
"%	c #E5E5E5",
"&	c #C8C8C8",
"*	c #D2D2D2",
"=	c #C1C1C1",
"-	c #B3B3B3",
";	c #BEBEBE",
">	c #CECECE",
",	c #E4E4E4",
"'	c #CACACA",
")	c #C5C5C5",
"!	c #E3E3E3",
"~	c #B5B5B5",
"{	c #D3D3D3",
"]	c #CDCDCD",
"^	c #CBCBCB",
"/	c #E8E8E8",
"(	c #C2C2C2",
"_	c #2F2F2F",
":	c #96928B",
"<	c #D5CCBB",
"[	c #D2C5AB",
"}	c #8F887B",
"|	c #BCBCBC",
"1	c #E2E2E2",
"2	c #ABABAB",
"3	c #C6BBA5",
"4	c #F9F2E4",
"5	c #F4E5C8",
"6	c #BEAC88",
"7	c #DCDCDC",
"8	c #BAAB8F",
"9	c #F0DCB4",
"0	c #EDD5A5",
"a	c #B39F79",
"b	c #2C2C2C",
"c	c #53524E",
"d	c #AC9C7E",
"e	c #A89776",
"f	c #494743",
"g	c #B0B0B0",
"h	c #363636",
"i	c #A9A9A9",
"j	c #858585",
"k	c #1B1B1B",
"l	c #C6C6C6",
"m	c #323232",
"n	c #AAAAAA",
"o	c #212121",
"p	c #D1D1D1",
"q	c #3F3F3F",
"r	c #313131",
"s	c #B2B2B2",
"t	c #414141",
"u	c #BBBBBB",
"v	c #2E2E2E",
"w	c #171717",
"x	c #0B0B0B",
"y	c #292929",
"z	c #060606",
"     ......     ",
"    .+@#$%&.    ",
"   .%*=--;>,.   ",
"  .%'-....-)!.  ",
" .~{-.    .-]^. ",
" ./(_ :<[} .|!. ",
" .12. 3456 .-7. ",
" .12. 890a .-7. ",
" .@(b cdef .|!. ",
" .g{-.hijk.-]l. ",
"  .!'-mnjo-)1.  ",
"   .1pqijr>1.   ",
"    .stijhu.    ",
"     .vijw.     ",
"      _ij.      ",
"      xyoz      "};
