/* XPM */
static char * sketch_16x16_xpm[] = {
"16 16 102 2",
"  	c None",
". 	c #949692",
"+ 	c #747472",
"@ 	c #7C7D7A",
"# 	c #4B4C49",
"$ 	c #9E9E9E",
"% 	c #D8D8D8",
"& 	c #4F504E",
"* 	c #80817E",
"= 	c #828280",
"- 	c #81817E",
"; 	c #656563",
"> 	c #727370",
", 	c #969693",
"' 	c #BEBEBE",
") 	c #FFFFFF",
"! 	c #DCDCDC",
"~ 	c #2D2D2D",
"{ 	c #969692",
"] 	c #E6E7E1",
"^ 	c #D3D4CF",
"/ 	c #7E7E7B",
"( 	c #C0C1BC",
"_ 	c #92928F",
": 	c #BDBEB9",
"< 	c #AFAFAF",
"[ 	c #161414",
"} 	c #4E0101",
"| 	c #2D1C1B",
"1 	c #BABBB6",
"2 	c #878884",
"3 	c #B8B9B4",
"4 	c #989894",
"5 	c #868784",
"6 	c #0F0606",
"7 	c #630101",
"8 	c #371010",
"9 	c #8C8C8C",
"0 	c #544947",
"a 	c #D8D9D3",
"b 	c #898A86",
"c 	c #DFE0DA",
"d 	c #625B58",
"e 	c #382A2A",
"f 	c #A4A4A4",
"g 	c #5C2B2B",
"h 	c #AE0101",
"i 	c #7C5654",
"j 	c #D3D4CE",
"k 	c #646262",
"l 	c #6C0E0E",
"m 	c #B00101",
"n 	c #820101",
"o 	c #BE0101",
"p 	c #918684",
"q 	c #C6C7C2",
"r 	c #901716",
"s 	c #940101",
"t 	c #C30101",
"u 	c #840101",
"v 	c #A40B0B",
"w 	c #B2B0AC",
"x 	c #A8A5A1",
"y 	c #AD0303",
"z 	c #800101",
"A 	c #C20101",
"B 	c #9B0000",
"C 	c #7B2726",
"D 	c #DEDED9",
"E 	c #897673",
"F 	c #C10202",
"G 	c #750C0C",
"H 	c #685858",
"I 	c #E0E1DB",
"J 	c #7B4846",
"K 	c #661414",
"L 	c #C0BFBF",
"M 	c #EEEFEF",
"N 	c #8B8C88",
"O 	c #DCDED8",
"P 	c #8A8A87",
"Q 	c #919291",
"R 	c #EDEEEE",
"S 	c #646563",
"T 	c #B9BAB5",
"U 	c #979894",
"V 	c #D0D1CC",
"W 	c #60605E",
"X 	c #090909",
"Y 	c #D2D3CE",
"Z 	c #7D7E7A",
"` 	c #E6E6E0",
" .	c #B0B1AC",
"..	c #C8C8C3",
"+.	c #848581",
"@.	c #868783",
"#.	c #B0B0AC",
"$.	c #B1B2AD",
"%.	c #AEAEAA",
"&.	c #7A7B78",
"*.	c #848482",
"=.	c #858682",
"        . +                     ",
"    @ # $ % & * = = = = - ;     ",
"  > , ' ) ! ~ { ] ] ] ] ] ^ /   ",
"( _ : $ < [ } | 1 ] ] ] ] ] 2   ",
"3 4 ] 5 6 7 8 9 0 a ] ] ] ] b   ",
"3 4 ] c d e f g h i ] ] ] ] b   ",
"3 4 ] ] j k l m n o p ] ] ] b   ",
"3 4 ] ] ] q r s t u v w ] ] b   ",
"3 4 ] ] ] ] x y z A B C D ] b   ",
"3 4 ] ] ] ] ] E F u G H 3 ] b   ",
"3 4 ] ] ] ] ] I J K L M N ] b   ",
"3 4 ] ] ] ] ] ] O P Q R S ] b   ",
"T U ] ] ] ] ] ] ] ] V W X Y b   ",
"  Z ] ] ] ] ] ] ] ] ] `  ...@   ",
"  +.@.#.$.$.$.$.$.$.$.$.%.&.*.  ",
"      2 =.=.=.=.=.=.=.=.P       "};
