/* XPM */
static char *terminal_16x16[] = {
/* columns rows colors chars-per-pixel */
"16 16 6 1",
"  c black",
". c #808080",
"X c #c3c3c3",
"o c #c0ffff",
"O c white",
"+ c None",
/* pixels */
"++           +++",
"+ XXXXXXXXXXX ++",
"+ X.........X ++",
"+ X.       OX ++",
"+ X. oo    OX ++",
"+ X.       OX ++",
"+ X.       OX ++",
"+ X.       OX ++",
"+ XXXXXXXXXXX ++",
"+ ........... ++",
"++           +++",
"++ .++++++++++++",
"++. ++++++++++++",
"++ .+  +++++++++",
"+++  X +++++++++",
"+++++  +++++++++"
};
