/* XPM */
static char * terminal_16x16_xpm[] = {
"16 16 168 2",
"  	c None",
". 	c #70706F",
"+ 	c #767674",
"@ 	c #767675",
"# 	c #757573",
"$ 	c #737271",
"% 	c #71706F",
"& 	c #6D6C6A",
"* 	c #676563",
"= 	c #62615E",
"- 	c #5D5C59",
"; 	c #595754",
"> 	c #DFDDD7",
", 	c #D1CEC7",
"' 	c #D2D0C8",
") 	c #D3D0C9",
"! 	c #D0CDC6",
"~ 	c #CCCAC2",
"{ 	c #C7C4BC",
"] 	c #C0BCB4",
"^ 	c #B6B2AA",
"/ 	c #AAA69E",
"( 	c #9F9B92",
"_ 	c #9E9A91",
": 	c #383734",
"< 	c #E1DED9",
"[ 	c #4A4A46",
"} 	c #4C4E4C",
"| 	c #505250",
"1 	c #4E514E",
"2 	c #474A47",
"3 	c #3D403D",
"4 	c #323632",
"5 	c #2C302C",
"6 	c #272A27",
"7 	c #1F211F",
"8 	c #0F110F",
"9 	c #9D998F",
"0 	c #33312E",
"a 	c #DCD9D3",
"b 	c #51524E",
"c 	c #A4A7A4",
"d 	c #9EA19E",
"e 	c #909390",
"f 	c #7B807B",
"g 	c #656A65",
"h 	c #595E59",
"i 	c #525852",
"j 	c #484E48",
"k 	c #373C37",
"l 	c #1A1C1A",
"m 	c #949086",
"n 	c #2F2D2A",
"o 	c #D4D0CA",
"p 	c #50504C",
"q 	c #8C8F8C",
"r 	c #808480",
"s 	c #797F79",
"t 	c #727872",
"u 	c #6C726C",
"v 	c #656B65",
"w 	c #5C625C",
"x 	c #505550",
"y 	c #3A3E3A",
"z 	c #1B1D1B",
"A 	c #8A857C",
"B 	c #2B2A26",
"C 	c #C8C4BD",
"D 	c #4F504B",
"E 	c #6E736E",
"F 	c #707670",
"G 	c #7D837D",
"H 	c #848A84",
"I 	c #808680",
"J 	c #787E78",
"K 	c #5C615C",
"L 	c #424742",
"M 	c #1D201D",
"N 	c #7E7A70",
"O 	c #272522",
"P 	c #BCB8B1",
"Q 	c #686E68",
"R 	c #7F867F",
"S 	c #7E847E",
"T 	c #777D77",
"U 	c #6B706B",
"V 	c #585D58",
"W 	c #3E433E",
"X 	c #1C1E1C",
"Y 	c #747066",
"Z 	c #23221F",
"` 	c #AFABA3",
" .	c #464742",
"..	c #878B87",
"+.	c #BEC0BE",
"@.	c #A3A8A3",
"#.	c #7A817A",
"$.	c #757B75",
"%.	c #686F68",
"&.	c #565C56",
"*.	c #1C1F1C",
"=.	c #6C685E",
"-.	c #1F1E1B",
";.	c #9E9A92",
">.	c #3E3F3A",
",.	c #919491",
"'.	c #9EA09E",
").	c #969A96",
"!.	c #4E534E",
"~.	c #404540",
"{.	c #303530",
"].	c #181A18",
"^.	c #635F54",
"/.	c #1D1B18",
"(.	c #908C82",
"_.	c #31302D",
":.	c #2A2E2A",
"<.	c #2F322F",
"[.	c #323532",
"}.	c #303330",
"|.	c #2B2F2B",
"1.	c #262926",
"2.	c #212321",
"3.	c #1A1D1A",
"4.	c #0E0F0E",
"5.	c #5C584D",
"6.	c #1A1A16",
"7.	c #827E75",
"8.	c #848074",
"9.	c #888377",
"0.	c #878276",
"a.	c #837E72",
"b.	c #7E796D",
"c.	c #777266",
"d.	c #716C60",
"e.	c #6C685B",
"f.	c #676256",
"g.	c #646054",
"h.	c #686458",
"i.	c #504C42",
"j.	c #1A1916",
"k.	c #6C6961",
"l.	c #625F56",
"m.	c #635F55",
"n.	c #625D54",
"o.	c #5E5A50",
"p.	c #59564C",
"q.	c #555148",
"r.	c #514D44",
"s.	c #4E4A41",
"t.	c #4A473E",
"u.	c #4C4940",
"v.	c #423F36",
"w.	c #45423A",
"x.	c #1C1B17",
"y.	c #000000",
"z.	c #43413E",
"A.	c #464440",
"B.	c #4F4D4A",
"C.	c #565452",
"D.	c #54524F",
"E.	c #504E4B",
"F.	c #4B4A46",
"G.	c #454440",
"H.	c #3E3D38",
"I.	c #3A3935",
"J.	c #3B3934",
"K.	c #100F0E",
"                                ",
"  . + + @ @ # $ % & * = - ;     ",
"  > , ' ) ' ! ~ { ] ^ / ( _ :   ",
"  < [ } | 1 2 3 4 5 6 7 8 9 0   ",
"  a b c d e f g h i j k l m n   ",
"  o p q r s t u v w x y z A B   ",
"  C D E F G H I J u K L M N O   ",
"  P [ E Q J R S T U V W X Y Z   ",
"  `  ...+.@.#.#.$.%.&.W *.=.-.  ",
"  ;.>.,.'.U r ).U !.~.{.].^./.  ",
"  (._.:.<.[.4 }.|.1.2.3.4.5.6.  ",
"  7.8.9.0.a.b.c.d.e.f.g.h.i.j.  ",
"  k.l.m.n.o.p.q.r.s.t.u.v.w.x.  ",
"  y.z.A.B.C.D.E.F.G.H.I.J.K.    ",
"                                ",
"                                "};
