/* XPM */
static char *magick[] = {
/* columns rows colors chars-per-pixel */
"16 13 183 2",
"   c #0b1422",
".  c #1b2028",
"X  c #21252e",
"o  c #373f4e",
"O  c #353f56",
"+  c #3e4149",
"@  c #4b4b4f",
"#  c #4f515c",
"$  c #43506d",
"%  c #5b5d67",
"&  c #535d75",
"*  c #636267",
"=  c #727074",
"-  c #767377",
";  c #79777a",
":  c #7b797f",
">  c #7a7a7f",
",  c #7e7b7f",
"<  c #4b5b81",
"1  c #57668b",
"2  c #6a7591",
"3  c #7a7b80",
"4  c #7c7a80",
"5  c #7e7c83",
"6  c #7e7f82",
"7  c #7e8ca6",
"8  c #768ab3",
"9  c #7f8fb0",
"0  c #7d92b9",
"q  c #827d80",
"w  c #817f86",
"e  c #817f87",
"r  c #818087",
"t  c #828085",
"y  c #838186",
"u  c #838285",
"i  c #858285",
"p  c #868284",
"a  c #868285",
"s  c #868386",
"d  c #868387",
"f  c #878386",
"g  c #858487",
"h  c #818189",
"j  c #81828f",
"k  c #82838d",
"l  c #868489",
"z  c #87858a",
"x  c #89828c",
"c  c #89858b",
"v  c #88858c",
"b  c #89878d",
"n  c #8c888f",
"m  c #8d8a8f",
"M  c #8e8f8e",
"N  c #848591",
"B  c #868b97",
"V  c #8a8891",
"C  c #8a8b93",
"Z  c #8c8990",
"A  c #8d8990",
"S  c #8e8990",
"D  c #898b9a",
"F  c #8e909a",
"G  c #908c90",
"H  c #908d90",
"J  c #938c90",
"K  c #948f94",
"L  c #939197",
"P  c #949293",
"I  c #959194",
"U  c #979396",
"Y  c #979697",
"T  c #959399",
"R  c #989698",
"E  c #989699",
"W  c #989798",
"Q  c #99969a",
"!  c #9a959b",
"~  c #9b9799",
"^  c #9a969b",
"/  c #99959c",
"(  c #999899",
")  c #9a9899",
"_  c #9d999d",
"`  c #9d999f",
"'  c #9d9b9d",
"]  c #9e9b9d",
"[  c #8591ac",
"{  c #8692ad",
"}  c #8793ac",
"|  c #8092b3",
" . c #9b99a1",
".. c #999aa4",
"X. c #9e9ca3",
"o. c #9f9da4",
"O. c #949bb0",
"+. c #9099bd",
"@. c #98a6bf",
"#. c #9ca6bb",
"$. c #a09b9d",
"%. c #a09b9e",
"&. c #a29fa7",
"*. c #a49fa0",
"=. c #a6a3a5",
"-. c #a6a2a9",
";. c #aba2ae",
":. c #a9a4a8",
">. c #a9a5a9",
",. c #aca7ac",
"<. c #ada7ac",
"1. c #aaa8ac",
"2. c #aca8aa",
"3. c #aca9ab",
"4. c #aca9ac",
"5. c #afacaf",
"6. c #a6a7b1",
"7. c #aaa7b1",
"8. c #a9a9b2",
"9. c #aeaab1",
"0. c #aeacb3",
"q. c #afb0bd",
"w. c #b1adaf",
"e. c #b1acb1",
"r. c #b0adb4",
"t. c #b3b0b2",
"y. c #b3b0b3",
"u. c #b3b1b6",
"i. c #b4b1b3",
"p. c #b4b0b4",
"a. c #b5b2b5",
"s. c #b6b2b5",
"d. c #b6b3b6",
"f. c #b7b2b6",
"g. c #b7b3b7",
"h. c #bab4b2",
"j. c #b8b5b8",
"k. c #b9b4b9",
"l. c #bbb8bb",
"z. c #bebbbe",
"x. c #bfbcbf",
"c. c #b2b7c7",
"v. c #b2b9ce",
"b. c #bdbbc7",
"n. c #b6c2de",
"m. c #c0bbbf",
"M. c #c1bcc0",
"N. c #c1bec1",
"B. c #c2bec1",
"V. c #c4bdc6",
"C. c #c8b7c0",
"Z. c #c3c0c3",
"A. c #c6c1c5",
"S. c #c6c2c6",
"D. c #c7c4c7",
"F. c #c7c1c8",
"G. c #c6c4cd",
"H. c #c9c5c7",
"J. c #c8c4c8",
"K. c #c8c5c8",
"L. c #c9c5c8",
"P. c #c9c6c9",
"I. c #cdcacd",
"U. c #cfcacd",
"Y. c #cecbce",
"T. c #c4c0d3",
"R. c #ced2df",
"E. c #d0cbcd",
"W. c #d1cbcd",
"Q. c #d0cbce",
"!. c #d0ccce",
"~. c #d2cdce",
"^. c #d2cdcf",
"/. c #d3cdcf",
"(. c #d0cdd0",
"). c #d4d1d7",
"_. c #ddd4d4",
"`. c #dad8da",
"'. c #c4cfe9",
"]. c #eadfe5",
"[. c #eddfe0",
"{. c #efe4ed",
"}. c #f1e2e1",
/* pixels */
"`.(.Y.Y.Y.Y.Y.Y.Y.Y.Y.Y.Y.Y.Y.D.",
"Y.m.H.Y.E.E.E.E.E.!.!.!.!.!.P.a.",
"P.B.c.@.O.} } } } 9 8 0 | 7 2 <.",
"P.B.g w n A A n A A V z c V # >.",
"S.B.( 9.X.' ..6.' %.*.W S.R.& &.",
"Z.l.W W j , r v f r z 5 a.v.+.V.",
"B.k.( / j q B o.1.8.>.q.T.{.}.K ",
"x.a.W W h f ; 5 - 3 T ].[.J X + ",
"z.u.Y  .N v =.0.2.b.C.4 .   O L ",
"l.e.Y W > , w D D x ;.o = n.1 W ",
"k.4.P r.-.7.a.P.F.u.G.)._.'.< U ",
"a.<.M 2.a.i.t.w.t.' f %.h.#.$ U ",
"5.' J f f f f f f r % @ * r f J "
};
