/* XPM */
static char *gvim_16x16[] = {
/* columns rows colors chars-per-pixel */
"16 16 8 1",
"  c black",
". c navy",
"X c #008000",
"o c green",
"O c #808080",
"+ c #c3c3c3",
"@ c white",
"# c None",
/* pixels */
"##     o #    ##",
"# @@@@@ X @@@@ #",
"# +++++O  ++++O ",
"## +++O X @++O #",
"## +++O  @++O ##",
"## +++O @++O  ##",
"#o +++O@++O XX #",
"oX +++@++O XXXX ",
" X +++++  XXXX.#",
"#  ++++ +   X ##",
"## ++++   ++ + #",
"## +++ ++ +++++ ",
"## ++O  + + + + ",
"## +O X + + + + ",
"###  # ++ + + + ",
"#######  # # # #"
};
