/* XPM */
static char *magick[] = {
/* columns rows colors chars-per-pixel */
"16 16 255 2",
"   c #0b0100",
".  c #0a0700",
"X  c #0d080a",
"o  c #0f0710",
"O  c #1a1303",
"+  c #1f1c18",
"@  c #0d152a",
"#  c #1c2037",
"$  c #2a2002",
"%  c #2c2e11",
"&  c #3a3e36",
"*  c #30364b",
"=  c #353753",
"-  c #2d4915",
";  c #3b5401",
":  c #3f4446",
">  c #3f4b53",
",  c #3e4f5e",
"<  c #3f4d67",
"1  c #484a1d",
"2  c #486a00",
"3  c #47730e",
"4  c #70621b",
"5  c #41494e",
"6  c #404a51",
"7  c #464d50",
"8  c #47565f",
"9  c #585c5f",
"0  c #435b67",
"q  c #4b5965",
"w  c #4d5b67",
"e  c #575e61",
"r  c #576163",
"t  c #53646c",
"y  c #57666b",
"u  c #55666d",
"i  c #58686d",
"p  c #506572",
"a  c #526570",
"s  c #536773",
"d  c #556671",
"f  c #546773",
"g  c #576771",
"h  c #556675",
"j  c #566775",
"k  c #566776",
"l  c #566875",
"z  c #576b74",
"x  c #586771",
"c  c #5c6b71",
"v  c #5f6c71",
"b  c #5e6c73",
"n  c #5f6d73",
"m  c #656866",
"M  c #636c6e",
"N  c #636e74",
"B  c #6a6f74",
"V  c #6c6f72",
"C  c #6e6f71",
"Z  c #6c7073",
"A  c #707172",
"S  c #727b79",
"D  c #426289",
"F  c #4d6e87",
"G  c #55778d",
"H  c #677783",
"J  c #627988",
"K  c #727b85",
"L  c #717d83",
"P  c #5085b5",
"I  c #6f8181",
"U  c #6e848c",
"Y  c #6e99bc",
"T  c #7a91ac",
"R  c #7a95ae",
"E  c #7d98a4",
"W  c #7197b5",
"Q  c #799abe",
"!  c #7a9cb9",
"~  c #78a5bb",
"^  c #5d8ed7",
"/  c #72a4c8",
"(  c #7eb0cc",
")  c #813812",
"_  c #807c74",
"`  c #bf5f43",
"'  c #b47246",
"]  c #d06132",
"[  c #a1870e",
"{  c #87e60a",
"}  c #82ed13",
"|  c #82ff0d",
" . c #dabd09",
".. c #d0b016",
"X. c #d78960",
"o. c #ff9c58",
"O. c #ffec05",
"+. c #ffff17",
"@. c #959fa4",
"#. c #90b1be",
"$. c #b3a093",
"%. c #aababe",
"&. c #82a4c7",
"*. c #80a8ca",
"=. c #80aeca",
"-. c #80add2",
";. c #85b3cb",
":. c #8cb2c7",
">. c #8db6cb",
",. c #8fb4cb",
"<. c #8eb7c9",
"1. c #80b3d2",
"2. c #83b3d4",
"3. c #84b4d3",
"4. c #86b5d1",
"5. c #85b4d6",
"6. c #86b5d4",
"7. c #87b7d6",
"8. c #87bbde",
"9. c #88b6d4",
"0. c #8fbdd7",
"q. c #92bbd2",
"w. c #92b8d8",
"e. c #95bbdb",
"r. c #9cbed1",
"t. c #89b9e8",
"y. c #8db8ea",
"u. c #a4bdc3",
"i. c #a3becb",
"p. c #afbbc0",
"a. c #92c0db",
"s. c #9ac1d5",
"d. c #9dc3d3",
"f. c #8cc4f5",
"g. c #9fc5e4",
"h. c #9ecbe5",
"j. c #9bccea",
"k. c #9eceeb",
"l. c #9fceea",
"z. c #9fcdec",
"x. c #9eceee",
"c. c #90c9f1",
"v. c #92caf6",
"b. c #93ccf2",
"n. c #93cdf2",
"m. c #96cdf1",
"M. c #95cdf4",
"N. c #97cdf7",
"B. c #97cef4",
"V. c #96cff7",
"C. c #97ccf9",
"Z. c #96cff9",
"A. c #95cdfe",
"S. c #97ceff",
"D. c #99caf9",
"F. c #9ad5ef",
"G. c #96d4f1",
"H. c #93d0fd",
"J. c #96d3fa",
"K. c #95d3fe",
"L. c #97d4fc",
"P. c #96d4ff",
"I. c #97d4ff",
"U. c #98d1fe",
"Y. c #9bd3ff",
"T. c #98d6fe",
"R. c #98d7ff",
"E. c #9dd7fc",
"W. c #9fd6ff",
"Q. c #98d9ff",
"!. c #9bd8ff",
"~. c #9cdaff",
"^. c #9fd8ff",
"/. c #9edaff",
"(. c #9cdcff",
"). c #a5c8d6",
"_. c #acc8d5",
"`. c #bed3da",
"'. c #a2ceed",
"]. c #aacce7",
"[. c #a8cffa",
"{. c #a2d0ed",
"}. c #a3d0ed",
"|. c #a2d2ee",
" X c #a6d6ef",
".X c #a8d1ea",
"XX c #a9d4ea",
"oX c #afd4ea",
"OX c #aed6ee",
"+X c #a2d6ff",
"@X c #a3d9f2",
"#X c #a1d9fc",
"$X c #a3dafd",
"%X c #a0dfff",
"&X c #a2dfff",
"*X c #a7dcff",
"=X c #a9d6f1",
"-X c #aad5fc",
";X c #aad9f1",
":X c #aadcf6",
">X c #abddf7",
",X c #abdff5",
"<X c #b1cfe0",
"1X c #b3d0e1",
"2X c #b2d3e1",
"3X c #b3d7ea",
"4X c #b3d7eb",
"5X c #b4d9e1",
"6X c #b6d9e7",
"7X c #b2d8ef",
"8X c #b6daea",
"9X c #b7dce8",
"0X c #badceb",
"qX c #b0dbf0",
"wX c #b4d9f0",
"eX c #b2dcfb",
"rX c #a1e3ff",
"tX c #a3e2ff",
"yX c #afe0f5",
"uX c #aee2ff",
"iX c #afe2ff",
"pX c #ace9ff",
"aX c #b5e2f1",
"sX c #b1eaff",
"dX c #b2ebff",
"fX c #bae4f7",
"gX c #bfe7fa",
"hX c #bfe5ff",
"jX c #bfe9ff",
"kX c #b7f0ff",
"lX c #c9a693",
"zX c #d7b39e",
"xX c #e7b090",
"cX c #e7b993",
"vX c #ffcaa4",
"bX c #ffcdb2",
"nX c #ffd1a7",
"mX c #c1c8c7",
"MX c #c5d0d7",
"NX c #d8d1cb",
"BX c #d2d3d1",
"VX c #dcdad1",
"CX c #c5ddea",
"ZX c #c5e2f0",
"AX c #c4e8ff",
"SX c #c4efff",
"DX c #cee5f0",
"FX c #c8f1ff",
"GX c #cdfdff",
"HX c #d3faff",
"JX c #d4faff",
"KX c #f9d6c1",
"LX c #ffe0cf",
"PX c #f3ffff",
"IX c #f4feff",
/* pixels */
"7 w k l k k k g a u y i b b b L ",
"q W 8.3.5.5.5.2.-.;.:.>.s.d.r.i.",
"g 0./.K.I.c.T.T.U.U.W.!.W.$X$XOX",
"t =.I.N.C.*./ A.I.C.N.n.n.m.N.k.",
"g 3.iXfXCXNX@.J >.+X&XtX/.N.v.'.",
"Z MXHXaXVXLXbXzX_ l G F ( /.H.j.",
"A BXIX1X%.KXvXnX$.9 X.) X < f.k.",
"V `.JXeX#.S lXcX8 xXo.` 3 2 * e.",
"V mXAX-XD.a.U e m ' ] 1 | { . R ",
"B p.u.[.A.(.&.: t.P @ - } ; = w.",
"N 1X_.M T y.6 Q tX^ 4 ..% o <XwX",
"b ).GX5XI r > , D & O.+.$ K PXDX",
"x q.jXgXSX Xg.E 5 O  .[ # hXFXZX",
"a 9.*X=X;X:XiXsXsXY +   ~ pX:X4X",
"a 1.!.G.@X7XqXyX:XkX! 0 &XJ.F..X",
"H >.{.{.XX4X8X0X9X6XoXh.x.{.k.]."
};
