/* XPM */
static char * xchat_16x16_xpm[] = {
"16 16 91 1",
" 	c None",
".	c #5E5400",
"+	c #897B00",
"@	c #6C6100",
"#	c #393000",
"$	c #FCD600",
"%	c #FFD900",
"&	c #978000",
"*	c #4C4000",
"=	c #060500",
"-	c #BD9600",
";	c #FFC900",
">	c #977600",
",	c #8D6F00",
"'	c #C09800",
")	c #120F00",
"!	c #0F0B00",
"~	c #C08C00",
"{	c #FFB900",
"]	c #976D00",
"^	c #7A5700",
"/	c #C08100",
"(	c #FFAA00",
"_	c #936100",
":	c #764D00",
"<	c #0F0A00",
"[	c #C07400",
"}	c #FF9A00",
"|	c #6E6E74",
"1	c #D97600",
"2	c #FF8A00",
"3	c #E97E00",
"4	c #0C0700",
"5	c #878D99",
"6	c #B3B7C0",
"7	c #B6BAC2",
"8	c #B8BCC4",
"9	c #95989F",
"0	c #A3A6AD",
"a	c #D5AC86",
"b	c #D7AE87",
"c	c #E59D5B",
"d	c #DAB18A",
"e	c #989492",
"f	c #BEC0C3",
"g	c #A9ABAF",
"h	c #B5B7B9",
"i	c #8E8E8E",
"j	c #000000",
"k	c #6E5747",
"l	c #90908E",
"m	c #552100",
"n	c #785B47",
"o	c #92918E",
"p	c #DBDBD4",
"q	c #391600",
"r	c #421A00",
"s	c #94938C",
"t	c #95948B",
"u	c #989689",
"v	c #999689",
"w	c #999788",
"x	c #BB825B",
"y	c #67655A",
"z	c #D24B00",
"A	c #614F3E",
"B	c #68665A",
"C	c #9E9A88",
"D	c #9D9986",
"E	c #9D9985",
"F	c #696659",
"G	c #757262",
"H	c #7C2300",
"I	c #AA3000",
"J	c #C63800",
"K	c #1F0900",
"L	c #691E00",
"M	c #7A2200",
"N	c #4C1100",
"O	c #FF3A00",
"P	c #D23100",
"Q	c #1F0800",
"R	c #0F0400",
"S	c #C02C00",
"T	c #060100",
"U	c #A71C00",
"V	c #D02300",
"W	c #1F0600",
"X	c #0F0300",
"Y	c #BD2000",
"Z	c #120300",
"                ",
"  .+        +@  ",
" #$%&      &%%* ",
" =-;;>    ,;;') ",
"  !~{{]  ^{{~!  ",
"   !/((_:((/!   ",
"    <[}}}}[<    ",
"     |12234   5 ",
" 67890abcdefg h ",
" ijjklmnopqrs t ",
" uvwxyzABCDEF G ",
" jHIJHK  jLIIMj ",
" NOOPQ    RSOON ",
" TUVW      XYYZ ",
"                ",
"                "};
