/* XPM */
static char * clipboard_16x16_xpm[] = {
"16 16 137 2",
"  	c None",
". 	c #917766",
"+ 	c #5C473B",
"@ 	c #8D5141",
"# 	c #9EA3A2",
"$ 	c #7C7E80",
"% 	c #666466",
"& 	c #4C3C30",
"* 	c #816A5C",
"= 	c #8E7F76",
"- 	c #685B51",
"; 	c #4C4C4E",
"> 	c #9C9A97",
", 	c #454651",
"' 	c #2C2D35",
") 	c #33353C",
"! 	c #9C9FA0",
"~ 	c #CCCDD2",
"{ 	c #7B6A5A",
"] 	c #7A6C4A",
"^ 	c #A3886F",
"/ 	c #8C5D3B",
"( 	c #404148",
"_ 	c #2B2E35",
": 	c #898C8D",
"< 	c #DCE0E2",
"[ 	c #CCCFD1",
"} 	c #D5D7D8",
"| 	c #CBCED1",
"1 	c #5B4234",
"2 	c #AC9454",
"3 	c #5B5146",
"4 	c #CAB5A0",
"5 	c #834E2A",
"6 	c #D7CBBE",
"7 	c #A8ABAC",
"8 	c #DADBDC",
"9 	c #EBEFF0",
"0 	c #D7DADB",
"a 	c #B8BDBC",
"b 	c #CDD0D1",
"c 	c #B6B8B8",
"d 	c #887438",
"e 	c #A68061",
"f 	c #BEB3A5",
"g 	c #CBCDCC",
"h 	c #CBCCCC",
"i 	c #CFD2D4",
"j 	c #BABDBC",
"k 	c #CACDCE",
"l 	c #A6A9A9",
"m 	c #C2C5C7",
"n 	c #D0CCAC",
"o 	c #74634A",
"p 	c #483121",
"q 	c #D9CEC4",
"r 	c #825634",
"s 	c #D5D4D1",
"t 	c #BEC3C4",
"u 	c #BBBDBC",
"v 	c #AFB2B4",
"w 	c #ABAFB0",
"x 	c #989D9C",
"y 	c #AFB3B5",
"z 	c #C1AC68",
"A 	c #878986",
"B 	c #8E8C8C",
"C 	c #412E20",
"D 	c #CBB8A4",
"E 	c #73503B",
"F 	c #DFE2E4",
"G 	c #AEAFAF",
"H 	c #AFB2B3",
"I 	c #9DA0A0",
"J 	c #B4B8B9",
"K 	c #A3A4A2",
"L 	c #958348",
"M 	c #B3B4B4",
"N 	c #A9ACAF",
"O 	c #7D7873",
"P 	c #48382C",
"Q 	c #B28A6E",
"R 	c #8C776C",
"S 	c #D6DADB",
"T 	c #BCBEBE",
"U 	c #BBBFC0",
"V 	c #CBC694",
"W 	c #837768",
"X 	c #B9BABB",
"Y 	c #ADB0B1",
"Z 	c #989B9C",
"` 	c #413229",
" .	c #504945",
"..	c #D3CFC3",
"+.	c #805134",
"@.	c #AAA7A4",
"#.	c #B8BABA",
"$.	c #A4A8A7",
"%.	c #B1B4B6",
"&.	c #B6A26C",
"*.	c #9DA1A3",
"=.	c #B8BCBF",
"-.	c #A0A2A4",
";.	c #453E39",
">.	c #342B25",
",.	c #C7B7A7",
"'.	c #603A21",
").	c #C4C8C6",
"!.	c #C5C9CB",
"~.	c #D3D4D7",
"{.	c #947964",
"].	c #A7AAAB",
"^.	c #7C7D7D",
"/.	c #2C2826",
"(.	c #2A2724",
"_.	c #AF927C",
":.	c #644B3C",
"<.	c #D6DBDC",
"[.	c #BFBFBF",
"}.	c #797A7B",
"|.	c #707275",
"1.	c #2C201A",
"2.	c #332A22",
"3.	c #855E43",
"4.	c #817670",
"5.	c #D3D4D8",
"6.	c #35251C",
"7.	c #352C24",
"8.	c #CBC1B5",
"9.	c #5C331A",
"0.	c #777574",
"a.	c #372014",
"b.	c #30271F",
"c.	c #BAA28A",
"d.	c #461E08",
"e.	c #322820",
"f.	c #766F69",
"              . +       @       ",
"      # $ % & * = -     ;       ",
"      > , ' ) ! ~ {     ]       ",
"  ^ / ( _ : < [ } | 1 2 3       ",
"4 5 6 7 8 9 0 a b | c d         ",
"  e f g h i j k l m n o p       ",
"  q r s t u v w x y z A B C     ",
"    D E F G H I J K L M N O P   ",
"      Q R S T U I V W X Y Z `  .",
"      ..+.@.#.$.%.&.*.=.-.;.>.  ",
"        ,.'.).!.~.{.].^./.(.    ",
"          _.:.<.[.}.|.1.2.      ",
"            3.4.5.N 6.7.        ",
"            8.9.0.a.b.          ",
"              c.d.e.            ",
"                f.              "};
