/* XPM */
static char *xclipboard_16x16[] = {
/* columns rows colors chars-per-pixel */
"16 16 8 1",
"  c black",
". c #c05800",
"X c #808080",
"o c #ffdca8",
"O c #c3c3c3",
"+ c #ffffc0",
"@ c white",
"# c None",
/* pixels */
"#######  #######",
"##     @@     ##",
"## @@ OOOO @@ ##",
"#  @@      @@ ##",
"# + @@@@@@@@@ ##",
"# o @OOOOOO@@ ##",
"##.+ @@@@@@@@ ##",
"## o @OOOOO@@ ##",
"## .+ @@@@@@@ ##",
"##  o @OOOO@@ ##",
"## X.+ @@@@@@ ##",
"## @ o @@@@@@ ##",
"## @X. @@@@@@ ##",
"## @@X @@@@@@ ##",
"## XXXXXXXXXX ##",
"##            ##"
};
