/* XPM */
static char *xconsole_16x16[] = {
/* columns rows colors chars-per-pixel */
"16 16 5 1",
"  c black",
". c #808080",
"X c #c3c3c3",
"o c white",
"O c None",
/* pixels */
"OOOOOOOOOOOOOOOO",
"O              O",
" oooooooooooooo ",
" o............. ",
" o.ooooooooooX. ",
" o.o ooooooooX. ",
" o.o o ooooooX. ",
" o.ooooooooooX. ",
" o.ooooooooooX. ",
" o.ooooooooooX. ",
" o.ooooooooooX. ",
" o.ooooooooooX. ",
" oXXXXXXXXXXXX. ",
" .............. ",
"O              O",
"OOOOOOOOOOOOOOOO"
};
