/* XPM */
static char * xmms_16x16_xpm[] = {
"16 16 231 2",
"  	c None",
". 	c #E7ECFC",
"+ 	c #E0E7FC",
"@ 	c #D9E2FC",
"# 	c #D3DDFC",
"$ 	c #CDD9FC",
"% 	c #C7D3FC",
"& 	c #C0CEFC",
"* 	c #BACAFC",
"= 	c #B3C5FC",
"- 	c #AEC1FC",
"; 	c #A7BAF8",
"> 	c #A0B6F8",
", 	c #9AB2F4",
"' 	c #94ACF4",
") 	c #8EA8F4",
"! 	c #88A2F4",
"~ 	c #DEE5FC",
"{ 	c #D3DCF8",
"] 	c #C1CBE7",
"^ 	c #BBC6E7",
"/ 	c #B6C2E7",
"( 	c #BDCDFC",
"_ 	c #B8C7FC",
": 	c #AEBFF4",
"< 	c #A4B6E8",
"[ 	c #9DAEE4",
"} 	c #94A9E2",
"| 	c #8FA3E2",
"1 	c #8BA4EB",
"2 	c #8BA6F4",
"3 	c #84A1F4",
"4 	c #7E9CF4",
"5 	c #D4DEFC",
"6 	c #BAC2DE",
"7 	c #414241",
"8 	c #3A3A3A",
"9 	c #383738",
"0 	c #818DAF",
"a 	c #AEC0F6",
"b 	c #8A95B4",
"c 	c #343434",
"d 	c #3A3A3C",
"e 	c #393A3B",
"f 	c #5D6EA5",
"g 	c #819EF4",
"h 	c #7A9AF4",
"i 	c #7695F4",
"j 	c #CAD7FC",
"k 	c #BCC9F1",
"l 	c #707891",
"m 	c #292A2A",
"n 	c #292929",
"o 	c #292A29",
"p 	c #7986AD",
"q 	c #93A8E4",
"r 	c #7383B3",
"s 	c #333333",
"t 	c #1F1E1F",
"u 	c #303958",
"v 	c #728EDF",
"w 	c #7897F4",
"x 	c #7292F4",
"y 	c #6B8DF4",
"z 	c #C0CFFC",
"A 	c #BBCBFC",
"B 	c #B5C6FC",
"C 	c #808BB0",
"D 	c #2A2A2A",
"E 	c #282928",
"F 	c #282829",
"G 	c #7686B0",
"H 	c #686C7B",
"I 	c #1D1E22",
"J 	c #4C5E91",
"K 	c #7B9AF4",
"L 	c #6F90F4",
"M 	c #688BF4",
"N 	c #6386F4",
"O 	c #B8C9FC",
"P 	c #B1C3F8",
"Q 	c #ACBEF8",
"R 	c #A6BAF9",
"S 	c #69769A",
"T 	c #2C2B2E",
"U 	c #212531",
"V 	c #657DC2",
"W 	c #7998F4",
"X 	c #7293F4",
"Y 	c #6C8EF4",
"Z 	c #6789F4",
"` 	c #5F84F4",
" .	c #597FF4",
"..	c #B0C2F8",
"+.	c #A8BCF8",
"@.	c #A1B7F3",
"#.	c #9CB3F5",
"$.	c #95ADF4",
"%.	c #5A6173",
"&.	c #2B2E34",
"*.	c #6781CF",
"=.	c #7091F4",
"-.	c #698CF4",
";.	c #6286F4",
">.	c #5D82F4",
",.	c #567DF4",
"'.	c #5079F4",
").	c #9FB6F6",
"!.	c #98B0F4",
"~.	c #93ABF0",
"{.	c #757D95",
"].	c #262527",
"^.	c #31384F",
"/.	c #2A2D38",
"(.	c #5D7CD8",
"_.	c #6085F4",
":.	c #5980F4",
"<.	c #537BF4",
"[.	c #4E76EF",
"}.	c #4871F0",
"|.	c #9CB3F4",
"1.	c #97AEF4",
"2.	c #90A5E6",
"3.	c #656A79",
"4.	c #242324",
"5.	c #4F629C",
"6.	c #7796F4",
"7.	c #485680",
"8.	c #282828",
"9.	c #2E3240",
"0.	c #5272D6",
"a.	c #5179F2",
"b.	c #4A73EF",
"c.	c #446FF2",
"d.	c #3D6AF3",
"e.	c #8699D2",
"f.	c #48484C",
"g.	c #282729",
"h.	c #404659",
"i.	c #617ED7",
"j.	c #6689F1",
"k.	c #3A476C",
"l.	c #303238",
"m.	c #3955A8",
"n.	c #416DF4",
"o.	c #3A67F2",
"p.	c #3563F0",
"q.	c #8AA5F4",
"r.	c #758CD0",
"s.	c #3A4771",
"t.	c #384671",
"u.	c #354471",
"v.	c #304070",
"w.	c #5877D6",
"x.	c #5E83F4",
"y.	c #577DF1",
"z.	c #2F4381",
"A.	c #243671",
"B.	c #203571",
"C.	c #2F50B6",
"D.	c #3865F0",
"E.	c #3060EC",
"F.	c #2A5CEC",
"G.	c #809EF4",
"H.	c #7A99F4",
"I.	c #7594F4",
"J.	c #85A2F6",
"K.	c #97AFF4",
"L.	c #7B99F6",
"M.	c #8FA8F4",
"N.	c #698CF2",
"O.	c #7C9AF3",
"P.	c #7997F1",
"Q.	c #3D69EF",
"R.	c #4F78F0",
"S.	c #688BF1",
"T.	c #2859ED",
"U.	c #7896F4",
"V.	c #7092F4",
"W.	c #E5EBFC",
"X.	c #A7BBF8",
"Y.	c #DEE6FA",
"Z.	c #B9CAF9",
"`.	c #91AAF5",
" +	c #D4DFF9",
".+	c #8DA6F7",
"++	c #E7EDFB",
"@+	c #9EB5F7",
"#+	c #95AEF6",
"$+	c #D6DFFA",
"%+	c #6B8DF3",
"&+	c #2657EC",
"*+	c #6E90F4",
"=+	c #6186F4",
"-+	c #DBE3FC",
";+	c #688AF4",
">+	c #C2D1F8",
",+	c #85A2F5",
"'+	c #95ADF7",
")+	c #D2DEF9",
"!+	c #3664F0",
"~+	c #CFDAF9",
"{+	c #5A7FF1",
"]+	c #9DB4F7",
"^+	c #6085F1",
"/+	c #CBD8F9",
"(+	c #4A74EF",
"_+	c #6589F4",
":+	c #C8D5FA",
"<+	c #5E83F2",
"[+	c #B3C5F9",
"}+	c #7897F7",
"|+	c #86A2F6",
"1+	c #C0CEF9",
"2+	c #2C5DED",
"3+	c #BACBF9",
"4+	c #5078F0",
"5+	c #90AAF6",
"6+	c #93ACF6",
"7+	c #BDCCF8",
"8+	c #4A74F0",
"9+	c #5C82F4",
"0+	c #577DF4",
"a+	c #4F78F1",
"b+	c #4972F0",
"c+	c #436EF2",
"d+	c #3C69F3",
"e+	c #3764F0",
"f+	c #305FED",
"g+	c #295BEC",
"h+	c #2557EC",
". + @ # $ % & * = - ; > , ' ) ! ",
"~ { ] ^ / ( _ : < [ } | 1 2 3 4 ",
"5 6 7 8 9 0 a b c 8 d e f g h i ",
"j k l m n o p q r s t u v w x y ",
"z A B C D E F G H I J K i L M N ",
"O P Q R S E n T U V W X Y Z `  .",
"..+.@.#.$.%.n n &.*.=.-.;.>.,.'.",
"R ).!.~.{.].^.E n /.(._.:.<.[.}.",
"|.1.2.3.4.5.6.7.8.8.9.0.a.b.c.d.",
"' e.f.n g.h.i.j.k.E E l.m.n.o.p.",
"q.r.s.t.u.v.w.x.y.z.A.B.C.D.E.F.",
"G.H.I.J.K.L.M.,.N.O.;.P.Q.R.S.T.",
"U.V.y W.X.Y.Z.`. +.+++@+#+$+%+&+",
"*+M =+-+;+>+,+'+)+!+~+{+]+^+/+(+",
"_+`  .:+<+[+}+|+1+2+3+4+5+6+7+8+",
"9+0+a+b+c+d+e+f+g+&+h+h+&+&+h+h+"};
