/* XPM */
static char * it_xpm[] = {
"24 24 3 1",
" 	c #990000",
".	c #BB5454",
"+	c #FFFFFF",
"                        ",
"                        ",
"                        ",
"                        ",
"                        ",
"                        ",
"  .++++++++..++++++++.  ",
"  .++++++++..++++++++.  ",
"      ++        ++      ",
"      ++        ++      ",
"      ++        ++      ",
"      ++        ++      ",
"      ++        ++      ",
"      ++        ++      ",
"      ++        ++      ",
"      ++        ++      ",
"  .++++++++.    ++      ",
"  .++++++++.    ++      ",
"                        ",
"                        ",
"                        ",
"                        ",
"                        ",
"                        "};
